<?xml version="1.0" encoding="utf-8"?>
<!-- Generator: Adobe Illustrator 18.0.0, SVG Export Plug-In . SVG Version: 6.00 Build 0)  -->
<!DOCTYPE svg PUBLIC "-//W3C//DTD SVG 1.1//EN" "http://www.w3.org/Graphics/SVG/1.1/DTD/svg11.dtd">
<svg version="1.1" id="Layer_1" xmlns="http://www.w3.org/2000/svg" xmlns:xlink="http://www.w3.org/1999/xlink" x="0px" y="0px"
	 viewBox="0 0 450 199.8" enable-background="new 0 0 450 199.8" xml:space="preserve">
<g>
	<g>
		<polygon fill="none" points="-2306.2,-156.5 -2296.4,-157.9 -2286.6,-156.5 -2296.4,-173.5 		"/>
		<path fill="none" d="M-2247.6-259.6h-59.6c-19.6-5.7-37.2-15.2-42.8-19.8c-4.3-3.7-11.9-9.6-12.2-9.9c-1-0.8-2.2-1.2-3.4-1.2
			c-1.4,0-2.8,0.5-3.9,1.6c-1.5,1.4-3.7,3.2-6.1,5c-1.6,1.2-3.2,2.5-5,3.9c-5.6,4.9-23.5,14.7-43.1,20.3h-64.4
			c-43,0-77.9,25.5-77.9,56.8v65.3h4.4v-66c0-28.5,32.6-51.6,72.8-51.6h65.6c21.2-6,40.1-16.4,46.3-21.9c4.1-3.4,8.6-6.6,11.3-9.2
			c0,0,7.8,6.1,12.1,9.7c6.7,5.5,25.4,15.4,45.9,21.3h60.7c40.2,0,72.7,23.1,72.7,51.6v66h4.5v-65.3
			C-2169.7-234.1-2204.7-259.6-2247.6-259.6z"/>
		<polygon fill="none" points="-2446.3,-156.5 -2436.5,-157.9 -2426.7,-156.5 -2436.5,-173.5 		"/>
		<polygon fill="none" points="-2389.5,-192.5 -2366.9,-194.7 -2344.2,-192.5 -2366.9,-231.8 		"/>
		<path fill="#010101" d="M-2555.1-203.4c0-11.6,6.6-22.7,18.6-31.2c12.7-9,29.6-13.9,47.7-13.9h65.6h0.9l0.9-0.2
			c20.7-5.9,41-16.4,48.7-23.1c1.5-1.2,3-2.4,4.5-3.6c1-0.7,1.9-1.5,2.8-2.2c2.5,2,5.6,4.5,7.7,6.3l0.1,0.1l0.1,0.1
			c8,6.5,27.6,16.6,48.2,22.5l0.9,0.2h0.9h60.7c18.1,0,35,4.9,47.7,13.9c12,8.5,18.6,19.6,18.6,31.2v66h6.5v-66
			c0-28.5-32.5-51.6-72.7-51.6h-60.7c-20.5-5.9-39.2-15.8-45.9-21.3c-4.2-3.6-12.1-9.7-12.1-9.7c-2.7,2.6-7.2,5.8-11.3,9.2
			c-6.2,5.5-25.1,15.8-46.3,21.9h-65.6c-40.2,0-72.8,23.1-72.8,51.6v66h6.5V-203.4z"/>
	</g>
	<g>
		<g>
			<rect x="-2592.9" y="-125.8" width="450" height="78.6"/>
		</g>
	</g>
	<polygon points="-2335.1,-4.6 -2331.7,-8 -2334.4,-8.8 -2334.3,-8.9 -2335.6,-10.2 -2335.8,-10.1 -2336.5,-12.8 -2339.9,-9.4 
		-2339.2,-6.7 -2367.9,22 -2396.6,-6.7 -2395.8,-9.4 -2399.2,-12.8 -2400,-10.1 -2400.1,-10.2 -2401.5,-8.9 -2401.3,-8.8 
		-2404.1,-8 -2400.6,-4.6 -2397.9,-5.3 -2369.2,23.4 -2397.5,51.6 -2398.3,48.5 -2402.1,57.5 -2393,53.8 -2396.1,52.9 -2367.9,24.7 
		-2339.6,52.9 -2342.7,53.8 -2333.7,57.5 -2337.5,48.5 -2338.3,51.6 -2366.6,23.4 -2337.9,-5.3 	"/>
	<g>
		
			<text transform="matrix(1 0 0 1 -2566.3191 -73.2866)" fill="#FFFFFF" font-family="'BrandonGrotesque-Black'" font-size="38.8686" letter-spacing="11">contemplatE</text>
	</g>
	<g>
		<path d="M-2266.7-137.4L-2266.7-137.4l-29.7-51.3l-18.4,31.9l-52.1-90.2l-51.6,89.4l-18-31.2l-29.6,51.3h0l-3.7,6.5h19.9h186.8
			L-2266.7-137.4z M-2296.4-173.5l9.8,17l-9.8-1.4l-9.8,1.4L-2296.4-173.5z M-2366.9-231.8l22.7,39.3l-22.7-2.2l-22.7,2.2
			L-2366.9-231.8z M-2436.5-173.5l9.8,17l-9.8-1.4l-9.8,1.4L-2436.5-173.5z"/>
	</g>
	<g>
		<path d="M-2180.6-137.4v6.5h42.9v89h-36.5h-6.5v6.5v66.3c0,11.6-6.6,22.7-18.6,31.2c-12.7,9-29.6,13.9-47.7,13.9h-61.5h-0.9
			l-0.9,0.3c-20.4,5.9-39.6,15.9-47.4,22.2l-0.1,0.1l-0.1,0.1c-2.1,1.8-5.2,4.3-7.7,6.3c-0.8-0.6-1.6-1.3-2.5-1.9
			c-1.6-1.2-3.2-2.5-4.8-3.8c-7.6-6.6-27.5-17-47.9-22.9l-0.9-0.3h-0.9h-66.4c-18.1,0-35-4.9-47.7-13.9c-12-8.5-18.6-19.6-18.6-31.2
			v-66.3V-42h-6.5h-36.5v-89h42.9v-6.5h-49.4v101.9h42.9v66.3c0,28.5,32.6,51.6,72.8,51.6h66.4c20.9,6.1,39.3,16.2,45.5,21.6
			c4.1,3.4,8.6,6.6,11.3,9.2c0,0,7.8-6.1,12.1-9.7c6.6-5.4,24.9-15.1,45.1-21h61.5c40.2,0,72.7-23.1,72.7-51.6v-66.3h42.9v-101.9
			H-2180.6z"/>
	</g>
	
		<text transform="matrix(1 0 0 1 -2297.4695 27.1064)" font-family="'BrandonGrotesque-Bold'" font-size="15.5474" letter-spacing="7">PEAK</text>
	
		<text transform="matrix(1 0 0 1 -2511.679 27.1064)" font-family="'BrandonGrotesque-Bold'" font-size="15.5474" letter-spacing="7">OVER</text>
	<g>
		<path d="M-2362.4-4.3c0,0.1-0.1,0.2-0.2,0.2c-0.2,0.1-0.3,0.1-0.3,0.1c-0.4,0-0.9,0-1.8,0c-0.8,0-1.4,0-1.8-0.1
			c-0.1-0.2-0.1-0.2-0.1-0.3c0.1-0.1,0.3-0.1,0.7-0.1c0.3,0,0.5-0.1,0.6-0.3c0.1-0.3,0.1-0.8,0.1-1.3c0-0.8,0-1.2,0-1.3
			c0-0.3-0.1-0.6-0.1-1c0-0.2,0-0.6,0-1.3c0-0.5,0-1,0-1.3c-0.1-0.1-0.1-0.1-0.2-0.1c-0.2,0.2-0.3,0.5-0.4,1c-0.1,0.5-0.2,0.8-0.4,1
			c0,0.3-0.3,0.9-0.7,1.9c-0.2,0.7-0.4,1.4-0.7,1.9c-0.1,0.2-0.1,0.5-0.2,0.7c-0.1,0.3-0.3,0.4-0.5,0.4c-0.3-0.4-0.5-1.1-0.8-2
			c-0.3-0.9-0.5-1.6-0.8-2c0,0-0.1-0.4-0.4-1.1c-0.2-0.5-0.3-0.8-0.4-1.1c-0.1-0.3-0.1-0.5-0.2-0.6c-0.1-0.2-0.2-0.3-0.4-0.4
			c0,3.2,0,5.1,0,5.6c0,0.2,0.1,0.4,0.3,0.6c0,0,0.2,0.2,0.5,0.5c0.1,0,0.3,0,0.4,0.1c0.1,0,0.2,0.1,0.3,0.2l-0.2,0.1
			c-0.9,0-1.9,0-3.1,0.1c-0.1,0-0.2-0.1-0.2-0.2c0-0.1,0-0.2-0.1-0.2c0,0,0.3-0.1,0.9-0.2c0.5-0.3,0.7-0.8,0.7-1.6
			c0-0.2,0-0.4,0-0.9c0-0.4,0-0.7,0-0.9c0.1-0.1,0.1-0.2,0.1-0.4c0-0.1,0-0.2-0.1-0.4c0-0.2-0.1-0.3-0.1-0.4c0-0.1,0-0.1,0.1-0.2
			v-2.4c-0.1-0.1-0.3-0.3-0.4-0.4c-0.2-0.2-0.3-0.2-0.5-0.2c-0.1,0-0.2,0-0.3,0.1c-0.1,0-0.2,0.1-0.2,0.1c-0.2,0-0.3-0.1-0.4-0.3
			c0-0.2,0.1-0.4,0.3-0.4c0.3,0.1,0.8,0.1,1.3,0.1c0.6,0,1.1,0,1.3,0c0.1,0.1,0.2,0.3,0.3,0.5c0,0.2,0.1,0.4,0.2,0.6
			c0.1,0.4,0.4,1.1,0.7,1.9c0.3,0.9,0.6,1.5,0.7,2c0.1,0.1,0.2,0.4,0.3,0.8c0.1,0.3,0.2,0.6,0.3,0.8c0,0.2,0,0.4,0.2,0.5
			c0.1,0,0.2-0.1,0.3-0.3c0.1-0.2,0.1-0.4,0.2-0.5c0-0.3,0.1-0.7,0.3-1.1c0.2-0.5,0.3-0.9,0.4-1.1c0.4-0.9,0.6-1.6,0.7-1.9
			c0.3-0.7,0.4-1.4,0.6-1.9c0.2-0.2,0.6-0.3,1-0.3c0.6,0,1,0,1.1,0c0,0,0.2,0,0.4,0c0.1,0,0.2,0,0.3,0.2c0,0,0,0.1,0,0.1
			c0,0.1,0,0.2-0.1,0.3c-0.3,0-0.6,0-0.9,0c-0.3,0-0.5,0.2-0.5,0.5c-0.1,0.6-0.1,1.5-0.1,2.6c0,1.2,0,2.1-0.1,2.7
			c0,0.1,0.1,0.4,0.1,0.7c0,0.3,0,0.5,0,0.7c0.1,0.2,0.2,0.4,0.4,0.5c0.1,0,0.3,0,0.6,0C-2362.8-4.5-2362.6-4.5-2362.4-4.3z"/>
	</g>
	<g>
		<path d="M-2393.2,26.4c0,0.1-0.1,0.2-0.2,0.2c-0.2,0.1-0.3,0.1-0.3,0.1c-0.4,0-0.9,0-1.8,0c-0.8,0-1.4,0-1.8-0.1
			c-0.1-0.2-0.1-0.2-0.1-0.3c0.1-0.1,0.3-0.1,0.7-0.1c0.3,0,0.5-0.1,0.6-0.3c0.1-0.3,0.1-0.8,0.1-1.3c0-0.8,0-1.2,0-1.3
			c0-0.3-0.1-0.6-0.1-1c0-0.2,0-0.6,0-1.3c0-0.5,0-1,0-1.3c-0.1-0.1-0.1-0.1-0.2-0.1c-0.2,0.2-0.3,0.5-0.4,1c-0.1,0.5-0.2,0.8-0.4,1
			c0,0.3-0.3,0.9-0.7,1.9c-0.2,0.7-0.4,1.4-0.7,1.9c-0.1,0.2-0.1,0.5-0.2,0.7c-0.1,0.3-0.3,0.4-0.5,0.4c-0.3-0.4-0.5-1.1-0.8-2
			c-0.3-0.9-0.5-1.6-0.8-2c0,0-0.1-0.4-0.4-1.1c-0.2-0.5-0.3-0.8-0.4-1.1c-0.1-0.3-0.1-0.5-0.2-0.6c-0.1-0.2-0.2-0.3-0.4-0.4
			c0,3.2,0,5.1,0,5.6c0,0.2,0.1,0.4,0.3,0.6c0,0,0.2,0.2,0.5,0.5c0.1,0,0.3,0,0.4,0.1c0.1,0,0.2,0.1,0.3,0.2l-0.2,0.1
			c-0.9,0-1.9,0-3.1,0.1c-0.1,0-0.2-0.1-0.2-0.2c0-0.1,0-0.2-0.1-0.2c0,0,0.3-0.1,0.9-0.2c0.5-0.3,0.7-0.8,0.7-1.6
			c0-0.2,0-0.4,0-0.9c0-0.4,0-0.7,0-0.9c0.1-0.1,0.1-0.2,0.1-0.4c0-0.1,0-0.2-0.1-0.4c0-0.2-0.1-0.3-0.1-0.4c0-0.1,0-0.1,0.1-0.2
			v-2.4c-0.1-0.1-0.3-0.3-0.4-0.4c-0.2-0.2-0.3-0.2-0.5-0.2c-0.1,0-0.2,0-0.3,0.1c-0.1,0-0.2,0.1-0.2,0.1c-0.2,0-0.3-0.1-0.4-0.3
			c0-0.2,0.1-0.4,0.3-0.4c0.3,0.1,0.8,0.1,1.3,0.1c0.6,0,1.1,0,1.3,0c0.1,0.1,0.2,0.3,0.3,0.5c0,0.2,0.1,0.4,0.2,0.6
			c0.1,0.4,0.4,1.1,0.7,1.9c0.3,0.9,0.6,1.5,0.7,2c0.1,0.1,0.2,0.4,0.3,0.8c0.1,0.3,0.2,0.6,0.3,0.8c0,0.2,0,0.4,0.2,0.5
			c0.1,0,0.2-0.1,0.3-0.3c0.1-0.2,0.1-0.4,0.2-0.5c0-0.3,0.1-0.7,0.3-1.1c0.2-0.5,0.3-0.9,0.4-1.1c0.4-0.9,0.6-1.6,0.7-1.9
			c0.3-0.7,0.4-1.4,0.6-1.9c0.2-0.2,0.6-0.3,1-0.3c0.6,0,1,0,1.1,0c0,0,0.2,0,0.4,0c0.1,0,0.2,0,0.3,0.2c0,0,0,0.1,0,0.1
			c0,0.1,0,0.2-0.1,0.3c-0.3,0-0.6,0-0.9,0c-0.3,0-0.5,0.2-0.5,0.5c-0.1,0.6-0.1,1.5-0.1,2.6c0,1.2,0,2.1-0.1,2.7
			c0,0.1,0.1,0.4,0.1,0.7c0,0.3,0,0.5,0,0.7c0.1,0.2,0.2,0.4,0.4,0.5c0.1,0,0.3,0,0.6,0C-2393.5,26.3-2393.3,26.3-2393.2,26.4z"/>
	</g>
	<g>
		<path d="M-2331.7,26.6c-0.2,0.1-0.4,0.2-0.6,0.2c-0.1,0-0.2,0-0.4,0c-0.2,0-0.3,0-0.4,0c-0.1,0-0.2,0-0.3,0c-0.1,0-0.7,0-1.9-0.1
			c0,0-0.1-0.1,0-0.1c0-0.1,0-0.2,0-0.2c0.1,0,0.2-0.1,0.3-0.1c0,0,0.1,0,0.2,0c0.1,0,0.2,0,0.2,0c0.2,0,0.3-0.1,0.3-0.2
			c-0.5-0.7-1.2-1.7-2.2-3c-0.2,0-0.4,0.2-0.6,0.5c-0.3,0.4-0.4,0.6-0.5,0.7c0,0.1-0.2,0.4-0.5,0.8c-0.3,0.3-0.4,0.6-0.4,0.8
			c0,0.2,0.1,0.3,0.2,0.5c0,0,0.1,0.1,0.2,0.1c0,0,0.1,0,0.2,0c0.1,0,0.2,0,0.2,0c0.2,0,0.3,0.1,0.3,0.3l-0.2,0.1h-3.2
			c-0.1-0.1-0.1-0.2-0.1-0.3c0-0.1,0-0.1,0.1-0.2c0.6,0,1.1-0.3,1.6-0.7c0.3-0.3,0.7-0.7,1.2-1.4c0.5-0.7,0.9-1.2,1.2-1.4
			c-0.2-0.5-0.5-1-1-1.5c-0.4-0.5-0.8-0.9-1.2-1.4c-0.4-0.5-0.5-0.7-0.6-0.7c-0.2-0.2-0.5-0.4-0.7-0.4c-0.2,0.1-0.4,0.1-0.7-0.1
			c-0.1-0.1-0.2-0.3,0-0.5l0.1-0.1c0.5,0,1.2,0,1.9,0c1.2,0,1.8,0.1,1.8,0.1l0.1,0.1c0,0,0,0.1,0,0.1c0,0.2-0.1,0.3-0.4,0.4
			c-0.2,0-0.4-0.1-0.4-0.1c-0.2,0-0.3,0.1-0.4,0.2l0,0.2c0,0,0.3,0.4,0.9,1.2c0.4,0.5,0.7,0.9,0.8,1.3c0,0,0.2,0.1,0.4,0.1l1.5-2
			l0.1-0.5c-0.1-0.3-0.3-0.4-0.5-0.4c-0.1,0-0.2,0-0.3,0c-0.1,0-0.2,0-0.3,0c-0.3,0-0.4-0.2-0.4-0.5c0.2-0.1,0.4-0.2,0.7-0.2
			c0.1,0,0.3,0,0.5,0c0.2,0,0.4,0,0.4,0c0.1,0,0.2,0,0.3,0l0.2-0.1l1.8,0c0.1,0.1,0.2,0.2,0.2,0.3c0,0.1,0,0.1,0,0.2
			c-0.1,0.1-0.3,0.2-0.5,0.2c0,0-0.1,0-0.2,0c-0.1,0-0.1,0-0.2,0c-0.1,0-0.2,0-0.3,0c-0.3,0.2-0.6,0.5-0.9,0.8
			c-0.2,0.3-0.5,0.6-0.7,0.9c0,0.1-0.1,0.2-0.2,0.3c-0.2,0.1-0.2,0.2-0.3,0.3c0,0-0.1,0.2-0.4,0.5c-0.2,0.2-0.2,0.4-0.2,0.5
			c0,0.1,0,0.1,0,0.2c0.7,0.8,1.7,2.1,3,3.8c0.1,0,0.2,0.1,0.4,0.1c0.2,0.1,0.3,0.1,0.4,0.1c0,0,0.1,0,0.2,0
			C-2331.7,26.4-2331.7,26.5-2331.7,26.6z"/>
	</g>
	<g>
		<path d="M-2371.1,48.7c-0.1,0.2-0.3,0.3-0.7,0.3h-0.1c-0.4,0-0.6,0.1-0.7,0.4l-0.1,0.6l0,6.2c0,0.3,0.2,0.5,0.5,0.5
			c0,0,0.1,0,0.2,0c0.1,0,0.2,0,0.2,0c0.2,0,0.4,0.1,0.5,0.2c-0.1,0.2-0.2,0.4-0.5,0.4c-0.1,0-0.2,0-0.4-0.1c-0.2,0-0.3-0.1-0.4-0.1
			c0,0-0.1,0-0.1,0c-0.5,0-1.2,0.1-2.3,0.1c-0.1,0-0.2-0.1-0.2-0.1c-0.1,0-0.1-0.1-0.1-0.2c0.1-0.2,0.3-0.3,0.7-0.4
			c0.4,0,0.6-0.2,0.7-0.3c0-0.4,0-1.2,0-2.3c0-1,0-1.8,0-2.4c0-0.9-0.1-1.6-0.1-2.3c-0.1-0.2-0.2-0.3-0.5-0.3c0,0-0.1,0-0.2,0
			c-0.1,0-0.2,0-0.2,0c-0.3,0-0.4-0.1-0.4-0.4c0.1-0.1,0.2-0.2,0.4-0.2c0.1,0,0.2,0,0.3,0c0.2,0,0.3,0,0.3,0c0.2,0,0.5,0,0.9-0.1
			c0.4,0,0.7,0,1,0c0.4,0,0.7,0,1,0.1L-2371.1,48.7z"/>
		<path d="M-2360.5,49c-0.1,0.1-0.3,0.2-0.5,0.2c-0.3,0-0.4,0.1-0.5,0.3c-0.5,0.4-0.8,1-0.9,1.8c-0.1,0.1-0.2,0.2-0.2,0.4
			c0,0.2,0,0.3-0.1,0.3c-0.3,0.8-0.8,2-1.5,3.5c0,0.2-0.2,0.4-0.3,0.8c-0.1,0.3-0.2,0.5-0.3,0.7c0,0-0.1,0.1-0.1,0.3
			c0,0.1-0.1,0.2-0.2,0.2c-0.1,0-0.2,0-0.3-0.1c-0.1-0.1-0.2-0.2-0.2-0.3c-0.1-0.1-0.1-0.3-0.2-0.7c0-0.1-0.1-0.3-0.3-0.7
			c-0.1-0.3-0.2-0.5-0.2-0.7c-0.2-0.4-0.6-1.3-1.1-2.7c-0.3-0.4-0.5-1-0.7-1.8c-0.2-0.4-0.4-0.7-0.6-1.1c-0.3-0.4-0.6-0.6-1.1-0.5
			c-0.1,0-0.1-0.2-0.1-0.4c0.2-0.1,0.4-0.1,0.6-0.1c0.2,0,0.4,0,0.6,0.1c0.9-0.1,1.6-0.1,2.2,0l0.1,0.2c0,0.2-0.2,0.3-0.6,0.3
			c-0.4,0-0.6,0.1-0.6,0.3c0,0.1,0,0.2,0,0.3c0.1,0.2,0.2,0.4,0.4,0.8c0.1,0.4,0.3,0.7,0.4,0.8c0,0.1,0,0.2,0.1,0.4
			c0.1,0.2,0.2,0.3,0.2,0.4c0.1,0.3,0.4,0.9,0.7,1.7c0.3,0.7,0.5,1.3,0.7,1.7c0.1,0.1,0.3,0.2,0.4,0.2c0.2-0.2,0.3-0.4,0.3-0.6
			c0.2-0.4,0.5-1,0.8-1.8c0.3-0.9,0.6-1.5,0.7-1.8c0-0.2,0.1-0.4,0.3-0.7c0.2-0.3,0.3-0.5,0.3-0.7c0-0.1,0.1-0.2,0.1-0.3
			c0-0.3-0.2-0.6-0.5-0.6c0,0-0.1,0-0.3,0c-0.1,0-0.2,0-0.3,0c-0.1,0-0.2-0.1-0.2-0.1c0-0.2,0.1-0.4,0.2-0.4c0.2,0,0.3,0,0.5,0
			c0.2,0,0.5,0,0.9,0c0.4,0,0.7,0,0.8,0c0.3,0,0.5,0,0.7,0c0.1,0.1,0.2,0.2,0.2,0.3C-2360.5,48.9-2360.5,48.9-2360.5,49z"/>
	</g>
</g>
<g>
	<path fill="#010101" d="M-2169.7,30.1c0,31.4-35,56.8-77.9,56.8h-60.4c-19.5,5.8-36.4,15-42.2,19.7c-4.1,3.6-11.8,9.5-12.1,9.8
		c-1,0.8-2.2,1.2-3.4,1.2c-1.4,0-2.8-0.5-3.9-1.6c-1.5-1.4-3.7-3.2-6.1-5c-1.6-1.2-3.3-2.5-4.9-3.8c-5.4-4.8-22.4-14.3-42.4-20.2
		h-65.2c-43,0-77.9-25.5-77.9-56.8v-60h-5.6v60c0,34.4,37.4,62.4,83.5,62.4h64.4c18.9,5.7,34.7,14.5,39.7,19c1.7,1.3,3.4,2.7,5,4
		c2.3,1.7,4.4,3.4,5.6,4.6c2.1,2,4.9,3.1,7.8,3.1c2.5,0,4.9-0.8,6.9-2.4c1.9-1.5,8.5-6.6,12.1-9.8c5.2-4.2,21.2-12.9,39.4-18.4h59.5
		c46,0,83.5-28,83.5-62.4v-60.2h-5.6V30.1z"/>
	<path fill="#010101" d="M-2566-202.7c0-31.3,35-56.8,77.9-56.8h64.4c19.5-5.7,37.5-15.4,43.1-20.3c1.8-1.4,3.4-2.7,5-3.9
		c2.4-1.9,4.7-3.6,6.1-5c1.1-1,2.5-1.6,3.9-1.6c1.2,0,2.4,0.4,3.4,1.2c0.3,0.3,8,6.2,12.2,9.9c5.6,4.6,23.2,14.1,42.8,19.8h59.6
		c43,0,77.9,25.5,77.9,56.8v60.3h5.6v-60.3c0-34.4-37.5-62.4-83.5-62.4h-58.8c-19.2-5.7-35.6-14.8-39.9-18.4
		c-3.9-3.4-10.4-8.5-12.5-10.1c-2-1.5-4.4-2.3-6.8-2.3c-2.9,0-5.7,1.1-7.8,3.1c-1.3,1.3-3.6,3.1-5.7,4.7c-1.6,1.2-3.3,2.6-5.2,4.2
		c-4.9,4.4-21.9,13.5-40.2,18.9h-63.6c-46.1,0-83.5,28-83.5,62.4v60.3h5.6V-202.7z"/>
</g>
<g>
	<g>
		<text transform="matrix(1 0 0 1 -2549.2366 610.9834)"><tspan x="0" y="0" font-family="'BrandonGrotesque-Black'" font-size="60" letter-spacing="12">CREATIV</tspan><tspan x="333.8" y="0" font-family="'BrandonGrotesque-Black'" font-size="60" letter-spacing="-4">E</tspan></text>
	</g>
	<g>
		<path fill="none" d="M-2179.2,641c-2.2,8.1-2.7,16.5-3.3,24.7c-0.7,10.8-1.4,20.9-5.8,28.4c-4.4,7.7-13,13.4-22.1,19.5
			c-6.7,4.5-13.6,9.1-19.5,15c-5.9,5.9-10.5,12.8-15,19.5c-6,9-11.8,17.6-19.4,22c-7.5,4.3-17.7,5-28.5,5.8
			c-8.1,0.6-16.5,1.1-24.7,3.3c-7.8,2.1-15.2,5.7-22.3,9.2c-9.8,4.9-19.1,9.4-28.3,9.4c-9.2,0-18.4-4.6-28.3-9.4
			c-7.1-3.5-14.5-7.1-22.3-9.2c-8.1-2.2-16.5-2.8-24.7-3.3c-10.8-0.7-21-1.4-28.5-5.8c-7.7-4.4-13.4-13-19.4-22
			c-4.5-6.7-9.1-13.6-15-19.5c-5.9-5.9-12.8-10.5-19.5-15c-9-6-17.5-11.7-22-19.4c-4.3-7.5-5-17.7-5.8-28.5
			c-0.6-8.1-1.1-16.5-3.3-24.7c-0.9-3.2-2-6.4-3.3-9.4h-3.9c1.5,3.4,2.8,6.9,3.7,10.4c2.1,7.8,2.6,16,3.2,24
			c0.8,11.2,1.5,21.8,6.3,30c4.8,8.4,13.7,14.3,23.1,20.6c6.6,4.4,13.3,8.9,19,14.5c5.6,5.6,10.2,12.4,14.6,19
			c6.3,9.4,12.2,18.3,20.6,23.1c8.2,4.8,18.8,5.5,30,6.3c7.9,0.5,16.2,1.1,24,3.2c7.5,2,14.6,5.5,21.6,9c10.2,5,19.9,9.8,29.9,9.8
			c10,0,19.7-4.8,29.9-9.8c6.9-3.4,14.1-7,21.6-9c7.8-2.1,16-2.7,24-3.2c11.2-0.8,21.8-1.5,30-6.3c8.4-4.9,14.3-13.7,20.6-23.1
			c4.4-6.6,8.9-13.3,14.5-19c5.6-5.6,12.4-10.2,19-14.6c9.4-6.3,18.3-12.2,23.1-20.6c4.8-8.2,5.5-18.8,6.3-30c0.5-8,1.1-16.2,3.2-24
			c0.9-3.5,2.2-7,3.7-10.4h-3.9C-2177.2,634.7-2178.3,637.8-2179.2,641z"/>
		<path fill="none" d="M-2178.9,515c-0.8-11.2-1.5-21.8-6.3-30c-4.9-8.4-13.7-14.3-23.1-20.6c-6.6-4.4-13.3-8.9-19-14.5
			c-5.6-5.6-10.2-12.4-14.6-19c-6.3-9.4-12.2-18.3-20.6-23.1c-8.2-4.8-18.8-5.5-30-6.3c-7.9-0.5-16.2-1.1-24-3.2
			c-7.4-2-14.6-5.5-21.6-9c-10.2-5-19.9-9.8-29.9-9.8c-10,0-19.7,4.8-29.9,9.8c-7,3.4-14.1,7-21.6,9c-7.8,2.1-16,2.6-24,3.2
			c-11.2,0.8-21.8,1.5-30,6.3c-8.4,4.9-14.3,13.7-20.6,23.1c-4.4,6.6-8.9,13.4-14.5,19c-5.6,5.6-12.4,10.2-19,14.6
			c-9.4,6.3-18.3,12.2-23.1,20.6c-4.8,8.2-5.5,18.8-6.3,30c-0.5,8-1.1,16.2-3.2,24c-0.5,1.9-1.1,3.9-1.8,5.8h3.8
			c0.6-1.6,1.1-3.2,1.5-4.8c2.2-8.1,2.8-16.5,3.3-24.7c0.7-10.8,1.4-21,5.8-28.5c4.4-7.7,13-13.4,22-19.4c6.7-4.5,13.6-9.1,19.5-15
			c5.9-5.9,10.5-12.8,15-19.5c6-9,11.7-17.6,19.4-22c7.5-4.3,17.7-5,28.5-5.8c8.1-0.6,16.5-1.1,24.7-3.3c7.8-2.1,15.2-5.7,22.3-9.2
			c9.8-4.9,19.1-9.4,28.3-9.4c9.2,0,18.5,4.6,28.3,9.5c7.1,3.5,14.5,7.1,22.3,9.2c8.1,2.2,16.5,2.8,24.7,3.3
			c10.8,0.7,21,1.4,28.5,5.8c7.7,4.4,13.4,13,19.4,22c4.5,6.7,9.1,13.7,15,19.5c5.9,5.9,12.8,10.5,19.5,15c9,6,17.6,11.7,22,19.4
			c4.3,7.5,5,17.7,5.8,28.5c0.6,8.1,1.1,16.5,3.3,24.6c0.4,1.6,1,3.2,1.5,4.8h3.8c-0.7-1.9-1.3-3.8-1.8-5.8
			C-2177.7,531.1-2178.3,522.9-2178.9,515z"/>
		<path fill="#212121" d="M-2179.2,539.9c-2.2-8.1-2.7-16.5-3.3-24.6c-0.7-10.8-1.4-21-5.8-28.5c-4.4-7.7-13-13.4-22-19.4
			c-6.7-4.5-13.7-9.2-19.5-15c-5.9-5.9-10.5-12.8-15-19.5c-6-9-11.8-17.6-19.4-22c-7.5-4.3-17.7-5-28.5-5.8
			c-8.1-0.6-16.5-1.1-24.7-3.3c-7.8-2.1-15.2-5.7-22.3-9.2c-9.9-4.9-19.2-9.5-28.3-9.5c-9.2,0-18.5,4.6-28.3,9.4
			c-7.1,3.5-14.5,7.1-22.3,9.2c-8.1,2.2-16.5,2.8-24.7,3.3c-10.8,0.7-21,1.4-28.5,5.8c-7.7,4.4-13.4,13-19.4,22
			c-4.5,6.7-9.1,13.7-15,19.5c-5.9,5.9-12.8,10.5-19.5,15c-9.1,6.1-17.6,11.8-22,19.4c-4.3,7.5-5,17.7-5.8,28.5
			c-0.6,8.1-1.1,16.5-3.3,24.7c-0.4,1.6-0.9,3.2-1.5,4.8h380.5C-2178.2,543.1-2178.7,541.5-2179.2,539.9z"/>
		<path fill="#212121" d="M-2556.6,641c2.2,8.1,2.8,16.5,3.3,24.7c0.7,10.8,1.4,21,5.8,28.5c4.4,7.7,12.9,13.4,22,19.4
			c6.7,4.5,13.7,9.2,19.5,15c5.9,5.9,10.5,12.8,15,19.5c6,9,11.7,17.6,19.4,22c7.5,4.3,17.7,5,28.5,5.8c8.1,0.6,16.5,1.1,24.7,3.3
			c7.8,2.1,15.2,5.7,22.3,9.2c9.8,4.9,19.1,9.4,28.3,9.4c9.2,0,18.5-4.6,28.3-9.4c7.1-3.5,14.5-7.2,22.3-9.2
			c8.1-2.2,16.5-2.8,24.7-3.3c10.8-0.7,21-1.4,28.5-5.8c7.7-4.4,13.4-13,19.4-22c4.5-6.7,9.1-13.7,15-19.5
			c5.8-5.8,12.8-10.5,19.5-15c9.1-6.1,17.6-11.8,22.1-19.5c4.3-7.5,5-17.7,5.8-28.4c0.6-8.2,1.1-16.6,3.3-24.7
			c0.9-3.2,2-6.4,3.3-9.4h-384C-2558.6,634.7-2557.5,637.8-2556.6,641z"/>
		<path fill="#212121" d="M-2560.1,538.9c2.1-7.8,2.6-16,3.2-24c0.8-11.2,1.5-21.8,6.3-30c4.9-8.4,13.7-14.3,23.1-20.6
			c6.6-4.4,13.4-8.9,19-14.6c5.6-5.6,10.2-12.4,14.5-19c6.3-9.4,12.2-18.3,20.6-23.1c8.2-4.8,18.8-5.5,30-6.3c8-0.5,16.2-1.1,24-3.2
			c7.5-2,14.7-5.5,21.6-9c10.2-5.1,19.9-9.8,29.9-9.8c10,0,19.7,4.8,29.9,9.8c7,3.4,14.2,7,21.6,9c7.8,2.1,16,2.7,24,3.2
			c11.2,0.8,21.8,1.5,30,6.3c8.4,4.9,14.3,13.7,20.6,23.1c4.4,6.6,8.9,13.4,14.6,19c5.6,5.6,12.4,10.2,19,14.5
			c9.4,6.3,18.3,12.2,23.1,20.6c4.8,8.2,5.5,18.8,6.3,30c0.5,8,1.1,16.2,3.2,24c0.5,1.9,1.1,3.9,1.8,5.8h6.7c-1-2.4-1.8-4.9-2.5-7.4
			c-4.8-18-0.9-39.7-10.1-55.5c-9.3-16-30.1-23.4-43.1-36.4c-13-13-20.4-33.8-36.4-43.1c-15.8-9.1-37.5-5.2-55.5-10.1
			c-17.4-4.7-34.2-19-53.1-19c-18.9,0-35.7,14.3-53.1,19c-18,4.8-39.7,0.9-55.5,10.1c-16,9.3-23.4,30.1-36.4,43.1
			c-13,13-33.8,20.4-43.1,36.4c-9.1,15.8-5.3,37.5-10.1,55.5c-0.7,2.5-1.5,4.9-2.5,7.4h6.7C-2561.2,542.8-2560.6,540.9-2560.1,538.9
			z"/>
		<path fill="#212121" d="M-2175.7,642c-2.1,7.8-2.7,16-3.2,24c-0.8,11.2-1.5,21.8-6.3,30c-4.9,8.4-13.7,14.3-23.1,20.6
			c-6.6,4.4-13.4,8.9-19,14.6c-5.6,5.6-10.2,12.4-14.5,19c-6.3,9.4-12.2,18.3-20.6,23.1c-8.2,4.8-18.8,5.5-30,6.3
			c-7.9,0.5-16.2,1.1-24,3.2c-7.5,2-14.6,5.5-21.6,9c-10.3,5.1-19.9,9.8-29.9,9.8c-10,0-19.7-4.8-29.9-9.8c-7-3.5-14.2-7-21.6-9
			c-7.8-2.1-16-2.7-24-3.2c-11.2-0.8-21.8-1.5-30-6.3c-8.4-4.9-14.3-13.7-20.6-23.1c-4.4-6.6-8.9-13.4-14.6-19
			c-5.6-5.6-12.4-10.2-19-14.5c-9.4-6.3-18.3-12.2-23.1-20.6c-4.8-8.2-5.5-18.8-6.3-30c-0.5-8-1.1-16.2-3.2-24
			c-0.9-3.5-2.2-7-3.7-10.4h-6.8c1.8,4,3.4,8,4.5,12c4.8,18,0.9,39.7,10.1,55.5c9.3,16,30.1,23.4,43.1,36.4
			c13,13,20.4,33.8,36.4,43.1c15.8,9.1,37.5,5.2,55.5,10.1c17.4,4.7,34.2,19,53.1,19c18.9,0,35.7-14.3,53.1-19
			c18-4.8,39.7-0.9,55.5-10.1c16-9.3,23.4-30.1,36.4-43.1c13-13,33.8-20.4,43.1-36.4c9.1-15.8,5.3-37.5,10.1-55.5
			c1.1-4,2.7-8,4.5-12h-6.8C-2173.4,635-2174.7,638.5-2175.7,642z"/>
	</g>
	<g>
		
			<text transform="matrix(1 0 0 1 -2414.6345 527.5615)" fill="#FFFFFF" font-family="'BrandonGrotesque-Bold'" font-size="34.7589" letter-spacing="10">THE</text>
	</g>
	<g>
		<text transform="matrix(1 0 0 1 -2462.397 672.9707)"><tspan x="0" y="0" fill="#FFFFFF" font-family="'BrandonGrotesque-Bold'" font-size="34.7589" letter-spacing="10">AGENC</tspan><tspan x="171" y="0" fill="#FFFFFF" font-family="'BrandonGrotesque-Bold'" font-size="34.7589">Y</tspan></text>
	</g>
	<g>
		<path id="SVGID_x5F_1_x5F_" fill="none" d="M-2537.3,613.2c0-99,75.9-179.3,169.4-179.3c93.6,0,169.4,80.3,169.4,179.3"/>
		<text>		<textPath  xlink:href="#SVGID_x5F_1_x5F_" startOffset="19.0665%">
<tspan  fill="#FFFFFF" font-family="'BrandonGrotesque-Bold'" font-size="28.1241" letter-spacing="300">mediterranean</tspan>		</textPath>
</text>
	</g>
	<g>
		<path id="SVGID_x5F_2_x5F_" fill="none" d="M-2537.3,592c0,99,75.9,179.3,169.4,179.3c93.6,0,169.4-80.3,169.4-179.3"/>
		<text>		<textPath  xlink:href="#SVGID_x5F_2_x5F_" startOffset="15.7225%">
<tspan  fill="#FFFFFF" font-family="'BrandonGrotesque-Bold'" font-size="28.1241" letter-spacing="300">GRAPHIC DESIGN</tspan>		</textPath>
</text>
	</g>
	<path fill="#FFFFFF" d="M-2375.8,476.3c-0.2,0.7-0.6,1.3-1,1.9c-0.2,0.3-0.5,0.5-0.8,0.8c-0.3,0.2-0.7,0.4-1,0.5
		c-0.1,0-0.2,0-0.3,0.1c-0.1,0-0.1,0-0.2,0c0,0-0.1,0-0.1,0c-0.2,0-0.4,0-0.6-0.1c-0.4-0.1-0.8-0.3-1.1-0.5
		c-0.3-0.2-0.6-0.5-0.9-0.8c-0.3-0.3-0.5-0.6-0.7-0.9c-0.1-0.2-0.2-0.3-0.3-0.5l-0.1-0.2l-0.1-0.2c-0.2-0.3-0.3-0.7-0.5-1
		c-0.3-0.7-0.5-1.4-0.7-2.1c-0.3-1.4-0.5-2.8-0.5-4.3c0-0.7,0-1.4,0.1-2.1c0.1-0.7,0.2-1.4,0.4-2.1c0.2-0.7,0.4-1.4,0.7-2.1
		c0.1-0.3,0.3-0.7,0.5-1c0.1-0.2,0.2-0.3,0.3-0.5c0.1-0.2,0.2-0.3,0.3-0.5c0.2-0.3,0.4-0.6,0.7-0.9c0.3-0.3,0.5-0.5,0.9-0.8
		c0.3-0.2,0.7-0.4,1.1-0.5c0.2-0.1,0.4-0.1,0.6-0.1c0.1,0,0.1,0,0.2,0h0l0,0l0,0l0.1,0c0.1,0,0.2,0,0.3,0.1c0.4,0.1,0.7,0.3,1.1,0.5
		c0.3,0.2,0.6,0.5,0.8,0.8c0.5,0.6,0.8,1.2,1,1.9c-0.2-0.3-0.4-0.6-0.6-0.8c-0.2-0.3-0.5-0.5-0.7-0.7c-0.5-0.4-1.1-0.8-1.7-0.8
		c-0.6-0.1-1.1,0.2-1.6,0.6c-0.5,0.4-0.8,0.9-1.2,1.5c-0.6,1.1-1,2.4-1.3,3.7c-0.1,0.7-0.2,1.3-0.3,2c-0.1,0.7-0.1,1.3-0.1,2
		c0,1.3,0.1,2.7,0.4,4c0.3,1.3,0.7,2.6,1.3,3.7c0.3,0.6,0.7,1.1,1.2,1.5c0.2,0.2,0.5,0.4,0.7,0.5c0.1,0.1,0.3,0.1,0.4,0.1
		c0,0,0.1,0,0.1,0c0,0,0.1,0,0.1,0c0.1,0,0.1,0,0.2,0c0.6,0,1.2-0.4,1.7-0.8c0.3-0.2,0.5-0.5,0.7-0.7
		C-2376.2,476.9-2376,476.6-2375.8,476.3z M-2373.7,463.9c0.6,0,1.3,0,1.9-0.1c0.3,0,0.6,0,1,0c-0.2-0.7-0.3-1.4-0.6-2.1
		c-0.3-0.7-0.6-1.4-0.9-2.1c-1.1,0-2.1,0-3.2,0C-2374.7,460.8-2374.1,462.2-2373.7,463.9z M-2353.2,460.5c0.8,1,1.4,2.4,1.8,4.2
		c-0.7-0.1-1.5-0.1-2.2-0.2c-0.1-0.7-0.3-1.3-0.5-2c-0.3-0.8-0.6-1.5-1-2.2C-2354.6,460.4-2353.9,460.4-2353.2,460.5z
		 M-2369.8,473.6c0.1-0.3,0.1-0.6,0.2-0.9c0.2-1.2,0.3-2.4,0.3-3.5c1.9,0,3.8,0,5.7-0.1l8.1-0.1l1.5,0c0,1,0,2.1-0.2,3.1
		c0,0.4-0.1,0.8-0.2,1.1c-0.4,0-0.8,0-1.2,0.1c-2.7,0.1-5.4,0.2-8.1,0.3C-2365.7,473.6-2367.8,473.6-2369.8,473.6z M-2363.7,459.7
		c2.6,0.1,5.3,0.3,7.9,0.5c0.4,0.8,0.8,1.6,1,2.4c0.2,0.6,0.3,1.1,0.4,1.7c-0.4,0-0.7-0.1-1.1-0.1c-2.7-0.2-5.4-0.3-8.1-0.4
		c-2.1-0.1-4.2-0.1-6.3-0.1c0-0.2-0.1-0.3-0.1-0.5c-0.1-0.3-0.2-0.6-0.3-0.9c-0.1-0.3-0.2-0.6-0.3-0.9c-0.3-0.6-0.6-1.3-0.9-1.8
		C-2369,459.6-2366.3,459.6-2363.7,459.7z M-2351.4,473.1c-0.7,0.1-1.5,0.1-2.2,0.1c0.3-1.4,0.4-2.8,0.4-4.2l2.2,0
		C-2351.1,470.5-2351.2,471.9-2351.4,473.1z M-2355.5,464.6c0.4,0,0.8,0,1.2,0.1c0.1,0.4,0.1,0.8,0.2,1.1c0.1,1,0.2,2,0.2,3.1
		l-1.5,0l-8.1-0.1c-1.9,0-3.8,0-5.7-0.1c0-1.2-0.1-2.4-0.3-3.5c-0.1-0.3-0.1-0.6-0.2-0.9c2.1,0,4.1,0,6.2,0
		C-2360.9,464.3-2358.2,464.4-2355.5,464.6z M-2351.1,468.9l-2.2,0c0-1.4-0.1-2.8-0.4-4.2c0.7,0,1.5,0.1,2.2,0.1
		C-2351.2,466-2351.1,467.4-2351.1,468.9z M-2371.8,473.6c-0.6,0-1.2,0-1.8,0c0.3-1.3,0.5-2.8,0.5-4.4c0.4,0,0.9,0,1.4,0
		c0.5,0,1,0,1.4,0c0,1.1-0.1,2.3-0.2,3.4c0,0.3-0.1,0.7-0.2,1C-2371.1,473.6-2371.4,473.6-2371.8,473.6z M-2371.8,464.3
		c0.4,0,0.7,0,1.1,0c0.3,1.4,0.4,2.9,0.4,4.4c-0.5,0-1,0-1.4,0c-0.5,0-0.9,0-1.4,0c0-1.6-0.2-3.1-0.5-4.4
		C-2373,464.3-2372.4,464.3-2371.8,464.3z M-2371.6,478.3c0.4-0.6,0.7-1.2,0.9-1.8c0.3-0.8,0.6-1.5,0.7-2.3c2.1,0,4.2,0,6.3-0.1
		c2.7-0.1,5.4-0.2,8.1-0.4c0.4,0,0.7-0.1,1.1-0.1c-0.1,0.6-0.2,1.2-0.4,1.7c-0.1,0.5-0.3,1-0.5,1.5c-0.1,0.3-0.3,0.7-0.5,1
		c-2.6,0.3-5.3,0.4-7.9,0.5C-2366.3,478.3-2369,478.3-2371.6,478.3z M-2379.1,457.5c1.2-0.3,2.5-0.5,3.7-0.6
		c0.3,0.1,0.6,0.2,0.9,0.4c0.5,0.3,1,0.7,1.4,1.2c0.2,0.2,0.3,0.4,0.5,0.7c-1.1,0-2.1,0.1-3.2,0.2
		C-2376.7,458.2-2377.8,457.6-2379.1,457.5z M-2358,479.9c-5,1.2-11,1.7-16.8,1.1c0.1,0,0.3-0.1,0.4-0.2c0.6-0.3,1.1-0.7,1.6-1.2
		c0.3-0.3,0.5-0.6,0.8-1c0,0,0.1,0,0.1,0c2.7,0.1,5.5,0,8.2-0.2c2.6-0.1,5.1-0.4,7.7-0.6c0,0-0.1,0.1-0.1,0.1
		C-2356.5,478.8-2357.2,479.4-2358,479.9z M-2374.5,480.6c-0.3,0.2-0.6,0.3-0.9,0.4c-1.3-0.1-2.5-0.3-3.7-0.6
		c1.2-0.1,2.3-0.7,3.3-1.8c1.1,0.1,2.1,0.1,3.2,0.2c-0.2,0.2-0.3,0.4-0.5,0.7C-2373.5,479.8-2374,480.3-2374.5,480.6z
		 M-2353.4,477.6c-0.8,0.9-1.7,1.5-2.7,1.8c-0.4,0.1-0.9,0.2-1.3,0.3c0.6-0.4,1.2-0.9,1.6-1.4c0.1-0.1,0.2-0.3,0.3-0.4
		C-2354.7,477.8-2354.1,477.7-2353.4,477.6z M-2372.3,478.3c-1.1,0-2.1,0-3.2,0c0.8-1.1,1.4-2.5,1.9-4.2c0.6,0,1.3,0,1.9,0.1
		c0.3,0,0.6,0,1,0c-0.2,0.7-0.3,1.4-0.6,2.1C-2371.7,476.9-2372,477.6-2372.3,478.3z M-2374.3,457c-0.1-0.1-0.3-0.1-0.4-0.2
		c5.8-0.6,11.8,0,16.8,1.1c0.8,0.5,1.4,1.1,1.9,1.8c0,0,0.1,0.1,0.1,0.1c-2.6-0.3-5.1-0.5-7.7-0.6c-2.7-0.2-5.5-0.2-8.2-0.2
		c0,0,0,0-0.1,0c-0.2-0.3-0.5-0.7-0.8-1C-2373.2,457.7-2373.7,457.3-2374.3,457z M-2353.2,477.4c-0.7,0.1-1.3,0.1-2,0.2
		c0.4-0.7,0.8-1.4,1-2.2c0.2-0.7,0.4-1.3,0.5-2c0.7-0.1,1.5-0.1,2.2-0.2C-2351.8,475-2352.5,476.4-2353.2,477.4z M-2357.4,458.1
		c0.4,0.1,0.9,0.2,1.3,0.3c1,0.3,1.9,0.9,2.7,1.8c-0.7-0.1-1.3-0.2-2-0.3c-0.1-0.2-0.2-0.3-0.3-0.4
		C-2356.2,459-2356.7,458.5-2357.4,458.1z M-2379.1,461c-0.5,0-1,0.6-1,1.3c0,0.7,0.4,1.3,1,1.3c0.5,0,1-0.6,1-1.3
		C-2378.1,461.5-2378.5,461-2379.1,461z"/>
	<text transform="matrix(1 0 0 1 -2422.7302 714.4424)"><tspan x="0" y="0" fill="#FFFFFF" font-family="'BrandonGrotesque-Bold'" font-size="20.8554" letter-spacing="9">-2014</tspan><tspan x="98.4" y="0" fill="#FFFFFF" font-family="'BrandonGrotesque-Bold'" font-size="20.8554" letter-spacing="-1">-</tspan></text>
</g>
<g>
	<path d="M-1542.4,711c-3.5-17.1-18.7-35.7-31-46c-4.4-3.7-13.5-6.7-16.5-11.5c-8.5-13.7-15.6-25.3-23.3-38.3
		c-3.5-6.8-7.5-14-11.9-21.5c11.2-19.7,22.9-42,34.2-62.2c8.7-15.5,16.3-32.8,31.5-33.1c-0.1-0.1-0.2-0.1-0.2-0.2c0,0.1,0,0.1,0,0.2
		c0-0.1,0-0.2-0.1-0.3c0,0,0.1,0,0.1,0.1c1.7-7.5,1-22.9,3.8-32.7c-8.6,5.9-15.9,16.6-25.8,17.9c5.6,22.4-16.6,48.1-28.6,72.7
		c8.9-9.7,21.2-37.2,31.4-52.6c-11.1,27-29.2,56.9-41.7,77.5c0.8-9.3,8.1-16.1,10.6-23.7c-5.6,8.2-10.6,16.6-15.4,25.1
		c-0.3-19.7-1.1-40.7-1.3-60.3c-0.2-17.8-2.3-36.6,10.7-44.4c-0.1,0-0.2,0-0.3,0c0,0.1,0,0.1,0.1,0.2c-0.1-0.1-0.1-0.1-0.2-0.2
		c0,0,0.1,0,0.1,0c-2.3-7.3-10.6-20.3-13.1-30.2c-4.5,9.4-5.5,22.4-13.4,28.4c16.1,16.6,9.6,49.9,11.6,77.3
		c2.9-12.9-0.2-42.8,0.9-61.3c3.9,28.9,3.2,63.9,2.7,88c-4-8.5-1-18-2.7-25.8c-0.7,9.9-0.9,19.7-0.8,29.4
		c-10.1-16.9-21.3-34.7-31.3-51.6c-9-15.3-20.3-30.5-13-43.8c-0.1,0-0.2,0.1-0.3,0.1c0,0,0.1,0.1,0.1,0.1c-0.1,0-0.2-0.1-0.3-0.1
		c0,0,0.1,0,0.1,0c-5.6-5.2-19.3-12.3-26.4-19.6c0.8,10.4,6.4,22.1,2.6,31.3c22.2,6.3,33.3,38.4,48.7,61.1
		c-3.9-12.6-21.6-37-29.9-53.5c17.9,23.1,34.7,53.7,46.3,74.8c-7.7-5.4-9.8-15.1-15.2-21c5.4,11.2,11.5,21.8,17.9,32.3
		c-5.7,10.7-11.3,21.5-17.1,32.5c0.1-0.2,0.3-0.4,0.4-0.5c-0.8,1.5-1.6,2.9-2.5,4.4c-4.4,7.7-8.1,18.2-12.8,23.4
		c-3.1,3.5-10.6,5.3-14.8,8.7c-16.1,12.9-25.3,31.9-30.2,51c4.5-3.3,9.6-4.4,14.4-6.7c-0.2,2.3-4.6,8.7-6.3,12.2
		c1.9,0.5,1,1.6,2.5,2.2c3.5-0.1,5-7.6,7.6-10.6c3.2,2.2,1.5,12.3,4.4,14.6c13-11.6,21.6-34,24.3-49.9c1-5.7-0.9-15,1.8-20
		c7.6-14.2,14.1-26.2,21.5-39.4c2.5-4,5.1-8.2,7.7-12.6c0.4,9.9,0.9,20,1.2,30.2c0-0.2,0.1-0.4,0.1-0.7c0,1.7,0,3.4,0,5
		c0,8.9,2.1,19.8,0.7,26.7c-0.9,4.6-6.5,9.8-8.5,15c-7.5,19.3-6,40.3-0.7,59.2c2.2-5.1,6.1-8.7,9.1-13c1,2.1,0.3,9.8,0.6,13.7
		c1.8-0.5,1.7,0.9,3.3,0.7c2.9-1.8,0.5-9,1.3-13c3.9,0.3,7.5,9.9,11.1,10.4c5.5-16.6,1.7-40.3-3.9-55.3c-2-5.4-8.3-12.6-8.5-18.2
		c-0.5-16.1-0.8-29.7-1-44.9c0.2-4.7,0.4-9.7,0.4-14.8c5.3,8.4,10.7,16.9,16.1,25.5c-0.1-0.2-0.2-0.4-0.3-0.6
		c0.9,1.4,1.7,2.9,2.6,4.3c4.4,7.7,11.7,16.1,13.9,22.8c1.5,4.5-0.7,11.8,0.1,17.2c3.2,20.4,14.9,37.9,29,51.6
		c-0.6-5.6,1-10.6,1.4-15.8c1.9,1.4,5.2,8.3,7.4,11.5c1.3-1.4,1.9,0,3.2-1.1c1.6-3.1-4.1-8.1-5.4-11.9
		C-1553.7,705.8-1545.8,712.4-1542.4,711z M-1579.4,499.1c0.9-0.3,6.5,1,4.2,3.4C-1576.6,503.9-1580.7,500.6-1579.4,499.1z
		 M-1627.6,489.3c-0.5,1.9-5.8,1.1-5.3-0.9C-1632.3,487.7-1626.8,486-1627.6,489.3z M-1684.7,505.9c0.2-1,4.2-5.1,5.1-1.9
		C-1679.1,505.8-1684,507.8-1684.7,505.9z M-1667.7,659.5c-2.4,2.8-5.5,3-8.4,4.2C-1673.9,659.9-1670.6,660.5-1667.7,659.5z
		 M-1669.7,662.9c-3.9,3.8-10.6,6.5-14.1,6.1C-1679.3,666-1674.4,664.7-1669.7,662.9z M-1671.7,667.7c-5.5,2.7-10.9,5.7-16.8,6.9
		C-1683.6,670.7-1676.1,667.4-1671.7,667.7z M-1674.5,671.3c-5.1,3.1-10.3,5.4-15.9,6.6C-1685.6,673.9-1679.9,673.3-1674.5,671.3z
		 M-1676.3,675.6c-6,2-11.5,5.6-17.7,7.1C-1688.8,678.5-1681.1,674.7-1676.3,675.6z M-1677.9,678.4c-5.5,3.8-13.4,8.2-18.5,7.3
		C-1690.3,683-1684.6,678.9-1677.9,678.4z M-1680.7,682c-3.5,4.8-11.8,6.8-17.7,8.5C-1693.1,685.5-1686.7,684.7-1680.7,682z
		 M-1683.1,687.4c-5.9,2.5-11.4,6.1-17.7,7.1C-1695.5,690.8-1687.9,686.5-1683.1,687.4z M-1684.7,690.2c-5.2,4.7-11.2,7-17.4,8
		C-1696.8,693.8-1690.9,691.3-1684.7,690.2z M-1687.3,694.7c-4.9,4.8-10.6,6.6-16.5,7.7C-1698.8,698.1-1693.1,696.3-1687.3,694.7z
		 M-1705.4,709.1c3.6-2.1,7.2-3.9,11.1-4.9C-1697.8,706.7-1701.5,708.1-1705.4,709.1z M-1705.2,706.2c4.7-3.7,9.9-5.7,15.3-6.9
		C-1694.6,703.3-1699.8,705.1-1705.2,706.2z M-1696.9,719.3c-0.6-0.3-1.1-0.7-1.7-1c2.4-3,2.5-6.3,4.6-7.9
		C-1690.9,712.2-1696,716.3-1696.9,719.3z M-1684.3,718.3c-0.2-3.9-2.7-9.8-1-12.6C-1685.7,709.7-1683.3,715.6-1684.3,718.3z
		 M-1682.3,718.7c0.6-6.2-4.3-13.5-1.2-18.7C-1683.8,706.1-1679.3,713.4-1682.3,718.7z M-1680,714.7c0-5.9-3.7-13.3-1.6-18.2
		C-1682.2,702.3-1677,711.5-1680,714.7z M-1677.8,712.2c0-6.4-4.5-14.1-1.5-19.6C-1679.8,699.1-1675,706.7-1677.8,712.2z
		 M-1675.8,707.4c-0.2-6.1-3.9-13.9-1.8-19.1C-1677.9,694.6-1673.1,702.1-1675.8,707.4z M-1673.5,703.5c-0.8-6.3-2.9-12.3-2.7-18.8
		C-1674.7,690.4-1672.3,698.5-1673.5,703.5z M-1671.8,699.2c-0.1-5.9-4.1-13.2-1.6-18.2C-1673.4,686.3-1669.2,696.7-1671.8,699.2z
		 M-1670.1,694.9c-0.3-6-2.5-11.4-1.9-17.6C-1670.1,682.2-1667,691.8-1670.1,694.9z M-1667.7,689.5c-0.4-5.3-2.2-10.2-2.3-15.6
		C-1669.1,678.8-1666.2,685.6-1667.7,689.5z M-1667.8,676.7c1.3-2-1.8-5.2,0.3-5.8C-1668,672.5-1665.3,677.6-1667.8,676.7z
		 M-1664.8,679.2c0.1-3.4-2.7-8.5-0.5-10.8C-1665.9,671.9-1663.3,677-1664.8,679.2z M-1668.5,668.8c-8.2,14.1-15.6,27.1-21.2,38.1
		c-0.6-0.3-1.1-0.7-1.7-1c8.9-16.9,21.7-40.4,28.1-49.9C-1661.9,660.4-1666.2,664.7-1668.5,668.8z M-1629.2,671.4
		c-0.7,3.6-3.3,5.4-5.2,7.8C-1634.4,674.9-1631.2,673.8-1629.2,671.4z M-1629.2,675.3c-1.5,5.2-5.9,11-9.1,12.4
		C-1636,682.9-1632.5,679.3-1629.2,675.3z M-1637.1,733.3c2-3.6,4.3-7,7.2-9.8C-1631.7,727.4-1634.2,730.5-1637.1,733.3z
		 M-1638.4,730.7c2.2-5.6,5.8-9.9,9.8-13.7C-1630.6,722.8-1634.2,727-1638.4,730.7z M-1639,726.8c2.2-6.3,6.2-10.7,10.4-15
		C-1630.4,718.4-1634.5,722.8-1639,726.8z M-1639.7,722.2c2.4-6.5,6.2-11.6,11.1-15.6C-1630.7,713.3-1634.7,718.2-1639.7,722.2z
		 M-1640.3,718.3c2.6-5.8,7.1-13.3,11.7-15C-1632.4,708.4-1635.4,714.3-1640.3,718.3z M-1640.3,713.7c2.1-7,7.3-10.9,11.1-16.3
		C-1629.9,703.3-1636.1,709.2-1640.3,713.7z M-1641,708.5c3.9-5.4,6.8-11.8,12.4-15.6C-1631.5,698.9-1636.1,706.6-1641,708.5z
		 M-1640.3,704.6c2.3-6.1,7.1-13.3,11.7-15C-1632.8,694.4-1635.7,700.3-1640.3,704.6z M-1639.7,698.8c2.1-5.9,6.8-9.3,10.4-13.7
		C-1632.1,690.3-1635.4,695-1639.7,698.8z M-1639.7,694.9c2.3-5.8,7.2-12.3,11.1-14.3C-1631.9,685.6-1635.1,690.9-1639.7,694.9z
		 M-1621.4,720.2c1.7,3.7,6.8,7.6,7.2,10.4C-1616.4,727.3-1621.4,723.5-1621.4,720.2z M-1622.7,714.4c2.8,5.4,10.4,9.6,10.4,15.6
		C-1614.8,724.3-1622.7,720.5-1622.7,714.4z M-1623.4,701.4c2.9,5.6,10.8,9.6,11.1,15.6C-1615.5,711.8-1622.6,706.9-1623.4,701.4z
		 M-1612.3,725.4c-2.9-5.1-9.9-9.7-10.4-15C-1620.3,715.8-1611.3,721.1-1612.3,725.4z M-1622.7,705.9c2.8,5.9,10.8,10.1,11.1,16.3
		C-1614.8,716.7-1622.5,712.3-1622.7,705.9z M-1622.7,677.9c1.3,3.3,6.1,6.5,5.9,9.1C-1618.4,684.1-1623.4,681-1622.7,677.9z
		 M-1623.4,681.2c0.4,1.7,5.3,4.7,2.6,5.2C-1620.6,684.1-1624.9,682.8-1623.4,681.2z M-1614.2,697.5c-3-4.4-7-7.8-9.8-12.4
		C-1620.8,688.8-1614.8,693.3-1614.2,697.5z M-1613.6,703.3c-3.2-5-7.9-8.6-10.4-14.3C-1619.9,692.3-1612.5,699.1-1613.6,703.3z
		 M-1612.9,707.9c-3-5-10.2-9.4-10.4-15C-1620.7,697.6-1611.9,704.4-1612.9,707.9z M-1612.3,712.4c-3.9-5-8.6-9.2-11.7-15
		C-1619.8,701.7-1613.7,707.6-1612.3,712.4z M-1626.6,597c0,0.8,0,1.6,0,2.4c-0.3-0.6-0.6-1.1-0.9-1.7c0.3-0.4,0.5-0.9,0.8-1.3
		C-1626.6,596.6-1626.6,596.8-1626.6,597z M-1630.9,589.9c0,0.1,0,0.1,0,0.2c0-0.1-0.1-0.2-0.1-0.2
		C-1631,589.9-1631,589.9-1630.9,589.9z M-1628.6,592c0.5,0.6,1,1.1,1.5,1.8c-0.3,0.8-0.7,1.6-1.1,2.4c-0.3-0.7-0.7-1.4-1-2.1
		c0-0.5,0.1-1,0.1-1.6C-1628.9,592.4-1628.8,592.2-1628.6,592z M-1629.1,597.9c-0.1,0.2-0.2,0.4-0.3,0.6c0-0.3,0-0.7,0.1-1
		C-1629.3,597.6-1629.2,597.7-1629.1,597.9z M-1625.3,587.5C-1625.3,587.5-1625.3,587.6-1625.3,587.5
		C-1625.3,587.6-1625.3,587.5-1625.3,587.5C-1625.3,587.5-1625.3,587.5-1625.3,587.5z M-1628.5,587.9
		C-1628.5,587.9-1628.5,587.9-1628.5,587.9C-1628.5,587.9-1628.5,587.9-1628.5,587.9C-1628.5,587.9-1628.5,587.9-1628.5,587.9z
		 M-1634.6,607.8c-1.8,3.1-3.4,5.7-4.2,7.7c-6.2,11.4-11.1,20.4-18.6,34.1c-0.6-0.3-1.1-0.7-1.7-1c6.9-13.2,16.2-30.9,22.5-43.1
		c1.8-3.4,3.7-6.8,5.9-10.2c0,1.8,0.1,3.5,0.2,5.3C-1632.1,603.2-1633.4,605.6-1634.6,607.8z M-1624.7,737.8c-0.6,0-1.3,0-2,0
		c0.6-3.8-1-6.8,0-9.1C-1623,728.7-1625.3,734.8-1624.7,737.8z M-1624.7,723.5c-0.6,0-1.3,0-2,0c-0.8-19.1-1.4-45.9-0.6-57.3
		c3.5,3.1,2,8.9,2,13.7C-1625.3,696.2-1625.3,711.2-1624.7,723.5z M-1626.4,610.2c-0.1,3.6-0.1,6.7,0.2,8.8
		c0.3,13,0.6,23.2,0.9,38.9c-0.7,0-1.3,0-2,0c-0.7-14.9-1.4-34.9-2.1-48.6c-0.1-2.6-0.1-5.3-0.1-8.1c0.4-0.6,0.8-1.3,1.2-2
		c0.6,0.9,1.2,1.9,1.7,2.8C-1626.5,604.9-1626.5,607.6-1626.4,610.2z M-1595.1,649.7c-8-12.6-18.7-29.5-26.1-41
		c-1.4-2.2-2.8-4.6-4.1-6.9c0-1.8,0-3.6,0-5.5c0.1,0.2,0.2,0.3,0.4,0.5c2.5,4.2,4.7,7.9,6.7,11.3c1.7,3.1,3.3,5.8,4.5,7.5
		c6.7,11.1,12.1,19.8,20.2,33.2C-1593.9,649.1-1594.5,649.4-1595.1,649.7z M-1546,704.8c-5.1-3.7-13.8-3-16.8-8.3
		C-1557.6,699.8-1549,699.6-1546,704.8z M-1548.2,700.8c-5.1-3-13.4-3.4-16.5-7.7C-1560.1,696.5-1549.5,696.6-1548.2,700.8z
		 M-1549.3,697.7c-5.5-3.2-14.4-3.1-17.7-8.5C-1561.7,692.8-1552.7,692.5-1549.3,697.7z M-1552.5,693.5c-5.4-2.9-14-3.6-17.4-8
		C-1564.6,688.9-1555.7,688.5-1552.5,693.5z M-1572.4,682.5c5.8,1.6,14,3.6,17.7,7.1C-1560.6,687.1-1566.8,685.9-1572.4,682.5z
		 M-1557.6,685.9c-5.1-2.8-13.5-3-16.5-7.7C-1569.5,680.9-1558.4,682.5-1557.6,685.9z M-1560.4,682.3c-5.3-2.8-11.1-3.5-16.2-7.2
		C-1571.4,676-1561.6,678.2-1560.4,682.3z M-1563.9,677.6c-4.8-2.3-9.9-3.2-14.7-5.8C-1573.9,673.4-1566.5,674.3-1563.9,677.6z
		 M-1580,668.1c1.2,1.3,6.9,1.4,4.9,3.2C-1576.1,669.2-1580.5,670.2-1580,668.1z M-1571.4,669.9c-2.9-1.8-8.7-1.9-9.6-5
		C-1578.3,667.1-1572.5,667.5-1571.4,669.9z M-1589.9,662.5c1.2,3.5-0.1,6.3-0.6,9.4C-1592.7,668.2-1590.5,665.6-1589.9,662.5z
		 M-1588,665.9c1.3,5.3,0.3,12.5-1.7,15.3C-1590.1,675.9-1588.8,671-1588,665.9z M-1584.8,670.1c-0.4,6.1-0.5,12.3-2.4,17.9
		C-1588.2,681.9-1587.2,673.8-1584.8,670.1z M-1583.1,674.4c0.1,5.9-0.5,11.6-2.2,17.1C-1586.4,685.3-1584.1,680-1583.1,674.4z
		 M-1580.3,678c-1.2,6.2-0.9,12.8-2.7,18.8C-1584,690.4-1583.4,681.8-1580.3,678z M-1578.6,680.8c0.5,6.7,0.4,15.6-2.9,19.7
		C-1580.9,693.9-1581.6,686.9-1578.6,680.8z M-1576.9,685.1c2.3,5.4-0.1,13.6-1.5,19.6C-1580.1,697.6-1577.5,691.6-1576.9,685.1z
		 M-1573.4,689.8c-0.8,6.3-0.4,12.9-2.7,18.8C-1576.8,702.3-1576.6,693.6-1573.4,689.8z M-1571.8,692.7c1.5,6.9,0.5,13.2-1.8,19.1
		C-1574.7,704.9-1573.9,698.6-1571.8,692.7z M-1569.2,697.2c1.7,6.7,0.4,12.5-1.6,18.2C-1572,708.8-1570.8,702.9-1569.2,697.2z
		 M-1568.2,718.4c-0.8-6,0.1-11.4,1.6-16.7C-1565.4,707.7-1566.5,713.2-1568.2,718.4z M-1565.8,720c-0.1-4.2,0.2-8.2,1.3-12
		C-1564.1,712.2-1564.7,716.2-1565.8,720z M-1561.6,706.3c-10.2-16.1-24.1-39-29.2-49.3c4.6,0.9,6.2,6.8,8.5,10.9
		c8.1,14.1,15.6,27.1,22.4,37.4C-1560.5,705.7-1561.1,706-1561.6,706.3z M-1552.8,717.8c-0.6,0.3-1.1,0.7-1.7,1
		c-1.4-3.6-4.2-5.4-4.6-7.9C-1555.8,709-1554.9,715.5-1552.8,717.8z M-1558.7,700.9c3.3,2.3,9.6,3.2,11.4,5.4
		C-1550.8,704.5-1557.1,703.8-1558.7,700.9z"/>
	<g>
		<path d="M-1678.1,565.8l-11.7-11.7c-0.4,0.4-0.8,0.7-1.1,1.1l11.7,11.7C-1678.8,566.5-1678.4,566.1-1678.1,565.8z"/>
		<path d="M-1701.1,570.6c-0.2,0.5-0.4,1-0.6,1.5l15.3,6.3c0.2-0.5,0.4-1,0.6-1.5L-1701.1,570.6z"/>
		<rect x="-1721.7" y="530.6" transform="matrix(0.7071 0.7071 -0.7071 0.7071 -126.1524 1367.3634)" width="16.3" height="1.6"/>
		<path d="M-1693.1,550.7l-10.7-10.7l-1.1,1.1l10.7,10.7C-1693.8,551.5-1693.5,551.1-1693.1,550.7z"/>
		<path d="M-1720.2,564.4l14,5.8c0.2-0.5,0.4-1,0.6-1.5l-14-5.8L-1720.2,564.4z"/>
		<path d="M-1691.1,592.4h-16.5c0,0.3,0,0.5,0,0.8c0,0.3,0,0.5,0,0.8h16.5c0-0.3,0-0.5,0-0.8
			C-1691.1,592.9-1691.1,592.6-1691.1,592.4z"/>
		<path d="M-1712.4,592.4h-15.2v1.6h15.2c0-0.3,0-0.5,0-0.8C-1712.4,592.9-1712.4,592.6-1712.4,592.4z"/>
		<rect x="-1748.6" y="592.4" width="16.3" height="1.6"/>
		<path d="M-1509.5,592.4h-16.5c0,0.3,0,0.5,0,0.8c0,0.3,0,0.5,0,0.8h16.5c0-0.3,0-0.5,0-0.8
			C-1509.5,592.9-1509.5,592.6-1509.5,592.4z"/>
		<path d="M-1530.8,592.4h-15.2v1.6h15.2c0-0.3,0-0.5,0-0.8C-1530.8,592.9-1530.8,592.6-1530.8,592.4z"/>
		<rect x="-1567.1" y="592.4" width="16.3" height="1.6"/>
		<path d="M-1720.2,622.9l0.6,1.5l14-5.8c-0.2-0.5-0.4-1-0.6-1.5L-1720.2,622.9z"/>
		<path d="M-1679.2,620.4l-11.7,11.7c0.4,0.4,0.7,0.8,1.1,1.1l11.7-11.7C-1678.4,621.2-1678.8,620.8-1679.2,620.4z"/>
		<path d="M-1701.7,615.3c0.2,0.5,0.4,1,0.6,1.5l15.3-6.3c-0.2-0.5-0.4-1-0.6-1.5L-1701.7,615.3z"/>
		<path d="M-1704.9,646.2l1.1,1.1l10.7-10.7c-0.4-0.4-0.8-0.7-1.1-1.1L-1704.9,646.2z"/>
		<rect x="-1714.3" y="647.7" transform="matrix(-0.7071 -0.7071 0.7071 -0.7071 -3389 -91.8839)" width="1.6" height="16.3"/>
	</g>
	<g>
		<path d="M-1577.6,565.8l11.7-11.7c0.4,0.4,0.8,0.7,1.1,1.1l-11.7,11.7C-1576.9,566.5-1577.3,566.1-1577.6,565.8z"/>
		<path d="M-1554.6,570.6c0.2,0.5,0.4,1,0.6,1.5l-15.3,6.3c-0.2-0.5-0.4-1-0.6-1.5L-1554.6,570.6z"/>
		
			<rect x="-1550.3" y="530.6" transform="matrix(-0.7071 0.7071 -0.7071 -0.7071 -2256.8132 1997.6832)" width="16.3" height="1.6"/>
		<path d="M-1562.6,550.7l10.7-10.7l1.1,1.1l-10.7,10.7C-1561.8,551.5-1562.2,551.1-1562.6,550.7z"/>
		<path d="M-1535.5,564.4l-14,5.8c-0.2-0.5-0.4-1-0.6-1.5l14-5.8L-1535.5,564.4z"/>
		<path d="M-1535.5,622.9l-0.6,1.5l-14-5.8c0.2-0.5,0.4-1,0.6-1.5L-1535.5,622.9z"/>
		<path d="M-1576.5,620.4l11.7,11.7c-0.4,0.4-0.7,0.8-1.1,1.1l-11.7-11.7C-1577.3,621.2-1576.9,620.8-1576.5,620.4z"/>
		<path d="M-1554,615.3c-0.2,0.5-0.4,1-0.6,1.5l-15.3-6.3c0.2-0.5,0.4-1,0.6-1.5L-1554,615.3z"/>
		<path d="M-1550.7,646.2l-1.1,1.1l-10.7-10.7c0.4-0.4,0.8-0.7,1.1-1.1L-1550.7,646.2z"/>
		<rect x="-1543" y="647.7" transform="matrix(0.7068 -0.7074 0.7074 0.7068 -916.102 -898.618)" width="1.6" height="16.3"/>
	</g>
	<text transform="matrix(1 0 0 1 -1823.8513 600.0132)"><tspan x="0" y="0" font-family="'Oswald-Bold'" font-size="15" letter-spacing="4">TRAD</tspan><tspan x="52.7" y="0" font-family="'Oswald-Bold'" font-size="15">E</tspan></text>
	<text transform="matrix(1 0 0 1 -1487.7263 599.5132)" font-family="'Oswald-Bold'" font-size="15" letter-spacing="4">MARK</text>
	<g>
		<path id="SVGID_x5F_3_x5F_" fill="none" d="M-1815.9,627.4c0,99,84.4,179.3,188.4,179.3c104.1,0,188.4-80.3,188.4-179.3"/>
		<text>		<textPath  xlink:href="#SVGID_x5F_3_x5F_" startOffset="0%">
<tspan  font-family="'Lato-Black'" font-size="28.1241" letter-spacing="199.6">TRavel and RELAXATION</tspan>		</textPath>
</text>
	</g>
	<g>
		<path id="SVGID_x5F_4_x5F_" fill="none" d="M-1794.9,603.7c0-99,75.9-179.3,169.4-179.3c93.6,0,169.4,80.3,169.4,179.3"/>
		<text>		<textPath  xlink:href="#SVGID_x5F_4_x5F_" startOffset="10.5245%">
<tspan  font-family="'Lato-Black'" font-size="28.1241" letter-spacing="300">WILD WEST ACADEMY</tspan>		</textPath>
</text>
	</g>
</g>
<g>
	<g>
		<g>
			<g>
				<g>
					<g>
						<g>
							<path d="M-1458.9-63.8c-1-2.8-1.4-5.5-1.4-8.2c0-2.8,0.5-5.5,1.5-8.4c0.1-0.4,45.2-129.3,45.2-129.3c0.2-0.6,0.3-1.1,0.3-1.6
								c0-2.3-1.9-4.1-4.1-4.1l-422.9,0c-2,0.1-3.6,2-3.6,4.1c0,0.4,0.1,0.8,0.3,1.4c0,0,45.2,129.1,45.3,129.7
								c1,2.8,1.4,5.5,1.4,8.2c0,2.8-0.5,5.5-1.5,8.4c-0.1,0.4-45.5,130.4-45.5,130.9c0,2.3,1.9,4.1,4.1,4.1l422.9,0
								c2-0.1,3.7-2,3.7-4.1C-1413.3,67-1458.7-63.2-1458.9-63.8z"/>
						</g>
					</g>
					<g>
						<g>
							<g>
								<path fill="#FFFFFF" d="M-1834.3,64.5c-0.3,0-0.5-0.1-0.7-0.3c-0.2-0.2-0.3-0.4-0.3-0.7c0-0.3,0.1-0.5,0.3-0.7
									c0.4-0.4,1-0.4,1.4,0c0.2,0.2,0.3,0.4,0.3,0.7c0,0.3-0.1,0.5-0.3,0.7C-1833.7,64.4-1834,64.5-1834.3,64.5z"/>
							</g>
						</g>
						<g>
							<g>
								<path fill="#FFFFFF" d="M-1832.3,57.9c-0.5-0.2-0.8-0.8-0.6-1.3l0,0l0,0l0,0c0.2-0.5,0.8-0.8,1.3-0.6l0,0
									c0.5,0.2,0.8,0.8,0.6,1.3l0,0c-0.1,0.4-0.5,0.7-0.9,0.7l0,0C-1832.1,57.9-1832.2,57.9-1832.3,57.9z M-1830.1,51.3
									c-0.5-0.2-0.8-0.8-0.6-1.3l0,0l0,0l0,0c0.2-0.5,0.8-0.8,1.3-0.6l0,0c0.5,0.2,0.8,0.8,0.6,1.3l0,0c-0.2,0.4-0.5,0.7-1,0.7
									l0,0C-1829.8,51.4-1829.9,51.3-1830.1,51.3z M-1827.8,44.7c-0.5-0.2-0.8-0.8-0.6-1.3l0,0c0.2-0.5,0.8-0.8,1.3-0.6l0,0
									c0.5,0.2,0.8,0.8,0.6,1.3l0,0c-0.1,0.4-0.5,0.7-0.9,0.7l0,0C-1827.6,44.8-1827.7,44.8-1827.8,44.7z M-1825.5,38.2
									c-0.5-0.2-0.8-0.8-0.6-1.3l0,0c0.2-0.5,0.8-0.8,1.3-0.6l0,0c0.5,0.2,0.8,0.8,0.6,1.3l0,0c-0.1,0.4-0.5,0.7-0.9,0.7l0,0
									C-1825.3,38.2-1825.4,38.2-1825.5,38.2z M-1823.2,31.6c-0.5-0.2-0.8-0.8-0.6-1.3l0,0c0.2-0.5,0.8-0.8,1.3-0.6l0,0
									c0.5,0.2,0.8,0.8,0.6,1.3l0,0c-0.1,0.4-0.5,0.7-1,0.7l0,0C-1823,31.7-1823.1,31.7-1823.2,31.6z M-1820.9,25.1
									c-0.5-0.2-0.8-0.8-0.6-1.3l0,0c0,0,0,0,0,0l0,0c0.2-0.5,0.8-0.8,1.3-0.6l0,0c0.5,0.2,0.8,0.8,0.6,1.3l0,0
									c-0.1,0.4-0.5,0.7-0.9,0.7l0,0C-1820.7,25.1-1820.8,25.1-1820.9,25.1z M-1818.6,18.5c-0.5-0.2-0.8-0.8-0.6-1.3l0,0
									c0.2-0.5,0.8-0.8,1.3-0.6l0,0c0.5,0.2,0.8,0.8,0.6,1.3v0c-0.2,0.4-0.5,0.7-0.9,0.7l0,0
									C-1818.4,18.6-1818.5,18.5-1818.6,18.5z M-1816.4,11.9c-0.5-0.2-0.8-0.8-0.6-1.3l0,0c0.2-0.5,0.8-0.8,1.3-0.6l0,0
									c0.5,0.2,0.8,0.8,0.6,1.3l0,0c-0.1,0.4-0.5,0.7-0.9,0.7l0,0C-1816.1,12-1816.2,12-1816.4,11.9z M-1814.1,5.4
									c-0.5-0.2-0.8-0.8-0.6-1.3l0,0c0.2-0.5,0.8-0.8,1.3-0.6l0,0c0.5,0.2,0.8,0.8,0.6,1.3l0,0c-0.1,0.4-0.5,0.7-0.9,0.7l0,0
									C-1813.8,5.4-1814,5.4-1814.1,5.4z M-1811.8-1.2c-0.5-0.2-0.8-0.8-0.6-1.3l0,0l0,0l0,0c0.2-0.5,0.8-0.8,1.3-0.6l0,0
									c0.5,0.2,0.8,0.8,0.6,1.3l0,0c-0.1,0.4-0.5,0.7-0.9,0.7l0,0C-1811.6-1.1-1811.7-1.1-1811.8-1.2z M-1809.5-7.7
									c-0.5-0.2-0.8-0.8-0.6-1.3l0,0c0.2-0.5,0.8-0.8,1.3-0.6l0,0c0.5,0.2,0.8,0.8,0.6,1.3l0,0c-0.1,0.4-0.5,0.7-0.9,0.7l0,0
									C-1809.3-7.7-1809.4-7.7-1809.5-7.7z M-1807.2-14.3c-0.5-0.2-0.8-0.8-0.6-1.3l0,0c0.2-0.5,0.8-0.8,1.3-0.6l0,0
									c0.5,0.2,0.8,0.7,0.6,1.3l0,0c-0.1,0.4-0.5,0.7-0.9,0.7l0,0C-1807-14.2-1807.1-14.3-1807.2-14.3z M-1804.9-20.9
									c-0.5-0.2-0.8-0.8-0.6-1.3l0,0c0,0,0,0,0,0l0,0c0.2-0.5,0.8-0.8,1.3-0.6l0,0c0.5,0.2,0.8,0.8,0.6,1.3l0,0
									c-0.1,0.4-0.5,0.7-0.9,0.7l0,0C-1804.7-20.8-1804.8-20.8-1804.9-20.9z M-1802.6-27.4c-0.5-0.2-0.8-0.8-0.6-1.3l0,0
									c0.2-0.5,0.8-0.8,1.3-0.6l0,0c0.5,0.2,0.8,0.8,0.6,1.3l0,0c-0.2,0.4-0.5,0.7-0.9,0.7l0,0
									C-1802.4-27.4-1802.5-27.4-1802.6-27.4z M-1800.3-34c-0.5-0.2-0.8-0.8-0.6-1.3l0,0c0.2-0.5,0.8-0.8,1.3-0.6l0,0
									c0.5,0.2,0.8,0.8,0.6,1.3l0,0c-0.2,0.4-0.5,0.7-1,0.7l0,0C-1800.1-33.9-1800.2-33.9-1800.3-34z M-1798.1-40.5
									c-0.5-0.2-0.8-0.8-0.6-1.3l0,0c0.2-0.5,0.8-0.8,1.3-0.6l0,0c0.5,0.2,0.8,0.8,0.6,1.3l0,0c-0.2,0.4-0.5,0.7-1,0.7l0,0
									C-1797.8-40.5-1797.9-40.5-1798.1-40.5z M-1795.8-47.1c-0.5-0.2-0.8-0.8-0.6-1.3l0,0l0,0l0,0c0.2-0.5,0.8-0.8,1.3-0.6l0,0
									c0.5,0.2,0.8,0.8,0.6,1.3l0,0c-0.1,0.4-0.5,0.7-0.9,0.7l0,0C-1795.5-47-1795.7-47-1795.8-47.1z M-1793.5-53.6
									c-0.5-0.2-0.8-0.8-0.6-1.3l0,0c0.2-0.5,0.8-0.8,1.3-0.6l0,0c0.5,0.2,0.8,0.8,0.6,1.3l0,0c-0.2,0.4-0.5,0.7-1,0.7l0,0
									C-1793.3-53.6-1793.4-53.6-1793.5-53.6z"/>
							</g>
						</g>
						<g>
							<g>
								<path fill="#FFFFFF" d="M-1790.9-60c-0.3,0-0.5-0.1-0.7-0.3c-0.2-0.2-0.3-0.4-0.3-0.7c0-0.3,0.1-0.5,0.3-0.7
									c0.4-0.4,1-0.4,1.4,0c0.2,0.2,0.3,0.4,0.3,0.7c0,0.3-0.1,0.5-0.3,0.7C-1790.4-60.1-1790.6-60-1790.9-60z"/>
							</g>
						</g>
						<g>
							<g>
								<path fill="#FFFFFF" d="M-1790.9-60c-0.3,0-0.5-0.1-0.7-0.3c-0.2-0.2-0.3-0.4-0.3-0.7c0-0.3,0.1-0.5,0.3-0.7
									c0.4-0.4,1-0.4,1.4,0c0.2,0.2,0.3,0.5,0.3,0.7c0,0.3-0.1,0.5-0.3,0.7C-1790.4-60.1-1790.7-60-1790.9-60z"/>
							</g>
						</g>
						<g>
							<g>
								<path fill="#FFFFFF" d="M-1789.3-67.2c-0.5-0.1-0.9-0.6-0.9-1.1l0,0l0,0l0,0c0.1-0.6,0.6-0.9,1.1-0.9l0,0
									c0.5,0.1,0.9,0.6,0.9,1.1l0,0c-0.1,0.5-0.5,0.9-1,0.9l0,0C-1789.3-67.2-1789.3-67.2-1789.3-67.2z M-1790.2-75.4
									c-0.1-0.5,0.3-1,0.9-1.1l0,0c0.6-0.1,1.1,0.3,1.1,0.9l0,0c0.1,0.6-0.3,1.1-0.9,1.1l0,0c0,0-0.1,0-0.1,0l0,0
									C-1789.7-74.5-1790.1-74.9-1790.2-75.4z"/>
							</g>
						</g>
						<g>
							<g>
								<path fill="#FFFFFF" d="M-1790.8-81.8c-0.3,0-0.5-0.1-0.7-0.3c-0.2-0.2-0.3-0.4-0.3-0.7c0-0.3,0.1-0.5,0.3-0.7
									c0.4-0.4,1-0.4,1.4,0c0.2,0.2,0.3,0.4,0.3,0.7c0,0.3-0.1,0.5-0.3,0.7C-1790.3-81.9-1790.6-81.8-1790.8-81.8z"/>
							</g>
						</g>
						<g>
							<g>
								<path fill="#FFFFFF" d="M-1790.8-81.7c-0.3,0-0.5-0.1-0.7-0.3c-0.2-0.2-0.3-0.4-0.3-0.7c0-0.3,0.1-0.5,0.3-0.7
									c0.4-0.4,1-0.4,1.4,0c0.2,0.2,0.3,0.5,0.3,0.7c0,0.3-0.1,0.5-0.3,0.7C-1790.3-81.8-1790.5-81.7-1790.8-81.7z"/>
							</g>
						</g>
						<g>
							<g>
								<path fill="#FFFFFF" d="M-1794-88.9c-0.2-0.5,0.1-1.1,0.6-1.3l0,0c0.5-0.2,1.1,0.1,1.3,0.6l0,0c0.2,0.5-0.1,1.1-0.6,1.3l0,0
									c-0.1,0-0.2,0.1-0.3,0.1l0,0C-1793.5-88.2-1793.9-88.5-1794-88.9z M-1796.3-95.5L-1796.3-95.5L-1796.3-95.5
									c-0.2-0.5,0.1-1.1,0.6-1.3l0,0c0.5-0.2,1.1,0.1,1.3,0.6l0,0c0.2,0.5-0.1,1.1-0.6,1.3l0,0c-0.1,0-0.2,0.1-0.3,0.1l0,0
									C-1795.8-94.8-1796.2-95.1-1796.3-95.5z M-1798.6-102.1C-1798.6-102.1-1798.6-102.1-1798.6-102.1L-1798.6-102.1
									c-0.2-0.5,0.1-1.1,0.6-1.3l0,0c0.5-0.2,1.1,0.1,1.3,0.6l0,0c0.2,0.5-0.1,1.1-0.6,1.3l0,0c-0.1,0-0.2,0.1-0.3,0.1l0,0
									C-1798.1-101.4-1798.5-101.6-1798.6-102.1z M-1800.9-108.6c-0.2-0.5,0.1-1.1,0.6-1.3l0,0c0.5-0.2,1.1,0.1,1.3,0.6l0,0
									c0.2,0.5-0.1,1.1-0.6,1.3l0,0c-0.1,0-0.2,0.1-0.3,0.1l0,0C-1800.4-108-1800.8-108.2-1800.9-108.6z M-1803.2-115.2
									c-0.2-0.5,0.1-1.1,0.6-1.3l0,0c0.5-0.2,1.1,0.1,1.3,0.6l0,0c0.2,0.5-0.1,1.1-0.6,1.3l0,0c-0.1,0-0.2,0-0.3,0l0,0
									C-1802.7-114.5-1803.1-114.8-1803.2-115.2z M-1805.5-121.8L-1805.5-121.8L-1805.5-121.8c-0.2-0.5,0.1-1.1,0.6-1.3l0,0
									c0.5-0.2,1.1,0.1,1.3,0.6l0,0c0.2,0.5-0.1,1.1-0.6,1.3l0,0c-0.1,0-0.2,0.1-0.3,0.1l0,0
									C-1805-121.1-1805.4-121.4-1805.5-121.8z M-1807.8-128.3c-0.2-0.5,0.1-1.1,0.6-1.3l0,0c0.5-0.2,1.1,0.1,1.3,0.6l0,0
									c0.2,0.5-0.1,1.1-0.6,1.3l0,0c-0.1,0-0.2,0.1-0.3,0.1l0,0C-1807.3-127.7-1807.7-127.9-1807.8-128.3z M-1810.1-134.9
									c-0.2-0.5,0.1-1.1,0.6-1.3l0,0c0.5-0.2,1.1,0.1,1.3,0.6l0,0c0.2,0.5-0.1,1.1-0.6,1.3l0,0c-0.1,0-0.2,0.1-0.3,0.1l0,0
									C-1809.6-134.3-1810-134.5-1810.1-134.9z M-1812.4-141.5c-0.2-0.5,0.1-1.1,0.6-1.3l0,0c0.5-0.2,1.1,0.1,1.3,0.6l0,0
									c0.2,0.5-0.1,1.1-0.6,1.3l0,0c-0.1,0-0.2,0.1-0.3,0.1l0,0C-1811.9-140.8-1812.3-141.1-1812.4-141.5z M-1814.7-148.1
									c-0.2-0.5,0.1-1.1,0.6-1.3l0,0c0.5-0.2,1.1,0.1,1.3,0.6l0,0c0.2,0.5-0.1,1.1-0.6,1.3l0,0c-0.1,0-0.2,0.1-0.3,0.1l0,0
									C-1814.2-147.4-1814.6-147.7-1814.7-148.1z M-1817-154.6c-0.2-0.5,0.1-1.1,0.6-1.3l0,0c0.5-0.2,1.1,0.1,1.3,0.6l0,0
									c0.2,0.5-0.1,1.1-0.6,1.3l0,0c-0.1,0-0.2,0.1-0.3,0.1l0,0C-1816.5-154-1816.9-154.2-1817-154.6z M-1819.3-161.2
									c-0.2-0.5,0.1-1.1,0.6-1.3l0,0c0.5-0.2,1.1,0.1,1.3,0.6l0,0c0.2,0.5-0.1,1.1-0.6,1.3l0,0c-0.1,0-0.2,0.1-0.3,0.1l0,0
									C-1818.8-160.5-1819.2-160.8-1819.3-161.2z M-1821.6-167.8c-0.2-0.5,0.1-1.1,0.6-1.3l0,0c0.5-0.2,1.1,0.1,1.3,0.6l0,0
									c0.2,0.5-0.1,1.1-0.6,1.3l0,0c-0.1,0-0.2,0.1-0.3,0.1l0,0C-1821.1-167.1-1821.5-167.4-1821.6-167.8z M-1823.9-174.4
									L-1823.9-174.4L-1823.9-174.4c-0.2-0.5,0.1-1.1,0.6-1.3l0,0c0.5-0.2,1.1,0.1,1.3,0.6h0c0.2,0.5-0.1,1.1-0.6,1.3l0,0
									c-0.1,0-0.2,0.1-0.3,0.1l0,0C-1823.4-173.7-1823.8-173.9-1823.9-174.4z M-1826.2-180.9L-1826.2-180.9L-1826.2-180.9
									c-0.2-0.5,0.1-1.1,0.6-1.3l0,0c0.5-0.2,1.1,0.1,1.3,0.6l0,0c0.2,0.5-0.1,1.1-0.6,1.3l0,0c-0.1,0-0.2,0.1-0.3,0.1l0,0
									C-1825.7-180.3-1826.1-180.5-1826.2-180.9z M-1828.5-187.5c-0.2-0.5,0.1-1.1,0.6-1.3l0,0c0.5-0.2,1.1,0.1,1.3,0.6l0,0
									c0.2,0.5-0.1,1.1-0.6,1.3l0,0c-0.1,0-0.2,0.1-0.3,0.1l0,0C-1828-186.8-1828.4-187.1-1828.5-187.5z M-1830.8-194.1
									c-0.2-0.5,0.1-1.1,0.6-1.3l0,0c0.5-0.2,1.1,0.1,1.3,0.6l0,0c0.2,0.5-0.1,1.1-0.6,1.3l0,0c-0.1,0-0.2,0.1-0.3,0.1l0,0
									C-1830.3-193.4-1830.7-193.7-1830.8-194.1z M-1833.1-200.7c-0.2-0.5,0.1-1.1,0.6-1.3l0,0c0.5-0.2,1.1,0.1,1.3,0.6l0,0
									c0.2,0.5-0.1,1.1-0.6,1.3l0,0c-0.1,0-0.2,0.1-0.3,0.1l0,0C-1832.6-200-1833-200.2-1833.1-200.7z"/>
							</g>
						</g>
						<g>
							<g>
								<path fill="#FFFFFF" d="M-1834.4-206.4c-0.3,0-0.5-0.1-0.7-0.3c-0.2-0.2-0.3-0.5-0.3-0.7c0-0.3,0.1-0.5,0.3-0.7
									c0.4-0.4,1-0.4,1.4,0c0.2,0.2,0.3,0.4,0.3,0.7c0,0.3-0.1,0.5-0.3,0.7C-1833.9-206.6-1834.2-206.4-1834.4-206.4z"/>
							</g>
						</g>
						<g>
							<g>
								<path fill="#FFFFFF" d="M-1828.4-207.4c0-0.6,0.5-1,1-1l0,0c0.6,0,1,0.4,1,1l0,0c0,0.5-0.4,1-1,1l0,0
									C-1828-206.4-1828.4-206.9-1828.4-207.4z M-1584.3-207.4c0-0.6,0.4-1,1-1l0,0c0.6,0,1,0.4,1,1l0,0c0,0.5-0.5,1-1,1l0,0
									C-1583.9-206.4-1584.3-206.9-1584.3-207.4z M-1591.3-207.4c0-0.6,0.5-1,1-1l0,0c0.5,0,1,0.4,1,1l0,0c0,0.5-0.5,1-1,1l0,0
									C-1590.9-206.4-1591.3-206.9-1591.3-207.4z M-1598.3-207.4c0-0.6,0.4-1,1-1l0,0c0.5,0,1,0.4,1,1l0,0c0,0.5-0.5,1-1,1l0,0
									C-1597.8-206.4-1598.3-206.9-1598.3-207.4z M-1605.3-207.4c0-0.6,0.5-1,1-1l0,0c0.6,0,1,0.4,1,1l0,0c0,0.5-0.4,1-1,1l0,0
									C-1604.8-206.4-1605.3-206.9-1605.3-207.4z M-1612.2-207.4c0-0.6,0.4-1,1-1l0,0c0.5,0,1,0.4,1,1l0,0c0,0.5-0.5,1-1,1l0,0
									C-1611.8-206.4-1612.2-206.9-1612.2-207.4z M-1619.2-207.4c0-0.6,0.4-1,1-1l0,0c0.5,0,1,0.4,1,1l0,0c0,0.5-0.5,1-1,1l0,0
									C-1618.8-206.4-1619.2-206.9-1619.2-207.4z M-1626.2-207.4c0-0.6,0.5-1,1-1l0,0c0.5,0,1,0.4,1,1l0,0c0,0.5-0.5,1-1,1l0,0
									C-1625.7-206.4-1626.2-206.9-1626.2-207.4z M-1633.2-207.4c0-0.6,0.5-1,1-1l0,0c0.6,0,1,0.4,1,1l0,0c0,0.5-0.4,1-1,1l0,0
									C-1632.7-206.4-1633.2-206.9-1633.2-207.4z M-1640.1-207.4c0-0.6,0.5-1,1-1l0,0c0.6,0,1,0.4,1,1l0,0c0,0.5-0.4,1-1,1l0,0
									C-1639.7-206.4-1640.1-206.9-1640.1-207.4z M-1647.1-207.4c0-0.6,0.5-1,1-1l0,0c0.6,0,1,0.4,1,1l0,0c0,0.5-0.4,1-1,1l0,0
									C-1646.7-206.4-1647.1-206.9-1647.1-207.4z M-1654.1-207.4c0-0.6,0.4-1,1-1l0,0c0.5,0,1,0.4,1,1l0,0c0,0.5-0.5,1-1,1l0,0
									C-1653.6-206.4-1654.1-206.9-1654.1-207.4z M-1661-207.4c0-0.6,0.4-1,1-1l0,0c0.6,0,1,0.4,1,1l0,0c0,0.5-0.4,1-1,1l0,0
									C-1660.6-206.4-1661-206.9-1661-207.4z M-1668-207.4c0-0.6,0.5-1,1-1l0,0c0.5,0,1,0.4,1,1l0,0c0,0.5-0.5,1-1,1l0,0
									C-1667.6-206.4-1668-206.9-1668-207.4z M-1675-207.4c0-0.6,0.5-1,1-1l0,0c0.6,0,1,0.4,1,1l0,0c0,0.5-0.5,1-1,1l0,0
									C-1674.6-206.4-1675-206.9-1675-207.4z M-1682-207.4c0-0.6,0.5-1,1-1l0,0c0.5,0,1,0.4,1,1l0,0c0,0.5-0.5,1-1,1l0,0
									C-1681.5-206.4-1682-206.9-1682-207.4z M-1688.9-207.4c0-0.6,0.4-1,1-1l0,0c0.6,0,1,0.4,1,1l0,0c0,0.5-0.5,1-1,1l0,0
									C-1688.5-206.4-1688.9-206.9-1688.9-207.4z M-1695.9-207.4c0-0.6,0.5-1,1-1l0,0c0.5,0,1,0.4,1,1l0,0c0,0.5-0.5,1-1,1l0,0
									C-1695.5-206.4-1695.9-206.9-1695.9-207.4z M-1702.9-207.4c0-0.6,0.5-1,1-1l0,0c0.5,0,1,0.4,1,1l0,0c0,0.5-0.5,1-1,1l0,0
									C-1702.4-206.4-1702.9-206.9-1702.9-207.4z M-1709.9-207.4c0-0.6,0.5-1,1-1l0,0c0.6,0,1,0.4,1,1l0,0c0,0.5-0.4,1-1,1l0,0
									C-1709.4-206.4-1709.9-206.9-1709.9-207.4z M-1716.8-207.4c0-0.6,0.5-1,1-1l0,0c0.5,0,1,0.4,1,1l0,0c0,0.5-0.5,1-1,1l0,0
									C-1716.4-206.4-1716.8-206.9-1716.8-207.4z M-1723.8-207.4c0-0.6,0.4-1,1-1l0,0c0.6,0,1,0.4,1,1l0,0c0,0.5-0.4,1-1,1l0,0
									C-1723.4-206.4-1723.8-206.9-1723.8-207.4z M-1730.8-207.4c0-0.6,0.5-1,1-1l0,0c0.6,0,1,0.4,1,1l0,0c0,0.5-0.4,1-1,1l0,0
									C-1730.3-206.4-1730.8-206.9-1730.8-207.4z M-1737.8-207.4c0-0.6,0.5-1,1-1l0,0c0.6,0,1,0.4,1,1l0,0c0,0.5-0.4,1-1,1l0,0
									C-1737.3-206.4-1737.8-206.9-1737.8-207.4z M-1744.7-207.4c0-0.6,0.4-1,1-1l0,0c0.5,0,1,0.4,1,1l0,0c0,0.5-0.5,1-1,1l0,0
									C-1744.3-206.4-1744.7-206.9-1744.7-207.4z M-1751.7-207.4c0-0.6,0.5-1,1-1l0,0c0.6,0,1,0.4,1,1l0,0c0,0.5-0.4,1-1,1l0,0
									C-1751.3-206.4-1751.7-206.9-1751.7-207.4z M-1758.7-207.4c0-0.6,0.5-1,1-1l0,0c0.5,0,1,0.4,1,1l0,0c0,0.5-0.5,1-1,1l0,0
									C-1758.2-206.4-1758.7-206.9-1758.7-207.4z M-1765.7-207.4c0-0.6,0.5-1,1-1l0,0c0.6,0,1,0.4,1,1l0,0c0,0.5-0.5,1-1,1l0,0
									C-1765.2-206.4-1765.7-206.9-1765.7-207.4z M-1772.6-207.4c0-0.6,0.5-1,1-1l0,0c0.5,0,1,0.4,1,1l0,0c0,0.5-0.5,1-1,1l0,0
									C-1772.2-206.4-1772.6-206.9-1772.6-207.4z M-1779.6-207.4c0-0.6,0.4-1,1-1l0,0c0.6,0,1,0.4,1,1l0,0c0,0.5-0.5,1-1,1l0,0
									C-1779.2-206.4-1779.6-206.9-1779.6-207.4z M-1786.6-207.4c0-0.6,0.5-1,1-1l0,0c0.5,0,1,0.4,1,1l0,0c0,0.5-0.5,1-1,1l0,0
									C-1786.1-206.4-1786.6-206.9-1786.6-207.4z M-1793.6-207.4c0-0.6,0.4-1,1-1l0,0c0.5,0,1,0.4,1,1l0,0c0,0.5-0.5,1-1,1l0,0
									C-1793.1-206.4-1793.6-206.9-1793.6-207.4z M-1800.5-207.4c0-0.6,0.5-1,1-1l0,0c0.6,0,1,0.4,1,1l0,0c0,0.5-0.4,1-1,1l0,0
									C-1800.1-206.4-1800.5-206.9-1800.5-207.4z M-1807.5-207.4c0-0.6,0.5-1,1-1l0,0c0.5,0,1,0.4,1,1l0,0c0,0.5-0.5,1-1,1l0,0
									C-1807.1-206.4-1807.5-206.9-1807.5-207.4z M-1814.5-207.4c0-0.6,0.4-1,1-1l0,0c0.5,0,1,0.4,1,1l0,0c0,0.5-0.5,1-1,1l0,0
									C-1814-206.4-1814.5-206.9-1814.5-207.4z M-1821.5-207.4c0-0.6,0.5-1,1-1l0,0c0.6,0,1,0.4,1,1l0,0c0,0.5-0.4,1-1,1l0,0
									C-1821-206.4-1821.5-206.9-1821.5-207.4z M-1430.9-207.4c0-0.6,0.4-1,1-1l0,0c0.5,0,1,0.4,1,1l0,0c0,0.6-0.5,1-1,1l0,0
									C-1430.4-206.4-1430.9-206.9-1430.9-207.4z M-1437.9-207.4c0-0.6,0.5-1,1-1l0,0c0.5,0,1,0.4,1,1l0,0c0,0.6-0.5,1-1,1l0,0
									C-1437.4-206.4-1437.9-206.9-1437.9-207.4z M-1444.8-207.4c0-0.6,0.4-1,1-1l0,0c0.6,0,1,0.4,1,1l0,0c0,0.6-0.4,1-1,1l0,0
									C-1444.4-206.4-1444.8-206.9-1444.8-207.4z M-1451.8-207.4c0-0.6,0.5-1,1-1l0,0c0.5,0,1,0.4,1,1l0,0c0,0.6-0.5,1-1,1l0,0
									C-1451.4-206.4-1451.8-206.9-1451.8-207.4z M-1458.8-207.4c0-0.6,0.4-1,1-1l0,0c0.5,0,1,0.4,1,1l0,0c0,0.6-0.5,1-1,1l0,0
									C-1458.3-206.4-1458.8-206.9-1458.8-207.4z M-1465.8-207.4c0-0.6,0.5-1,1-1l0,0c0.5,0,1,0.4,1,1l0,0c0,0.6-0.5,1-1,1l0,0
									C-1465.3-206.4-1465.8-206.9-1465.8-207.4z M-1472.7-207.4c0-0.6,0.4-1,1-1l0,0c0.5,0,1,0.4,1,1l0,0c0,0.6-0.5,1-1,1l0,0
									C-1472.3-206.4-1472.7-206.9-1472.7-207.4z M-1479.7-207.4c0-0.6,0.5-1,1-1l0,0c0.6,0,1,0.4,1,1l0,0c0,0.5-0.4,1-1,1l0,0
									C-1479.3-206.4-1479.7-206.9-1479.7-207.4z M-1486.7-207.4c0-0.6,0.5-1,1-1l0,0c0.5,0,1,0.4,1,1l0,0c0,0.5-0.5,1-1,1l0,0
									C-1486.2-206.4-1486.7-206.9-1486.7-207.4z M-1493.7-207.4c0-0.6,0.4-1,1-1l0,0c0.6,0,1,0.4,1,1l0,0c0,0.5-0.4,1-1,1l0,0
									C-1493.2-206.4-1493.7-206.9-1493.7-207.4z M-1500.6-207.4c0-0.6,0.5-1,1-1l0,0c0.5,0,1,0.4,1,1l0,0c0,0.5-0.5,1-1,1l0,0
									C-1500.2-206.4-1500.6-206.9-1500.6-207.4z M-1507.6-207.4c0-0.6,0.4-1,1-1l0,0c0.5,0,1,0.4,1,1l0,0c0,0.5-0.5,1-1,1l0,0
									C-1507.2-206.4-1507.6-206.9-1507.6-207.4z M-1514.6-207.4c0-0.6,0.5-1,1-1l0,0c0.6,0,1,0.4,1,1l0,0c0,0.5-0.4,1-1,1l0,0
									C-1514.1-206.4-1514.6-206.9-1514.6-207.4z M-1521.6-207.4c0-0.6,0.4-1,1-1l0,0c0.5,0,1,0.4,1,1l0,0c0,0.5-0.5,1-1,1l0,0
									C-1521.1-206.4-1521.6-206.9-1521.6-207.4z M-1528.5-207.4c0-0.6,0.4-1,1-1l0,0c0.5,0,1,0.4,1,1l0,0c0,0.5-0.5,1-1,1l0,0
									C-1528.1-206.4-1528.5-206.9-1528.5-207.4z M-1535.5-207.4c0-0.6,0.4-1,1-1l0,0c0.6,0,1,0.4,1,1l0,0c0,0.5-0.4,1-1,1l0,0
									C-1535.1-206.4-1535.5-206.9-1535.5-207.4z M-1542.5-207.4c0-0.6,0.5-1,1-1l0,0c0.5,0,1,0.4,1,1l0,0c0,0.5-0.5,1-1,1l0,0
									C-1542-206.4-1542.5-206.9-1542.5-207.4z M-1549.5-207.4c0-0.6,0.4-1,1-1l0,0c0.5,0,1,0.4,1,1l0,0c0,0.5-0.5,1-1,1l0,0
									C-1549-206.4-1549.5-206.9-1549.5-207.4z M-1556.4-207.4c0-0.6,0.5-1,1-1l0,0c0.6,0,1,0.4,1,1l0,0c0,0.5-0.4,1-1,1l0,0
									C-1556-206.4-1556.4-206.9-1556.4-207.4z M-1563.4-207.4c0-0.6,0.5-1,1-1l0,0c0.5,0,1,0.4,1,1l0,0c0,0.5-0.5,1-1,1l0,0
									C-1563-206.4-1563.4-206.9-1563.4-207.4z M-1570.4-207.4c0-0.6,0.5-1,1-1l0,0c0.6,0,1,0.4,1,1l0,0c0,0.5-0.4,1-1,1l0,0
									C-1569.9-206.4-1570.4-206.9-1570.4-207.4z M-1577.4-207.4c0-0.6,0.5-1,1-1l0,0c0.5,0,1,0.4,1,1l0,0c0,0.5-0.5,1-1,1l0,0
									C-1576.9-206.4-1577.4-206.9-1577.4-207.4z"/>
							</g>
						</g>
						<g>
							<g>
								<path fill="#FFFFFF" d="M-1422.9-206.5c-0.3,0-0.5-0.1-0.7-0.3c-0.2-0.2-0.3-0.4-0.3-0.7c0-0.3,0.1-0.5,0.3-0.7
									c0.4-0.4,1-0.4,1.4,0c0.2,0.2,0.3,0.4,0.3,0.7c0,0.3-0.1,0.5-0.3,0.7C-1422.4-206.6-1422.6-206.5-1422.9-206.5z"/>
							</g>
						</g>
						<g>
							<g>
								<path fill="#FFFFFF" d="M-1464.5-88.4c-0.5-0.2-0.8-0.8-0.6-1.3l0,0c0.2-0.5,0.8-0.8,1.3-0.6l0,0c0.5,0.2,0.8,0.8,0.6,1.3
									l0,0c-0.1,0.4-0.5,0.7-0.9,0.7l0,0C-1464.3-88.3-1464.4-88.4-1464.5-88.4z M-1462.3-95c-0.5-0.2-0.8-0.8-0.6-1.3l0,0
									c0.2-0.5,0.8-0.8,1.3-0.6l0,0c0.5,0.2,0.8,0.8,0.6,1.3l0,0c-0.2,0.4-0.5,0.7-1,0.7l0,0C-1462-94.9-1462.1-94.9-1462.3-95z
									 M-1460-101.5c-0.5-0.2-0.8-0.8-0.6-1.3h0c0.2-0.5,0.8-0.8,1.3-0.6l0,0c0.5,0.2,0.8,0.8,0.6,1.3l0,0l0,0l0,0
									c-0.1,0.4-0.5,0.7-0.9,0.7l0,0C-1459.7-101.5-1459.8-101.5-1460-101.5z M-1457.7-108.1c-0.5-0.2-0.8-0.8-0.6-1.3l0,0
									c0.2-0.5,0.8-0.8,1.3-0.6l0,0c0.5,0.2,0.8,0.8,0.6,1.3l0,0c-0.1,0.4-0.5,0.7-1,0.7l0,0C-1457.4-108-1457.6-108-1457.7-108.1
									z M-1455.4-114.6c-0.5-0.2-0.8-0.8-0.6-1.3h0c0.2-0.5,0.8-0.8,1.3-0.6l0,0c0.5,0.2,0.8,0.8,0.6,1.3l0,0l0,0l0,0
									c-0.1,0.4-0.5,0.7-0.9,0.7l0,0C-1455.1-114.6-1455.3-114.6-1455.4-114.6z M-1453.1-121.2c-0.5-0.2-0.8-0.8-0.6-1.3l0,0
									c0.2-0.5,0.8-0.8,1.3-0.6l0,0c0.5,0.2,0.8,0.8,0.6,1.3l0,0c-0.1,0.4-0.5,0.7-0.9,0.7l0,0
									C-1452.9-121.2-1453-121.2-1453.1-121.2z M-1450.8-127.8c-0.5-0.2-0.8-0.8-0.6-1.3l0,0c0.2-0.5,0.8-0.8,1.3-0.6l0,0
									c0.5,0.2,0.8,0.8,0.6,1.3l0,0l0,0l0,0c-0.1,0.4-0.5,0.7-0.9,0.7l0,0C-1450.6-127.7-1450.7-127.7-1450.8-127.8z
									 M-1448.5-134.3c-0.5-0.2-0.8-0.8-0.6-1.3l0,0c0.2-0.5,0.8-0.8,1.3-0.6l0,0c0.5,0.2,0.8,0.8,0.6,1.3l0,0
									c-0.1,0.4-0.5,0.7-0.9,0.7l0,0C-1448.3-134.3-1448.4-134.3-1448.5-134.3z M-1446.2-140.9c-0.5-0.2-0.8-0.8-0.6-1.3l0,0
									c0.2-0.5,0.8-0.8,1.3-0.6l0,0c0.5,0.2,0.8,0.8,0.6,1.3l0,0l0,0l0,0c-0.1,0.4-0.5,0.7-0.9,0.7l0,0
									C-1446-140.8-1446.1-140.9-1446.2-140.9z M-1443.9-147.5c-0.5-0.2-0.8-0.8-0.6-1.3l0,0c0.2-0.5,0.8-0.8,1.3-0.6l0,0
									c0.5,0.2,0.8,0.8,0.6,1.3l0,0c-0.1,0.4-0.5,0.7-0.9,0.7l0,0C-1443.7-147.4-1443.8-147.4-1443.9-147.5z M-1441.6-154
									c-0.5-0.2-0.8-0.8-0.6-1.3l0,0c0.2-0.5,0.8-0.8,1.3-0.6l0,0c0.5,0.2,0.8,0.8,0.6,1.3l0,0c-0.1,0.4-0.5,0.7-0.9,0.7l0,0
									C-1441.4-154-1441.5-154-1441.6-154z M-1439.3-160.6c-0.5-0.2-0.8-0.8-0.6-1.3l0,0c0.2-0.5,0.8-0.8,1.3-0.6l0,0
									c0.5,0.2,0.8,0.8,0.6,1.3l0,0c-0.1,0.4-0.5,0.7-0.9,0.7l0,0C-1439.1-160.5-1439.2-160.5-1439.3-160.6z M-1437-167.1
									c-0.5-0.2-0.8-0.8-0.6-1.3l0,0c0.2-0.5,0.8-0.8,1.3-0.6l0,0c0.5,0.2,0.8,0.8,0.6,1.3l0,0c-0.2,0.4-0.5,0.7-0.9,0.7l0,0
									C-1436.8-167.1-1436.9-167.1-1437-167.1z M-1434.7-173.7c-0.5-0.2-0.8-0.8-0.6-1.3h0c0.2-0.5,0.8-0.8,1.3-0.6l0,0
									c0.5,0.2,0.8,0.8,0.6,1.3l0,0l0,0l0,0c-0.1,0.4-0.5,0.7-0.9,0.7l0,0C-1434.5-173.6-1434.6-173.7-1434.7-173.7z
									 M-1432.4-180.3c-0.5-0.2-0.8-0.8-0.6-1.3l0,0c0.2-0.5,0.8-0.8,1.3-0.6l0,0c0.5,0.2,0.8,0.8,0.6,1.3l0,0
									c-0.2,0.4-0.5,0.7-1,0.7l0,0C-1432.2-180.2-1432.3-180.2-1432.4-180.3z M-1430.1-186.8c-0.5-0.2-0.8-0.8-0.6-1.3l0,0
									c0.2-0.5,0.8-0.8,1.3-0.6l0,0c0.5,0.2,0.8,0.8,0.6,1.3l0,0c-0.1,0.4-0.5,0.7-0.9,0.7l0,0
									C-1429.9-186.8-1430-186.8-1430.1-186.8z M-1427.8-193.4c-0.5-0.2-0.8-0.8-0.6-1.3l0,0c0.2-0.5,0.8-0.8,1.3-0.6l0,0
									c0.5,0.2,0.8,0.8,0.6,1.3l0,0c-0.1,0.4-0.5,0.7-1,0.7l0,0C-1427.6-193.3-1427.7-193.4-1427.8-193.4z M-1425.5-199.9
									c-0.5-0.2-0.8-0.8-0.6-1.3l0,0c0.2-0.5,0.8-0.8,1.3-0.6l0,0c0.5,0.2,0.8,0.8,0.6,1.3l0,0c-0.1,0.4-0.5,0.7-0.9,0.7l0,0
									C-1425.3-199.9-1425.4-199.9-1425.5-199.9z"/>
							</g>
						</g>
						<g>
							<g>
								<path fill="#FFFFFF" d="M-1466.5-81.9c-0.3,0-0.5-0.1-0.7-0.3c-0.2-0.2-0.3-0.4-0.3-0.7c0-0.3,0.1-0.5,0.3-0.7
									c0.4-0.4,1-0.4,1.4,0c0.2,0.2,0.3,0.4,0.3,0.7c0,0.3-0.1,0.5-0.3,0.7C-1466-82-1466.2-81.9-1466.5-81.9z"/>
							</g>
						</g>
						<g>
							<g>
								<path fill="#FFFFFF" d="M-1466.4-82c-0.3,0-0.5-0.1-0.7-0.3c-0.2-0.2-0.3-0.5-0.3-0.7c0-0.3,0.1-0.5,0.3-0.7
									c0.4-0.4,1-0.4,1.4,0c0.2,0.2,0.3,0.4,0.3,0.7c0,0.3-0.1,0.5-0.3,0.7C-1465.9-82.1-1466.2-82-1466.4-82z"/>
							</g>
						</g>
						<g>
							<g>
								<path fill="#FFFFFF" d="M-1469.2-68.3c-0.1-0.5,0.3-1,0.9-1.1l0,0c0.5-0.1,1,0.3,1.1,0.9l0,0c0.1,0.5-0.3,1-0.9,1.1l0,0
									c0,0-0.1,0-0.1,0l0,0C-1468.7-67.4-1469.1-67.8-1469.2-68.3z M-1468.3-74.8c-0.5-0.1-0.9-0.6-0.9-1.1l0,0
									c0.1-0.6,0.6-0.9,1.1-0.9l0,0c0.5,0.1,0.9,0.6,0.9,1.1l0,0l0,0l0,0c-0.1,0.5-0.5,0.9-1,0.9l0,0
									C-1468.2-74.8-1468.2-74.8-1468.3-74.8z"/>
							</g>
						</g>
						<g>
							<g>
								<path fill="#FFFFFF" d="M-1466.5-60.2c-0.3,0-0.5-0.1-0.7-0.3c-0.2-0.2-0.3-0.4-0.3-0.7c0-0.3,0.1-0.5,0.3-0.7
									c0.4-0.4,1-0.4,1.4,0c0.2,0.2,0.3,0.4,0.3,0.7c0,0.3-0.1,0.5-0.3,0.7C-1466-60.3-1466.2-60.2-1466.5-60.2z"/>
							</g>
						</g>
						<g>
							<g>
								<path fill="#FFFFFF" d="M-1466.5-60.2c-0.3,0-0.5-0.1-0.7-0.3c-0.2-0.2-0.3-0.4-0.3-0.7c0-0.3,0.1-0.5,0.3-0.7
									c0.4-0.4,1-0.4,1.4,0c0.2,0.2,0.3,0.5,0.3,0.7c0,0.3-0.1,0.5-0.3,0.7C-1466-60.4-1466.3-60.2-1466.5-60.2z"/>
							</g>
						</g>
						<g>
							<g>
								<path fill="#FFFFFF" d="M-1426.3,57.3c-0.2-0.5,0.1-1.1,0.6-1.3l0,0c0.5-0.2,1.1,0.1,1.3,0.6l0,0c0.2,0.5-0.1,1.1-0.6,1.3
									l0,0c-0.1,0-0.2,0.1-0.3,0.1l0,0C-1425.7,58-1426.1,57.7-1426.3,57.3z M-1428.5,50.8c-0.2-0.5,0.1-1.1,0.6-1.3l0,0
									c0.5-0.2,1.1,0.1,1.3,0.6l0,0c0.2,0.5-0.1,1.1-0.6,1.3l0,0c-0.1,0-0.2,0-0.3,0l0,0C-1428,51.4-1428.4,51.2-1428.5,50.8z
									 M-1430.8,44.2c-0.2-0.5,0.1-1.1,0.6-1.3l0,0c0.5-0.2,1.1,0.1,1.3,0.6l0,0c0.2,0.5-0.1,1.1-0.6,1.3l0,0
									c-0.1,0-0.2,0.1-0.3,0.1l0,0C-1430.3,44.9-1430.7,44.6-1430.8,44.2z M-1433.1,37.6c-0.2-0.5,0.1-1.1,0.6-1.3l0,0
									c0.5-0.2,1.1,0.1,1.3,0.6l0,0c0.2,0.5-0.1,1.1-0.6,1.3l0,0c-0.1,0-0.2,0.1-0.3,0.1l0,0C-1432.6,38.3-1433,38-1433.1,37.6z
									 M-1435.4,31c-0.2-0.5,0.1-1.1,0.6-1.3l0,0c0.5-0.2,1.1,0.1,1.3,0.6l0,0c0.2,0.5-0.1,1.1-0.6,1.3l0,0
									c-0.1,0-0.2,0.1-0.3,0.1l0,0C-1434.9,31.7-1435.3,31.5-1435.4,31z M-1437.7,24.5c-0.2-0.5,0.1-1.1,0.6-1.3l0,0
									c0.5-0.2,1.1,0.1,1.3,0.6l0,0c0.2,0.5-0.1,1.1-0.6,1.3l0,0c-0.1,0-0.2,0.1-0.3,0.1l0,0
									C-1437.2,25.1-1437.6,24.9-1437.7,24.5z M-1440,17.9c-0.2-0.5,0.1-1.1,0.6-1.3l0,0c0.5-0.2,1.1,0.1,1.3,0.6l0,0
									c0.2,0.5-0.1,1.1-0.6,1.3l0,0c-0.1,0-0.2,0.1-0.3,0.1l0,0C-1439.5,18.6-1439.8,18.3-1440,17.9z M-1442.3,11.3
									c-0.2-0.5,0.1-1.1,0.6-1.3l0,0c0.5-0.2,1.1,0.1,1.3,0.6l0,0c0.2,0.5-0.1,1.1-0.6,1.3l0,0c-0.1,0-0.2,0.1-0.3,0.1l0,0
									C-1441.7,12-1442.1,11.7-1442.3,11.3z M-1444.6,4.8c-0.2-0.5,0.1-1.1,0.6-1.3l0,0c0.5-0.2,1.1,0.1,1.3,0.6l0,0
									c0.2,0.5-0.1,1.1-0.6,1.3l0,0c-0.1,0-0.2,0-0.3,0l0,0C-1444,5.4-1444.4,5.2-1444.6,4.8z M-1446.9-1.8
									c-0.2-0.5,0.1-1.1,0.6-1.3l0,0c0.5-0.2,1.1,0.1,1.3,0.6l0,0c0.2,0.5-0.1,1.1-0.6,1.3l0,0c-0.1,0-0.2,0.1-0.3,0.1l0,0
									C-1446.3-1.1-1446.7-1.4-1446.9-1.8z M-1449.1-8.4c-0.2-0.5,0.1-1.1,0.6-1.3l0,0c0.5-0.2,1.1,0.1,1.3,0.6l0,0
									c0.2,0.5-0.1,1.1-0.6,1.3l0,0c-0.1,0-0.2,0.1-0.3,0.1l0,0C-1448.6-7.7-1449-8-1449.1-8.4z M-1451.4-14.9L-1451.4-14.9
									c-0.2-0.5,0.1-1.1,0.6-1.3l0,0c0.5-0.2,1.1,0.1,1.3,0.6l0,0l0,0l0,0c0.2,0.5-0.1,1.1-0.6,1.3l0,0c-0.1,0-0.2,0.1-0.3,0.1
									l0,0C-1450.9-14.3-1451.3-14.5-1451.4-14.9z M-1453.7-21.5L-1453.7-21.5c-0.2-0.5,0.1-1.1,0.6-1.3l0,0
									c0.5-0.2,1.1,0.1,1.3,0.6l0,0c0.2,0.5-0.1,1.1-0.6,1.3l0,0c-0.1,0-0.2,0.1-0.3,0.1l0,0
									C-1453.2-20.8-1453.6-21.1-1453.7-21.5z M-1456-28.1c-0.2-0.5,0.1-1.1,0.6-1.3l0,0c0.5-0.2,1.1,0.1,1.3,0.6l0,0l0,0l0,0
									c0.2,0.5-0.1,1.1-0.6,1.3l0,0c-0.1,0-0.2,0.1-0.3,0.1l0,0C-1455.5-27.4-1455.9-27.7-1456-28.1z M-1458.3-34.7
									c-0.2-0.5,0.1-1.1,0.6-1.3l0,0c0.5-0.2,1.1,0.1,1.3,0.6l0,0c0.2,0.5-0.1,1.1-0.6,1.3l0,0c-0.1,0-0.2,0.1-0.3,0.1l0,0
									C-1457.8-34-1458.2-34.2-1458.3-34.7z M-1460.6-41.2c-0.2-0.5,0.1-1.1,0.6-1.3l0,0c0.5-0.2,1.1,0.1,1.3,0.6l0,0
									c0.2,0.5-0.1,1.1-0.6,1.3l0,0c-0.1,0-0.2,0.1-0.3,0.1l0,0C-1460.1-40.6-1460.5-40.8-1460.6-41.2z M-1462.9-47.8
									c-0.2-0.5,0.1-1.1,0.6-1.3l0,0c0.5-0.2,1.1,0.1,1.3,0.6l0,0c0.2,0.5-0.1,1.1-0.6,1.3l0,0c-0.1,0-0.2,0-0.3,0l0,0
									C-1462.4-47.1-1462.7-47.4-1462.9-47.8z M-1465.2-54.4c-0.2-0.5,0.1-1.1,0.6-1.3l0,0c0.5-0.2,1.1,0.1,1.3,0.6l0,0
									c0.2,0.5-0.1,1.1-0.6,1.3l0,0c-0.1,0-0.2,0-0.3,0l0,0C-1464.7-53.7-1465-53.9-1465.2-54.4z"/>
							</g>
						</g>
						<g>
							<g>
								<path fill="#FFFFFF" d="M-1423.1,64.5c-0.3,0-0.5-0.1-0.7-0.3c-0.2-0.2-0.3-0.4-0.3-0.7c0-0.3,0.1-0.5,0.3-0.7
									c0.4-0.4,1-0.4,1.4,0c0.2,0.2,0.3,0.4,0.3,0.7c0,0.3-0.1,0.5-0.3,0.7C-1422.5,64.4-1422.8,64.5-1423.1,64.5z"/>
							</g>
						</g>
						<g>
							<g>
								<path fill="#FFFFFF" d="M-1765.6,63.5c0-0.5,0.4-1,1-1l0,0c0.5,0,1,0.5,1,1l0,0c0,0.6-0.5,1-1,1l0,0
									C-1765.1,64.5-1765.6,64-1765.6,63.5z M-1772.5,63.5c0-0.5,0.5-1,1-1l0,0c0.6,0,1,0.5,1,1l0,0c0,0.6-0.4,1-1,1l0,0
									C-1772.1,64.5-1772.5,64-1772.5,63.5z M-1779.5,63.5c0-0.5,0.5-1,1-1l0,0c0.6,0,1,0.5,1,1l0,0c0,0.6-0.4,1-1,1l0,0
									C-1779.1,64.5-1779.5,64-1779.5,63.5z M-1786.5,63.5c0-0.5,0.5-1,1-1l0,0c0.6,0,1,0.5,1,1l0,0c0,0.6-0.4,1-1,1l0,0
									C-1786,64.5-1786.5,64-1786.5,63.5z M-1793.5,63.5c0-0.5,0.4-1,1-1l0,0c0.6,0,1,0.5,1,1l0,0c0,0.6-0.4,1-1,1l0,0
									C-1793,64.5-1793.4,64-1793.5,63.5z M-1800.4,63.5c0-0.5,0.4-1,1-1l0,0c0.6,0,1,0.5,1,1l0,0c0,0.6-0.5,1-1,1l0,0
									C-1800,64.5-1800.4,64-1800.4,63.5z M-1807.4,63.5c0-0.5,0.4-1,1-1l0,0c0.5,0,1,0.5,1,1l0,0c0,0.6-0.5,1-1,1l0,0
									C-1806.9,64.5-1807.4,64-1807.4,63.5z M-1814.4,63.5c0-0.5,0.5-1,1-1l0,0c0.5,0,1,0.5,1,1l0,0c0,0.6-0.5,1-1,1l0,0
									C-1813.9,64.5-1814.4,64-1814.4,63.5z M-1821.3,63.5c0-0.5,0.4-1,1-1l0,0c0.5,0,1,0.5,1,1l0,0c0,0.6-0.5,1-1,1l0,0
									C-1820.9,64.5-1821.3,64-1821.3,63.5z M-1828.3,63.5c0-0.5,0.5-1,1-1l0,0c0.6,0,1,0.5,1,1l0,0c0,0.6-0.4,1-1,1l0,0
									C-1827.8,64.5-1828.3,64-1828.3,63.5z M-1681.9,63.5c0-0.5,0.5-1,1-1l0,0c0.6,0,1,0.5,1,1l0,0c0,0.6-0.5,1-1,1l0,0
									C-1681.5,64.5-1681.9,64-1681.9,63.5z M-1688.9,63.5c0-0.5,0.4-1,1-1l0,0c0.6,0,1,0.5,1,1l0,0c0,0.6-0.5,1-1,1l0,0
									C-1688.5,64.5-1688.9,64-1688.9,63.5z M-1695.9,63.5c0-0.5,0.5-1,1-1l0,0c0.6,0,1,0.5,1,1l0,0c0,0.6-0.4,1-1,1l0,0
									C-1695.4,64.5-1695.9,64-1695.9,63.5z M-1702.8,63.5c0-0.5,0.5-1,1-1l0,0c0.5,0,1,0.5,1,1l0,0c0,0.6-0.5,1-1,1l0,0
									C-1702.4,64.5-1702.8,64-1702.8,63.5z M-1709.8,63.5c0-0.5,0.5-1,1-1l0,0c0.5,0,1,0.5,1,1l0,0c0,0.6-0.5,1-1,1l0,0
									C-1709.4,64.5-1709.8,64-1709.8,63.5z M-1716.8,63.5c0-0.5,0.4-1,1-1l0,0c0.5,0,1,0.5,1,1l0,0c0,0.6-0.5,1-1,1l0,0
									C-1716.3,64.5-1716.8,64-1716.8,63.5z M-1723.8,63.5c0-0.5,0.5-1,1-1l0,0c0.6,0,1,0.5,1,1l0,0c0,0.6-0.4,1-1,1l0,0
									C-1723.3,64.5-1723.8,64-1723.8,63.5z M-1730.7,63.5c0-0.5,0.5-1,1-1l0,0c0.5,0,1,0.5,1,1l0,0c0,0.6-0.5,1-1,1l0,0
									C-1730.3,64.5-1730.7,64-1730.7,63.5z M-1737.7,63.5c0-0.5,0.5-1,1-1l0,0c0.5,0,1,0.5,1,1l0,0c0,0.6-0.5,1-1,1l0,0
									C-1737.2,64.5-1737.7,64-1737.7,63.5z M-1744.7,63.5c0-0.5,0.4-1,1-1l0,0c0.5,0,1,0.5,1,1l0,0c0,0.6-0.5,1-1,1l0,0
									C-1744.2,64.5-1744.7,64-1744.7,63.5z M-1751.6,63.5c0-0.5,0.5-1,1-1l0,0c0.5,0,1,0.5,1,1l0,0c0,0.6-0.5,1-1,1l0,0
									C-1751.2,64.5-1751.6,64-1751.6,63.5z M-1758.6,63.5c0-0.5,0.5-1,1-1l0,0c0.5,0,1,0.5,1,1l0,0c0,0.6-0.5,1-1,1l0,0
									C-1758.2,64.5-1758.6,64-1758.6,63.5z M-1570.4,63.5c0-0.6,0.4-1,1-1l0,0c0.6,0,1,0.4,1,1l0,0c0,0.6-0.5,1-1,1l0,0
									C-1570,64.5-1570.4,64-1570.4,63.5z M-1577.4,63.5c0-0.6,0.5-1,1-1l0,0c0.5,0,1,0.4,1,1l0,0c0,0.6-0.5,1-1,1l0,0
									C-1577,64.5-1577.4,64-1577.4,63.5z M-1584.4,63.5c0-0.6,0.5-1,1-1l0,0c0.5,0,1,0.4,1,1l0,0c0,0.6-0.5,1-1,1l0,0
									C-1583.9,64.5-1584.4,64-1584.4,63.5z M-1591.3,63.5c0-0.6,0.5-1,1-1l0,0c0.6,0,1,0.4,1,1l0,0c0,0.6-0.4,1-1,1l0,0
									C-1590.9,64.5-1591.3,64-1591.3,63.5z M-1598.3,63.5c0-0.6,0.5-1,1-1l0,0c0.5,0,1,0.4,1,1l0,0c0,0.6-0.5,1-1,1l0,0
									C-1597.9,64.5-1598.3,64-1598.3,63.5z M-1605.3,63.5c0-0.6,0.4-1,1-1l0,0c0.5,0,1,0.4,1,1l0,0c0,0.6-0.5,1-1,1l0,0
									C-1604.8,64.5-1605.3,64-1605.3,63.5z M-1612.2,63.5c0-0.6,0.4-1,1-1l0,0c0.5,0,1,0.4,1,1l0,0c0,0.6-0.5,1-1,1l0,0
									C-1611.8,64.5-1612.2,64-1612.2,63.5z M-1619.2,63.5c0-0.6,0.5-1,1-1l0,0c0.6,0,1,0.4,1,1l0,0c0,0.6-0.4,1-1,1l0,0
									C-1618.8,64.5-1619.2,64-1619.2,63.5z M-1626.2,63.5c0-0.6,0.5-1,1-1l0,0c0.5,0,1,0.4,1,1l0,0c0,0.6-0.5,1-1,1l0,0
									C-1625.7,64.5-1626.2,64-1626.2,63.5z M-1633.2,63.5c0-0.5,0.5-1,1-1l0,0c0.5,0,1,0.5,1,1l0,0c0,0.6-0.5,1-1,1l0,0
									C-1632.7,64.5-1633.2,64-1633.2,63.5z M-1640.1,63.5c0-0.5,0.5-1,1-1l0,0c0.6,0,1,0.5,1,1l0,0c0,0.6-0.4,1-1,1l0,0
									C-1639.7,64.5-1640.1,64-1640.1,63.5z M-1647.1,63.5c0-0.5,0.5-1,1-1l0,0c0.5,0,1,0.5,1,1l0,0c0,0.6-0.5,1-1,1l0,0
									C-1646.6,64.5-1647.1,64-1647.1,63.5z M-1654.1,63.5c0-0.5,0.5-1,1-1l0,0c0.5,0,1,0.5,1,1l0,0c0,0.6-0.5,1-1,1l0,0
									C-1653.6,64.5-1654.1,64-1654.1,63.5z M-1661,63.5c0-0.5,0.4-1,1-1l0,0c0.6,0,1,0.5,1,1l0,0c0,0.6-0.4,1-1,1l0,0
									C-1660.6,64.5-1661,64-1661,63.5z M-1668,63.5c0-0.5,0.5-1,1-1l0,0c0.6,0,1,0.5,1,1l0,0c0,0.6-0.4,1-1,1l0,0
									C-1667.6,64.5-1668,64-1668,63.5z M-1675,63.5c0-0.5,0.5-1,1-1l0,0c0.6,0,1,0.5,1,1l0,0c0,0.6-0.4,1-1,1l0,0
									C-1674.5,64.5-1675,64-1675,63.5z M-1479.8,63.5c0-0.5,0.4-1,1-1l0,0c0.5,0,1,0.4,1,1l0,0c0,0.6-0.5,1-1,1l0,0
									C-1479.4,64.5-1479.8,64-1479.8,63.5z M-1486.8,63.5c0-0.5,0.4-1,1-1l0,0c0.6,0,1,0.4,1,1l0,0c0,0.6-0.4,1-1,1l0,0
									C-1486.4,64.5-1486.8,64-1486.8,63.5z M-1493.8,63.5c0-0.5,0.5-1,1-1l0,0c0.5,0,1,0.4,1,1l0,0c0,0.6-0.5,1-1,1l0,0
									C-1493.3,64.5-1493.8,64-1493.8,63.5z M-1500.7,63.5c0-0.6,0.5-1,1-1l0,0c0.5,0,1,0.4,1,1l0,0c0,0.6-0.5,1-1,1l0,0
									C-1500.3,64.5-1500.7,64-1500.7,63.5z M-1507.7,63.5c0-0.6,0.4-1,1-1l0,0c0.5,0,1,0.4,1,1l0,0c0,0.6-0.5,1-1,1l0,0
									C-1507.3,64.5-1507.7,64-1507.7,63.5z M-1514.7,63.5c0-0.6,0.5-1,1-1l0,0c0.5,0,1,0.4,1,1l0,0c0,0.6-0.5,1-1,1l0,0
									C-1514.2,64.5-1514.7,64-1514.7,63.5z M-1521.6,63.5c0-0.6,0.5-1,1-1l0,0c0.5,0,1,0.4,1,1l0,0c0,0.6-0.5,1-1,1l0,0
									C-1521.2,64.5-1521.6,64-1521.6,63.5z M-1528.6,63.5c0-0.6,0.5-1,1-1l0,0c0.5,0,1,0.4,1,1l0,0c0,0.6-0.5,1-1,1l0,0
									C-1528.2,64.5-1528.6,64-1528.6,63.5z M-1535.6,63.5c0-0.6,0.5-1,1-1l0,0c0.6,0,1,0.4,1,1l0,0c0,0.6-0.4,1-1,1l0,0
									C-1535.1,64.5-1535.6,64-1535.6,63.5z M-1542.6,63.5c0-0.6,0.5-1,1-1l0,0c0.6,0,1,0.4,1,1l0,0c0,0.6-0.4,1-1,1l0,0
									C-1542.1,64.5-1542.6,64-1542.6,63.5z M-1549.5,63.5c0-0.6,0.5-1,1-1l0,0c0.6,0,1,0.4,1,1l0,0c0,0.6-0.4,1-1,1l0,0
									C-1549.1,64.5-1549.5,64-1549.5,63.5z M-1556.5,63.5c0-0.6,0.4-1,1-1l0,0c0.6,0,1,0.4,1,1l0,0c0,0.6-0.4,1-1,1l0,0
									C-1556,64.5-1556.5,64-1556.5,63.5z M-1563.5,63.5c0-0.6,0.5-1,1-1l0,0c0.6,0,1,0.4,1,1l0,0c0,0.6-0.4,1-1,1l0,0
									C-1563,64.5-1563.5,64-1563.5,63.5z M-1431,63.5c0-0.5,0.5-1,1-1l0,0c0.6,0,1,0.5,1,1l0,0c0,0.6-0.4,1-1,1l0,0
									C-1430.6,64.5-1431,64-1431,63.5z M-1438,63.5c0-0.5,0.5-1,1-1l0,0c0.5,0,1,0.5,1,1l0,0c0,0.6-0.5,1-1,1l0,0
									C-1437.6,64.5-1438,64-1438,63.5z M-1445,63.5c0-0.5,0.5-1,1-1l0,0c0.6,0,1,0.5,1,1l0,0c0,0.6-0.4,1-1,1l0,0
									C-1444.5,64.5-1445,64-1445,63.5z M-1452,63.5c0-0.5,0.4-1,1-1l0,0c0.6,0,1,0.5,1,1l0,0c0,0.6-0.5,1-1,1l0,0
									C-1451.5,64.5-1452,64-1452,63.5z M-1458.9,63.5c0-0.5,0.5-1,1-1l0,0c0.6,0,1,0.4,1,1l0,0c0,0.6-0.4,1-1,1l0,0
									C-1458.5,64.5-1458.9,64-1458.9,63.5z M-1465.9,63.5c0-0.5,0.5-1,1-1l0,0c0.5,0,1,0.4,1,1l0,0c0,0.6-0.5,1-1,1l0,0
									C-1465.4,64.5-1465.9,64-1465.9,63.5z M-1472.9,63.5c0-0.5,0.5-1,1-1l0,0c0.5,0,1,0.4,1,1l0,0c0,0.6-0.5,1-1,1l0,0
									C-1472.4,64.5-1472.9,64-1472.9,63.5z"/>
							</g>
						</g>
					</g>
					<g>
						<g>
							<path d="M-1403.6,62.4l-0.3-1l-41.1-117.6l-3.5-9.9c-0.2-0.4-0.3-0.7-0.4-1.1c-0.5-1.5-0.9-3.1-0.9-4.8
								c0-1.7,0.3-3.3,0.9-4.8c0.1-0.4,0.2-0.7,0.4-1.1l2.6-7.4l42-120.3c0.7-1.8,1.2-3.7,1.2-5.7c0-8.1-6.6-14.7-14.7-14.7h-211.2
								h-17.2h-193.7v0c0,0,0,0,0,0c-0.1,0-0.3,0-0.4,0c-8.1,0-14.7,6.6-14.7,14.7c0,1.7,0.3,3.4,0.9,4.9l0.3,1l41.1,117.6l3.5,9.9
								c0.2,0.4,0.3,0.7,0.4,1.1c0.5,1.5,0.9,3.1,0.9,4.8c0,1.7-0.3,3.3-0.9,4.8c-0.1,0.4-0.2,0.7-0.4,1.1l-2.6,7.4l-42,120.3
								c-0.7,1.8-1.2,3.7-1.2,5.7c0,8.1,6.6,14.7,14.7,14.7h194.9h32.7h194.5l0,0c0.1,0,0.3,0,0.4,0c8.1,0,14.7-6.6,14.7-14.7
								C-1402.7,65.6-1403.1,64-1403.6,62.4z M-1417,74.5l-0.7,0l-27.2,0h-395c-3.9,0-7.1-3.2-7.1-7.2c0-1,0.2-1.9,0.6-2.8l0.2-0.5
								l44.5-127.4c0.2-0.4,0.3-0.8,0.4-1.2c0.9-2.6,1.3-5,1.3-7.4c0-2.4-0.4-4.7-1.3-7.2c-0.2-0.5-0.3-1-0.5-1.3l-44.9-128.4
								c-0.3-0.9-0.5-1.7-0.5-2.4c0-3.8,2.9-6.9,6.7-7.1l0.6,0l422.3,0c4,0,7.2,3.2,7.2,7.2c0,1-0.2,1.9-0.6,2.8l-0.2,0.5
								l-44.5,127.4c-0.2,0.4-0.3,0.8-0.4,1.2c-0.9,2.6-1.3,5-1.3,7.4c0,2.4,0.4,4.7,1.3,7.2c0.2,0.5,0.3,0.9,0.5,1.3l44.9,128.4
								c0.3,0.9,0.5,1.7,0.5,2.4C-1410.3,71.1-1413.2,74.2-1417,74.5z"/>
						</g>
					</g>
				</g>
				<g>
					<g>
						<polygon points="-1416.9,-151 -1443.9,-72 -1416.9,5.6 -1375.7,5.6 -1375.7,-151 						"/>
					</g>
				</g>
				<g>
					<g>
						<polygon fill="#303744" points="-1375.7,10.3 -1397.3,10.3 -1397.3,25.7 						"/>
					</g>
				</g>
				<g>
					<g>
						<polygon points="-1370.7,11.3 -1391,26.8 -1333.8,26.8 -1348.6,-58.1 -1333.8,-139 -1370.7,-139 						"/>
					</g>
				</g>
				<g>
					<g>
						<polygon points="-1840,-151 -1813.1,-72 -1840,5.6 -1881.2,5.6 -1881.2,-151 						"/>
					</g>
				</g>
				<g>
					<g>
						<polygon fill="#303744" points="-1881.2,10.3 -1859.7,10.3 -1859.7,25.7 						"/>
					</g>
				</g>
				<g>
					<g>
						<polygon points="-1887.3,11.2 -1867,26.6 -1924.2,26.6 -1909.4,-58.3 -1924.2,-139.2 -1887.3,-139.2 						"/>
					</g>
				</g>
			</g>
			<g>
				<g>
					<g>
						<path fill="#FFFFFF" d="M-1645.9-184h-16.8c-0.3,0-0.5-0.2-0.5-0.5c0-0.3,0.2-0.5,0.5-0.5h16.8c0.3,0,0.5,0.2,0.5,0.5
							C-1645.4-184.2-1645.7-184-1645.9-184z"/>
					</g>
				</g>
				<g>
					<g>
						<path fill="#FFFFFF" d="M-1594.6-184h-16.8c-0.3,0-0.5-0.2-0.5-0.5c0-0.3,0.2-0.5,0.5-0.5h16.8c0.3,0,0.5,0.2,0.5,0.5
							C-1594.1-184.2-1594.3-184-1594.6-184z"/>
					</g>
				</g>
				<g>
					<g>
						<g>
							<path fill="#FFFFFF" d="M-1639.1-183c-0.1,0.1-0.1,0.3,0,0.4c0.1,0.1,0.1,0.1,0.2,0.1c0.1,0,0.2,0,0.2-0.1l1.3-1.3l-0.4-0.4
								L-1639.1-183z"/>
						</g>
						<g>
							<path fill="#FFFFFF" d="M-1635.1-186c0.1-0.1,0.1-0.3,0-0.4c-0.1-0.1-0.3-0.1-0.4,0l-1.3,1.3l0.4,0.4L-1635.1-186z"/>
						</g>
						<g>
							<path fill="#FFFFFF" d="M-1638.7-186.5c-0.1-0.1-0.3-0.1-0.4,0c-0.1,0.1-0.1,0.3,0,0.4l3.5,3.5c0.1,0.1,0.1,0.1,0.2,0.1
								s0.2,0,0.2-0.1c0.1-0.1,0.1-0.3,0-0.4L-1638.7-186.5z"/>
						</g>
					</g>
					<g>
						<g>
							<path fill="#FFFFFF" d="M-1631.9-183c-0.1,0.1-0.1,0.3,0,0.4c0.1,0.1,0.1,0.1,0.2,0.1c0.1,0,0.2,0,0.2-0.1l1.3-1.3l-0.4-0.4
								L-1631.9-183z"/>
						</g>
						<g>
							<path fill="#FFFFFF" d="M-1627.9-186c0.1-0.1,0.1-0.3,0-0.4c-0.1-0.1-0.3-0.1-0.4,0l-1.3,1.3l0.4,0.4L-1627.9-186z"/>
						</g>
						<g>
							<path fill="#FFFFFF" d="M-1631.4-186.5c-0.1-0.1-0.3-0.1-0.4,0c-0.1,0.1-0.1,0.3,0,0.4l3.5,3.5c0.1,0.1,0.1,0.1,0.2,0.1
								s0.2,0,0.2-0.1c0.1-0.1,0.1-0.3,0-0.4L-1631.4-186.5z"/>
						</g>
					</g>
					<g>
						<g>
							<path fill="#FFFFFF" d="M-1624.6-183c-0.1,0.1-0.1,0.3,0,0.4c0.1,0.1,0.1,0.1,0.2,0.1c0.1,0,0.2,0,0.2-0.1l1.3-1.3l-0.4-0.4
								L-1624.6-183z"/>
						</g>
						<g>
							<path fill="#FFFFFF" d="M-1620.7-186c0.1-0.1,0.1-0.3,0-0.4c-0.1-0.1-0.3-0.1-0.4,0l-1.3,1.3l0.4,0.4L-1620.7-186z"/>
						</g>
						<g>
							<path fill="#FFFFFF" d="M-1624.2-186.5c-0.1-0.1-0.3-0.1-0.4,0c-0.1,0.1-0.1,0.3,0,0.4l3.5,3.5c0.1,0.1,0.1,0.1,0.2,0.1
								c0.1,0,0.2,0,0.2-0.1c0.1-0.1,0.1-0.3,0-0.4L-1624.2-186.5z"/>
						</g>
					</g>
				</g>
			</g>
			<g>
				<g>
					<g>
						<path fill="#FFFFFF" d="M-1645.9,41h-16.8c-0.3,0-0.5-0.2-0.5-0.5c0-0.3,0.2-0.5,0.5-0.5h16.8c0.3,0,0.5,0.2,0.5,0.5
							C-1645.4,40.8-1645.7,41-1645.9,41z"/>
					</g>
				</g>
				<g>
					<g>
						<path fill="#FFFFFF" d="M-1594.6,41h-16.8c-0.3,0-0.5-0.2-0.5-0.5c0-0.3,0.2-0.5,0.5-0.5h16.8c0.3,0,0.5,0.2,0.5,0.5
							C-1594.1,40.8-1594.3,41-1594.6,41z"/>
					</g>
				</g>
				<g>
					<g>
						<g>
							<path fill="#FFFFFF" d="M-1639.1,42c-0.1,0.1-0.1,0.3,0,0.4c0.1,0.1,0.1,0.1,0.2,0.1c0.1,0,0.2,0,0.2-0.1l1.3-1.3l-0.4-0.4
								L-1639.1,42z"/>
						</g>
						<g>
							<path fill="#FFFFFF" d="M-1635.1,39c0.1-0.1,0.1-0.3,0-0.4c-0.1-0.1-0.3-0.1-0.4,0l-1.3,1.3l0.4,0.4L-1635.1,39z"/>
						</g>
						<g>
							<path fill="#FFFFFF" d="M-1638.7,38.5c-0.1-0.1-0.3-0.1-0.4,0c-0.1,0.1-0.1,0.3,0,0.4l3.5,3.5c0.1,0.1,0.1,0.1,0.2,0.1
								s0.2,0,0.2-0.1c0.1-0.1,0.1-0.3,0-0.4L-1638.7,38.5z"/>
						</g>
					</g>
					<g>
						<g>
							<path fill="#FFFFFF" d="M-1631.9,42c-0.1,0.1-0.1,0.3,0,0.4c0.1,0.1,0.1,0.1,0.2,0.1c0.1,0,0.2,0,0.2-0.1l1.3-1.3l-0.4-0.4
								L-1631.9,42z"/>
						</g>
						<g>
							<path fill="#FFFFFF" d="M-1627.9,39c0.1-0.1,0.1-0.3,0-0.4c-0.1-0.1-0.3-0.1-0.4,0l-1.3,1.3l0.4,0.4L-1627.9,39z"/>
						</g>
						<g>
							<path fill="#FFFFFF" d="M-1631.4,38.5c-0.1-0.1-0.3-0.1-0.4,0c-0.1,0.1-0.1,0.3,0,0.4l3.5,3.5c0.1,0.1,0.1,0.1,0.2,0.1
								s0.2,0,0.2-0.1c0.1-0.1,0.1-0.3,0-0.4L-1631.4,38.5z"/>
						</g>
					</g>
					<g>
						<g>
							<path fill="#FFFFFF" d="M-1624.6,42c-0.1,0.1-0.1,0.3,0,0.4c0.1,0.1,0.1,0.1,0.2,0.1c0.1,0,0.2,0,0.2-0.1l1.3-1.3l-0.4-0.4
								L-1624.6,42z"/>
						</g>
						<g>
							<path fill="#FFFFFF" d="M-1620.7,39c0.1-0.1,0.1-0.3,0-0.4c-0.1-0.1-0.3-0.1-0.4,0l-1.3,1.3l0.4,0.4L-1620.7,39z"/>
						</g>
						<g>
							<path fill="#FFFFFF" d="M-1624.2,38.5c-0.1-0.1-0.3-0.1-0.4,0c-0.1,0.1-0.1,0.3,0,0.4l3.5,3.5c0.1,0.1,0.1,0.1,0.2,0.1
								c0.1,0,0.2,0,0.2-0.1c0.1-0.1,0.1-0.3,0-0.4L-1624.2,38.5z"/>
						</g>
					</g>
				</g>
			</g>
			<g>
				<polygon fill="#FFFFFF" points="-1842.5,-68.3 -1846.9,-72 -1834.7,-77.1 -1857.8,-77.1 -1853.4,-73.4 -1865.6,-68.3 				"/>
			</g>
			<g>
				<polygon fill="#FFFFFF" points="-1414.4,-68.3 -1410.1,-72 -1422.3,-77.1 -1399.2,-77.1 -1403.5,-73.4 -1391.4,-68.3 				"/>
			</g>
		</g>
		<g>
			<polygon fill="#FFFFFF" points="-1619.6,-38.2 -1618.7,-39.2 -1619.4,-39.4 -1619.4,-39.4 -1619.7,-39.8 -1619.8,-39.8 
				-1620,-40.5 -1620.9,-39.6 -1620.7,-38.8 -1628.7,-30.9 -1636.6,-38.8 -1636.4,-39.6 -1637.4,-40.5 -1637.6,-39.8 -1637.6,-39.8 
				-1638,-39.4 -1637.9,-39.4 -1638.7,-39.2 -1637.7,-38.2 -1637,-38.4 -1629,-30.5 -1636.9,-22.7 -1637.1,-23.5 -1638.1,-21 
				-1635.6,-22.1 -1636.5,-22.3 -1628.7,-30.1 -1620.9,-22.3 -1621.7,-22.1 -1619.2,-21 -1620.3,-23.5 -1620.5,-22.7 -1628.3,-30.5 
				-1620.4,-38.4 			"/>
		</g>
		<g>
			<polygon fill="#FFFFFF" points="-1619.6,-106.3 -1618.7,-105.4 -1619.4,-105.2 -1619.4,-105.1 -1619.7,-104.7 -1619.8,-104.8 
				-1620,-104 -1620.9,-105 -1620.7,-105.7 -1628.7,-113.7 -1636.6,-105.7 -1636.4,-105 -1637.4,-104 -1637.6,-104.8 
				-1637.6,-104.7 -1638,-105.1 -1637.9,-105.2 -1638.7,-105.4 -1637.7,-106.3 -1637,-106.1 -1629,-114 -1636.9,-121.9 
				-1637.1,-121 -1638.1,-123.5 -1635.6,-122.5 -1636.5,-122.2 -1628.7,-114.4 -1620.9,-122.2 -1621.7,-122.5 -1619.2,-123.5 
				-1620.3,-121 -1620.5,-121.9 -1628.3,-114 -1620.4,-106.1 			"/>
		</g>
	</g>
	<g>
		<path id="SVGID_x5F_5_x5F_" fill="none" d="M-1796.5,35.5c0-99,75.9-179.3,169.4-179.3c93.6,0,169.4,80.3,169.4,179.3"/>
		<text>		<textPath  xlink:href="#SVGID_x5F_5_x5F_" startOffset="35.857%">
<tspan  fill="#FFFFFF" font-family="'Lato-Black'" font-size="24" letter-spacing="300">PREMIUM</tspan>		</textPath>
</text>
	</g>
	<g>
		<path id="SVGID_x5F_6_x5F_" fill="none" d="M-1798.1-156.1c0,99,75.9,179.3,169.4,179.3c93.6,0,169.4-80.3,169.4-179.3"/>
		<text>		<textPath  xlink:href="#SVGID_x5F_6_x5F_" startOffset="32.617%">
<tspan  fill="#FFFFFF" font-family="'Lato-Black'" font-size="28.1241" letter-spacing="300">CLOTHES</tspan>		</textPath>
</text>
	</g>
	<text transform="matrix(1 0 0 1 -1728.3333 -63.8238)"><tspan x="0" y="0" fill="#FFFFFF" font-family="'OldStyle1HPLHS'" font-size="20" letter-spacing="10">MENSWEA</tspan><tspan x="157.9" y="0" fill="#FFFFFF" font-family="'OldStyle1HPLHS'" font-size="20">R</tspan></text>
</g>
<g>
	<g>
		<g>
			<path d="M-737.6,152.2h-3.7v5.9h3.7c1.7,0,3.1-1.3,3.1-3.1C-734.5,153.5-735.9,152.2-737.6,152.2z"/>
		</g>
		<g>
			<path d="M-931.1,152.3c-4.2,0-7.7,3.5-7.7,7.8c0,4.2,3.5,7.7,7.7,7.7c4.3,0,7.8-3.5,7.8-7.7
				C-923.4,155.9-926.9,152.3-931.1,152.3z"/>
		</g>
		<g>
			<polygon points="-670.6,158 -673.6,164.4 -667.7,164.4 -670.6,158 			"/>
		</g>
		<g>
			<path d="M-1013.9,121.2v78.6h450v-78.6H-1013.9z M-968.5,167.9c1.8,0,3.8-0.7,5.2-1.9c0.3-0.2,0.8-0.2,1,0l3,3.2
				c0.3,0.3,0.2,0.8,0,1c-2.6,2.6-6,3.8-9.4,3.8c-7.8,0-14-6.2-14-14s6.3-14,14-14c3.9,0,6.8,1.2,9.4,3.6c0.3,0.3,0.3,0.8,0,1.1
				l-3,3.1c-0.3,0.3-0.7,0.3-1,0c-1.4-1.3-3.3-2-5.2-2c-4.4,0-7.6,3.7-7.6,8C-976.2,164.3-972.9,167.9-968.5,167.9z M-931.1,174.1
				c-7.8,0-14-6.2-14-14s6.2-14,14-14c7.8,0,14,6.3,14,14S-923.4,174.1-931.1,174.1z M-877.4,173.4c0,0.4-0.3,0.7-0.7,0.7h-0.6
				c-0.1,0-0.4-0.1-0.5-0.2l-15.4-15.4h0V173c0,0.4-0.3,0.7-0.7,0.7h-4.6c-0.4,0-0.7-0.3-0.7-0.7l0-26.2c0-0.4,0.4-0.7,0.7-0.7h1
				l15.5,14.9h0v-13.8c0-0.4,0.3-0.7,0.7-0.7h4.7c0.4,0,0.7,0.4,0.7,0.7V173.4z M-843.1,151.5c0,0.4-0.3,0.7-0.7,0.7h-5.6V173
				c0,0.4-0.3,0.7-0.7,0.7h-4.7c-0.4,0-0.7-0.3-0.7-0.7v-20.8h-5.6c-0.4,0-0.7-0.4-0.7-0.7v-4.2c0-0.4,0.3-0.7,0.7-0.7h17.3
				c0.4,0,0.7,0.4,0.7,0.7V151.5z M-810,151.5c0,0.4-0.3,0.7-0.7,0.7h-10.8v4.8h8.9c0.4,0,0.7,0.4,0.7,0.7v4.2
				c0,0.4-0.3,0.7-0.7,0.7h-8.9v5.2h10.8c0.4,0,0.7,0.3,0.7,0.7v4.2c0,0.4-0.3,0.7-0.7,0.7h-16.1c-0.4,0-0.7-0.3-0.7-0.7v-25.7
				c0-0.4,0.3-0.7,0.7-0.7h16.1c0.4,0,0.7,0.4,0.7,0.7V151.5z M-764.7,173.7h-4.6c-0.3,0-0.7-0.3-0.7-0.6l-1.7-12h-0.1l-6.5,12.6
				c-0.1,0.2-0.5,0.4-0.7,0.4h-0.7c-0.2,0-0.5-0.2-0.7-0.4l-6.6-12.6h-0.1l-1.7,12c0,0.3-0.4,0.6-0.7,0.6h-4.6
				c-0.5,0-0.8-0.3-0.7-0.9l4.4-26.1c0-0.3,0.4-0.6,0.7-0.6h0.6c0.2,0,0.5,0.2,0.7,0.4l9,16.8h0.1l9-16.8c0.1-0.2,0.5-0.4,0.7-0.4
				h0.6c0.3,0,0.7,0.3,0.7,0.6l4.4,26.1C-763.9,173.4-764.3,173.7-764.7,173.7z M-737.2,163.8h-4.1v9.1c0,0.4-0.3,0.7-0.7,0.7h-4.6
				c-0.4,0-0.7-0.3-0.7-0.7v-25.7c0-0.4,0.3-0.7,0.7-0.7h9.4c4.8,0,8.7,3.9,8.7,8.6C-728.6,159.9-732.5,163.8-737.2,163.8z
				 M-696.8,173c0,0.4-0.3,0.7-0.7,0.7h-14.6c-0.4,0-0.7-0.3-0.7-0.7v-25.7c0-0.4,0.3-0.7,0.7-0.7h4.6c0.4,0,0.7,0.4,0.7,0.7V168
				h9.2c0.4,0,0.7,0.3,0.7,0.7V173z M-658.2,173.7h-4.3c-0.7,0-1-0.2-1.4-1l-1.4-3.1h-10.6l-1.4,3.1c-0.2,0.5-0.6,0.9-1.4,0.9h-4.3
				c-0.6,0-0.9-0.5-0.7-1l12.2-26.2c0.1-0.2,0.4-0.4,0.7-0.4h0.4c0.3,0,0.5,0.2,0.7,0.4l12.2,26.2
				C-657.4,173.2-657.7,173.7-658.2,173.7z M-628.2,151.5c0,0.4-0.3,0.7-0.7,0.7h-5.6V173c0,0.4-0.3,0.7-0.7,0.7h-4.7
				c-0.4,0-0.7-0.3-0.7-0.7v-20.8h-5.6c-0.4,0-0.7-0.4-0.7-0.7v-4.2c0-0.4,0.3-0.7,0.7-0.7h17.3c0.4,0,0.7,0.4,0.7,0.7V151.5z
				 M-595.1,151.5c0,0.4-0.3,0.7-0.7,0.7h-10.8v4.8h8.9c0.4,0,0.7,0.4,0.7,0.7v4.2c0,0.4-0.3,0.7-0.7,0.7h-8.9v5.2h10.8
				c0.4,0,0.7,0.3,0.7,0.7v4.2c0,0.4-0.3,0.7-0.7,0.7h-16.1c-0.4,0-0.7-0.3-0.7-0.7v-25.7c0-0.4,0.3-0.7,0.7-0.7h16.1
				c0.4,0,0.7,0.4,0.7,0.7V151.5z"/>
		</g>
	</g>
	<g>
		<path d="M-687.8,109.6L-687.8,109.6l-29.7-51.3l-18.4,31.9L-787.9,0l-51.6,89.4l-18-31.2l-29.6,51.3h0l-3.7,6.5h19.9h186.8
			L-687.8,109.6z M-717.5,73.5l9.8,17l-9.8-1.4l-9.8,1.4L-717.5,73.5z M-787.9,15.2l22.7,39.3l-22.7-2.2l-22.7,2.2L-787.9,15.2z
			 M-857.5,73.5l9.8,17l-9.8-1.4l-9.8,1.4L-857.5,73.5z"/>
	</g>
</g>
<g>
	<g>
		<g>
			<path fill="#D61679" d="M276.3,152.2h-3.7v5.9h3.7c1.7,0,3.1-1.3,3.1-3.1C279.4,153.5,278,152.2,276.3,152.2z"/>
		</g>
		<g>
			<path fill="#D61679" d="M82.8,152.3c-4.2,0-7.7,3.5-7.7,7.8c0,4.2,3.5,7.7,7.7,7.7c4.3,0,7.8-3.5,7.8-7.7
				C90.6,155.9,87.1,152.3,82.8,152.3z"/>
		</g>
		<g>
			<polygon fill="#D61679" points="343.3,158 340.4,164.4 346.3,164.4 343.3,158 			"/>
		</g>
		<g>
			<path fill="#D61679" d="M0,121.2v78.6h450v-78.6H0z M45.4,167.9c1.8,0,3.8-0.7,5.2-1.9c0.3-0.2,0.8-0.2,1,0l3,3.2
				c0.3,0.3,0.2,0.8,0,1c-2.6,2.6-6,3.8-9.4,3.8c-7.8,0-14-6.2-14-14s6.3-14,14-14c3.9,0,6.8,1.2,9.4,3.6c0.3,0.3,0.3,0.8,0,1.1
				l-3,3.1c-0.3,0.3-0.7,0.3-1,0c-1.4-1.3-3.3-2-5.2-2c-4.4,0-7.6,3.7-7.6,8C37.8,164.3,41,167.9,45.4,167.9z M82.8,174.1
				c-7.8,0-14-6.2-14-14s6.2-14,14-14c7.8,0,14,6.3,14,14S90.6,174.1,82.8,174.1z M136.5,173.4c0,0.4-0.3,0.7-0.7,0.7h-0.6
				c-0.1,0-0.4-0.1-0.5-0.2l-15.4-15.4h0V173c0,0.4-0.3,0.7-0.7,0.7h-4.6c-0.4,0-0.7-0.3-0.7-0.7l0-26.2c0-0.4,0.4-0.7,0.7-0.7h1
				l15.5,14.9h0v-13.8c0-0.4,0.3-0.7,0.7-0.7h4.7c0.4,0,0.7,0.4,0.7,0.7V173.4z M170.8,151.5c0,0.4-0.3,0.7-0.7,0.7h-5.6V173
				c0,0.4-0.3,0.7-0.7,0.7h-4.7c-0.4,0-0.7-0.3-0.7-0.7v-20.8h-5.6c-0.4,0-0.7-0.4-0.7-0.7v-4.2c0-0.4,0.3-0.7,0.7-0.7h17.3
				c0.4,0,0.7,0.4,0.7,0.7V151.5z M203.9,151.5c0,0.4-0.3,0.7-0.7,0.7h-10.8v4.8h8.9c0.4,0,0.7,0.4,0.7,0.7v4.2
				c0,0.4-0.3,0.7-0.7,0.7h-8.9v5.2h10.8c0.4,0,0.7,0.3,0.7,0.7v4.2c0,0.4-0.3,0.7-0.7,0.7h-16.1c-0.4,0-0.7-0.3-0.7-0.7v-25.7
				c0-0.4,0.3-0.7,0.7-0.7h16.1c0.4,0,0.7,0.4,0.7,0.7V151.5z M249.2,173.7h-4.6c-0.3,0-0.7-0.3-0.7-0.6l-1.7-12H242l-6.5,12.6
				c-0.1,0.2-0.5,0.4-0.7,0.4h-0.7c-0.2,0-0.5-0.2-0.7-0.4l-6.6-12.6h-0.1l-1.7,12c0,0.3-0.4,0.6-0.7,0.6h-4.6
				c-0.5,0-0.8-0.3-0.7-0.9l4.4-26.1c0-0.3,0.4-0.6,0.7-0.6h0.6c0.2,0,0.5,0.2,0.7,0.4l9,16.8h0.1l9-16.8c0.1-0.2,0.5-0.4,0.7-0.4
				h0.6c0.3,0,0.7,0.3,0.7,0.6l4.4,26.1C250,173.4,249.7,173.7,249.2,173.7z M276.7,163.8h-4.1v9.1c0,0.4-0.3,0.7-0.7,0.7h-4.6
				c-0.4,0-0.7-0.3-0.7-0.7v-25.7c0-0.4,0.3-0.7,0.7-0.7h9.4c4.8,0,8.7,3.9,8.7,8.6C285.4,159.9,281.5,163.8,276.7,163.8z
				 M317.1,173c0,0.4-0.3,0.7-0.7,0.7h-14.6c-0.4,0-0.7-0.3-0.7-0.7v-25.7c0-0.4,0.3-0.7,0.7-0.7h4.6c0.4,0,0.7,0.4,0.7,0.7V168h9.2
				c0.4,0,0.7,0.3,0.7,0.7V173z M355.7,173.7h-4.3c-0.7,0-1-0.2-1.4-1l-1.4-3.1h-10.6l-1.4,3.1c-0.2,0.5-0.6,0.9-1.4,0.9H331
				c-0.6,0-0.9-0.5-0.7-1l12.2-26.2c0.1-0.2,0.4-0.4,0.7-0.4h0.4c0.3,0,0.5,0.2,0.7,0.4l12.2,26.2
				C356.6,173.2,356.3,173.7,355.7,173.7z M385.7,151.5c0,0.4-0.3,0.7-0.7,0.7h-5.6V173c0,0.4-0.3,0.7-0.7,0.7H374
				c-0.4,0-0.7-0.3-0.7-0.7v-20.8h-5.6c-0.4,0-0.7-0.4-0.7-0.7v-4.2c0-0.4,0.3-0.7,0.7-0.7H385c0.4,0,0.7,0.4,0.7,0.7V151.5z
				 M418.9,151.5c0,0.4-0.3,0.7-0.7,0.7h-10.8v4.8h8.9c0.4,0,0.7,0.4,0.7,0.7v4.2c0,0.4-0.3,0.7-0.7,0.7h-8.9v5.2h10.8
				c0.4,0,0.7,0.3,0.7,0.7v4.2c0,0.4-0.3,0.7-0.7,0.7H402c-0.4,0-0.7-0.3-0.7-0.7v-25.7c0-0.4,0.3-0.7,0.7-0.7h16.1
				c0.4,0,0.7,0.4,0.7,0.7V151.5z"/>
		</g>
	</g>
	<g>
		<path fill="#D61679" d="M326.2,109.6L326.2,109.6l-29.7-51.3l-18.4,31.9L226,0l-51.6,89.4l-18-31.2l-29.6,51.3h0l-3.7,6.5H143
			h186.8L326.2,109.6z M296.5,73.5l9.8,17l-9.8-1.4l-9.8,1.4L296.5,73.5z M226,15.2l22.7,39.3L226,52.3l-22.7,2.2L226,15.2z
			 M156.4,73.5l9.8,17l-9.8-1.4l-9.8,1.4L156.4,73.5z"/>
	</g>
</g>
<g>
	<g>
		<g>
			<path fill="#FFFFFF" d="M-248.6,152.2h-3.7v5.9h3.7c1.7,0,3.1-1.3,3.1-3.1C-245.6,153.5-247,152.2-248.6,152.2z"/>
		</g>
		<g>
			<path fill="#FFFFFF" d="M-442.2,152.3c-4.2,0-7.7,3.5-7.7,7.8c0,4.2,3.5,7.7,7.7,7.7c4.3,0,7.8-3.5,7.8-7.7
				C-434.4,155.9-437.9,152.3-442.2,152.3z"/>
		</g>
		<g>
			<polygon fill="#FFFFFF" points="-181.7,158 -184.6,164.4 -178.7,164.4 -181.6,158 			"/>
		</g>
		<g>
			<path fill="#FFFFFF" d="M-525,121.2v78.6h450v-78.6H-525z M-479.6,167.9c1.8,0,3.8-0.7,5.2-1.9c0.3-0.2,0.8-0.2,1,0l3,3.2
				c0.3,0.3,0.2,0.8,0,1c-2.6,2.6-6,3.8-9.4,3.8c-7.8,0-14-6.2-14-14s6.3-14,14-14c3.9,0,6.8,1.2,9.4,3.6c0.3,0.3,0.3,0.8,0,1.1
				l-3,3.1c-0.3,0.3-0.7,0.3-1,0c-1.4-1.3-3.3-2-5.2-2c-4.4,0-7.6,3.7-7.6,8C-487.2,164.3-483.9,167.9-479.6,167.9z M-442.2,174.1
				c-7.8,0-14-6.2-14-14s6.2-14,14-14c7.8,0,14,6.3,14,14S-434.4,174.1-442.2,174.1z M-388.5,173.4c0,0.4-0.3,0.7-0.7,0.7h-0.6
				c-0.1,0-0.4-0.1-0.5-0.2l-15.4-15.4h0V173c0,0.4-0.3,0.7-0.7,0.7h-4.6c-0.4,0-0.7-0.3-0.7-0.7l0-26.2c0-0.4,0.4-0.7,0.7-0.7h1
				l15.5,14.9h0v-13.8c0-0.4,0.3-0.7,0.7-0.7h4.7c0.4,0,0.7,0.4,0.7,0.7V173.4z M-354.2,151.5c0,0.4-0.3,0.7-0.7,0.7h-5.6V173
				c0,0.4-0.3,0.7-0.7,0.7h-4.7c-0.4,0-0.7-0.3-0.7-0.7v-20.8h-5.6c-0.4,0-0.7-0.4-0.7-0.7v-4.2c0-0.4,0.3-0.7,0.7-0.7h17.3
				c0.4,0,0.7,0.4,0.7,0.7V151.5z M-321.1,151.5c0,0.4-0.3,0.7-0.7,0.7h-10.8v4.8h8.9c0.4,0,0.7,0.4,0.7,0.7v4.2
				c0,0.4-0.3,0.7-0.7,0.7h-8.9v5.2h10.8c0.4,0,0.7,0.3,0.7,0.7v4.2c0,0.4-0.3,0.7-0.7,0.7h-16.1c-0.4,0-0.7-0.3-0.7-0.7v-25.7
				c0-0.4,0.3-0.7,0.7-0.7h16.1c0.4,0,0.7,0.4,0.7,0.7V151.5z M-275.8,173.7h-4.6c-0.3,0-0.7-0.3-0.7-0.6l-1.7-12h-0.1l-6.5,12.6
				c-0.1,0.2-0.5,0.4-0.7,0.4h-0.7c-0.2,0-0.5-0.2-0.7-0.4l-6.6-12.6h-0.1l-1.7,12c0,0.3-0.4,0.6-0.7,0.6h-4.6
				c-0.5,0-0.8-0.3-0.7-0.9l4.4-26.1c0-0.3,0.4-0.6,0.7-0.6h0.6c0.2,0,0.5,0.2,0.7,0.4l9,16.8h0.1l9-16.8c0.1-0.2,0.5-0.4,0.7-0.4
				h0.6c0.3,0,0.7,0.3,0.7,0.6l4.4,26.1C-275,173.4-275.3,173.7-275.8,173.7z M-248.3,163.8h-4.1v9.1c0,0.4-0.3,0.7-0.7,0.7h-4.6
				c-0.4,0-0.7-0.3-0.7-0.7v-25.7c0-0.4,0.3-0.7,0.7-0.7h9.4c4.8,0,8.7,3.9,8.7,8.6C-239.6,159.9-243.5,163.8-248.3,163.8z
				 M-207.9,173c0,0.4-0.3,0.7-0.7,0.7h-14.6c-0.4,0-0.7-0.3-0.7-0.7v-25.7c0-0.4,0.3-0.7,0.7-0.7h4.6c0.4,0,0.7,0.4,0.7,0.7V168
				h9.2c0.4,0,0.7,0.3,0.7,0.7V173z M-169.3,173.7h-4.3c-0.7,0-1-0.2-1.4-1l-1.4-3.1h-10.6l-1.4,3.1c-0.2,0.5-0.6,0.9-1.4,0.9h-4.3
				c-0.6,0-0.9-0.5-0.7-1l12.2-26.2c0.1-0.2,0.4-0.4,0.7-0.4h0.4c0.3,0,0.5,0.2,0.7,0.4l12.2,26.2
				C-168.4,173.2-168.7,173.7-169.3,173.7z M-139.2,151.5c0,0.4-0.3,0.7-0.7,0.7h-5.6V173c0,0.4-0.3,0.7-0.7,0.7h-4.7
				c-0.4,0-0.7-0.3-0.7-0.7v-20.8h-5.6c-0.4,0-0.7-0.4-0.7-0.7v-4.2c0-0.4,0.3-0.7,0.7-0.7h17.3c0.4,0,0.7,0.4,0.7,0.7V151.5z
				 M-106.1,151.5c0,0.4-0.3,0.7-0.7,0.7h-10.8v4.8h8.9c0.4,0,0.7,0.4,0.7,0.7v4.2c0,0.4-0.3,0.7-0.7,0.7h-8.9v5.2h10.8
				c0.4,0,0.7,0.3,0.7,0.7v4.2c0,0.4-0.3,0.7-0.7,0.7h-16.1c-0.4,0-0.7-0.3-0.7-0.7v-25.7c0-0.4,0.3-0.7,0.7-0.7h16.1
				c0.4,0,0.7,0.4,0.7,0.7V151.5z"/>
		</g>
	</g>
	<g>
		<path fill="#FFFFFF" d="M-198.8,109.6L-198.8,109.6l-29.7-51.3l-18.4,31.9L-299,0l-51.6,89.4l-18-31.2l-29.6,51.3h0l-3.7,6.5h19.9
			h186.8L-198.8,109.6z M-228.5,73.5l9.8,17l-9.8-1.4l-9.8,1.4L-228.5,73.5z M-299,15.2l22.7,39.3l-22.7-2.2l-22.7,2.2L-299,15.2z
			 M-368.6,73.5l9.8,17l-9.8-1.4l-9.8,1.4L-368.6,73.5z"/>
	</g>
</g>
</svg>
