<?xml version="1.0" encoding="utf-8"?>
<!-- Generator: Adobe Illustrator 18.0.0, SVG Export Plug-In . SVG Version: 6.00 Build 0)  -->
<!DOCTYPE svg PUBLIC "-//W3C//DTD SVG 1.1//EN" "http://www.w3.org/Graphics/SVG/1.1/DTD/svg11.dtd">
<svg version="1.1" id="Layer_1" xmlns="http://www.w3.org/2000/svg" xmlns:xlink="http://www.w3.org/1999/xlink" x="0px" y="0px"
	 viewBox="0 0 450 199.8" enable-background="new 0 0 450 199.8" xml:space="preserve">
<g>
	<g>
		<g>
			<path d="M276.3,152.2h-3.7v5.9h3.7c1.7,0,3.1-1.3,3.1-3.1C279.4,153.5,278,152.2,276.3,152.2z"/>
		</g>
		<g>
			<path d="M82.8,152.3c-4.2,0-7.7,3.5-7.7,7.8c0,4.2,3.5,7.7,7.7,7.7c4.3,0,7.8-3.5,7.8-7.7C90.6,155.9,87.1,152.3,82.8,152.3z"/>
		</g>
		<g>
			<polygon points="343.3,158 340.4,164.4 346.3,164.4 343.3,158 			"/>
		</g>
		<g>
			<path d="M0,121.2v78.6h450v-78.6H0z M45.4,167.9c1.8,0,3.8-0.7,5.2-1.9c0.3-0.2,0.8-0.2,1,0l3,3.2c0.3,0.3,0.2,0.8,0,1
				c-2.6,2.6-6,3.8-9.4,3.8c-7.8,0-14-6.2-14-14s6.3-14,14-14c3.9,0,6.8,1.2,9.4,3.6c0.3,0.3,0.3,0.8,0,1.1l-3,3.1
				c-0.3,0.3-0.7,0.3-1,0c-1.4-1.3-3.3-2-5.2-2c-4.4,0-7.6,3.7-7.6,8C37.8,164.3,41,167.9,45.4,167.9z M82.8,174.1
				c-7.8,0-14-6.2-14-14s6.2-14,14-14c7.8,0,14,6.3,14,14S90.6,174.1,82.8,174.1z M136.5,173.4c0,0.4-0.3,0.7-0.7,0.7h-0.6
				c-0.1,0-0.4-0.1-0.5-0.2l-15.4-15.4h0V173c0,0.4-0.3,0.7-0.7,0.7h-4.6c-0.4,0-0.7-0.3-0.7-0.7l0-26.2c0-0.4,0.4-0.7,0.7-0.7h1
				l15.5,14.9h0v-13.8c0-0.4,0.3-0.7,0.7-0.7h4.7c0.4,0,0.7,0.4,0.7,0.7V173.4z M170.8,151.5c0,0.4-0.3,0.7-0.7,0.7h-5.6V173
				c0,0.4-0.3,0.7-0.7,0.7h-4.7c-0.4,0-0.7-0.3-0.7-0.7v-20.8h-5.6c-0.4,0-0.7-0.4-0.7-0.7v-4.2c0-0.4,0.3-0.7,0.7-0.7h17.3
				c0.4,0,0.7,0.4,0.7,0.7V151.5z M203.9,151.5c0,0.4-0.3,0.7-0.7,0.7h-10.8v4.8h8.9c0.4,0,0.7,0.4,0.7,0.7v4.2
				c0,0.4-0.3,0.7-0.7,0.7h-8.9v5.2h10.8c0.4,0,0.7,0.3,0.7,0.7v4.2c0,0.4-0.3,0.7-0.7,0.7h-16.1c-0.4,0-0.7-0.3-0.7-0.7v-25.7
				c0-0.4,0.3-0.7,0.7-0.7h16.1c0.4,0,0.7,0.4,0.7,0.7V151.5z M249.2,173.7h-4.6c-0.3,0-0.7-0.3-0.7-0.6l-1.7-12H242l-6.5,12.6
				c-0.1,0.2-0.5,0.4-0.7,0.4h-0.7c-0.2,0-0.5-0.2-0.7-0.4l-6.6-12.6h-0.1l-1.7,12c0,0.3-0.4,0.6-0.7,0.6h-4.6
				c-0.5,0-0.8-0.3-0.7-0.9l4.4-26.1c0-0.3,0.4-0.6,0.7-0.6h0.6c0.2,0,0.5,0.2,0.7,0.4l9,16.8h0.1l9-16.8c0.1-0.2,0.5-0.4,0.7-0.4
				h0.6c0.3,0,0.7,0.3,0.7,0.6l4.4,26.1C250,173.4,249.7,173.7,249.2,173.7z M276.7,163.8h-4.1v9.1c0,0.4-0.3,0.7-0.7,0.7h-4.6
				c-0.4,0-0.7-0.3-0.7-0.7v-25.7c0-0.4,0.3-0.7,0.7-0.7h9.4c4.8,0,8.7,3.9,8.7,8.6C285.4,159.9,281.5,163.8,276.7,163.8z
				 M317.1,173c0,0.4-0.3,0.7-0.7,0.7h-14.6c-0.4,0-0.7-0.3-0.7-0.7v-25.7c0-0.4,0.3-0.7,0.7-0.7h4.6c0.4,0,0.7,0.4,0.7,0.7V168h9.2
				c0.4,0,0.7,0.3,0.7,0.7V173z M355.7,173.7h-4.3c-0.7,0-1-0.2-1.4-1l-1.4-3.1h-10.6l-1.4,3.1c-0.2,0.5-0.6,0.9-1.4,0.9H331
				c-0.6,0-0.9-0.5-0.7-1l12.2-26.2c0.1-0.2,0.4-0.4,0.7-0.4h0.4c0.3,0,0.5,0.2,0.7,0.4l12.2,26.2
				C356.6,173.2,356.3,173.7,355.7,173.7z M385.7,151.5c0,0.4-0.3,0.7-0.7,0.7h-5.6V173c0,0.4-0.3,0.7-0.7,0.7H374
				c-0.4,0-0.7-0.3-0.7-0.7v-20.8h-5.6c-0.4,0-0.7-0.4-0.7-0.7v-4.2c0-0.4,0.3-0.7,0.7-0.7H385c0.4,0,0.7,0.4,0.7,0.7V151.5z
				 M418.9,151.5c0,0.4-0.3,0.7-0.7,0.7h-10.8v4.8h8.9c0.4,0,0.7,0.4,0.7,0.7v4.2c0,0.4-0.3,0.7-0.7,0.7h-8.9v5.2h10.8
				c0.4,0,0.7,0.3,0.7,0.7v4.2c0,0.4-0.3,0.7-0.7,0.7H402c-0.4,0-0.7-0.3-0.7-0.7v-25.7c0-0.4,0.3-0.7,0.7-0.7h16.1
				c0.4,0,0.7,0.4,0.7,0.7V151.5z"/>
		</g>
	</g>
	<g>
		<path d="M326.2,109.6L326.2,109.6l-29.7-51.3l-18.4,31.9L226,0l-51.6,89.4l-18-31.2l-29.6,51.3h0l-3.7,6.5H143h186.8L326.2,109.6z
			 M296.5,73.5l9.8,17l-9.8-1.4l-9.8,1.4L296.5,73.5z M226,15.2l22.7,39.3L226,52.3l-22.7,2.2L226,15.2z M156.4,73.5l9.8,17
			l-9.8-1.4l-9.8,1.4L156.4,73.5z"/>
	</g>
</g>
</svg>
