<?xml version="1.0" encoding="UTF-8" standalone="no"?>
<svg width="216px" height="216px" viewBox="0 0 216 216" version="1.1" xmlns="http://www.w3.org/2000/svg" xmlns:xlink="http://www.w3.org/1999/xlink" xmlns:sketch="http://www.bohemiancoding.com/sketch/ns">
    <!-- Generator: Sketch 3.2.2 (9983) - http://www.bohemiancoding.com/sketch -->
    <title>diligence</title>
    <desc>Created with Sketch.</desc>
    <defs></defs>
    <g id="Page-1" stroke="none" stroke-width="1" fill="none" fill-rule="evenodd" sketch:type="MSPage">
        <path d="M119.4375,139.466667 C119.4375,137.465867 118.863281,135.618133 117.922656,134 L99.0773438,134 C98.1367188,135.618133 97.5625,137.465867 97.5625,139.466667 C97.5625,145.501867 102.4625,150.4 108.5,150.4 C114.5375,150.4 119.4375,145.501867 119.4375,139.466667 L119.4375,139.466667 Z M130.375,139.466667 C130.375,151.542533 120.580469,161.333333 108.5,161.333333 C96.4195312,161.333333 86.625,151.542533 86.625,139.466667 C86.625,137.564267 86.9203125,135.743867 87.3960937,134 L21,134 L21,194.133333 C21,206.2092 30.7945312,216 42.875,216 L174.125,216 C186.205469,216 196,206.2092 196,194.133333 L196,134 L129.603906,134 C130.079687,135.743867 130.375,137.564267 130.375,139.466667 L130.375,139.466667 Z M130.375,73.8666667 L86.625,73.8666667 L86.625,68.4 C86.625,65.3824 89.075,62.9333333 92.09375,62.9333333 L124.90625,62.9333333 C127.925,62.9333333 130.375,65.3824 130.375,68.4 L130.375,73.8666667 L130.375,73.8666667 Z M174.125,73.8666667 L141.3125,73.8666667 L141.3125,62.9333333 C141.3125,56.8981333 136.4125,52 130.375,52 L86.625,52 C80.5875,52 75.6875,56.8981333 75.6875,62.9333333 L75.6875,73.8666667 L42.875,73.8666667 C30.7945312,73.8666667 21,83.6574667 21,95.7333333 L21,123.066667 L196,123.066667 L196,95.7333333 C196,83.6574667 186.205469,73.8666667 174.125,73.8666667 L174.125,73.8666667 Z" id="diligence" fill="#FFFFFF" sketch:type="MSShapeGroup"></path>
    </g>
</svg>