<?xml version="1.0" encoding="UTF-8" standalone="no"?>
<svg width="35px" height="35px" viewBox="0 0 35 35" version="1.1" xmlns="http://www.w3.org/2000/svg" xmlns:xlink="http://www.w3.org/1999/xlink" xmlns:sketch="http://www.bohemiancoding.com/sketch/ns">
    <!-- Generator: Sketch 3.2 (9964) - http://www.bohemiancoding.com/sketch -->
    <title>grid button</title>
    <desc>Created with Sketch.</desc>
    <defs></defs>
    <g id="Work" stroke="none" stroke-width="1" fill="none" fill-rule="evenodd" sketch:type="MSPage">
        <g id="Portrait" sketch:type="MSArtboardGroup" transform="translate(-302.000000, -964.000000)" fill="#000000">
            <g id="grid-button" sketch:type="MSLayerGroup" transform="translate(302.000000, 964.000000)">
                <rect id="Rectangle-132" sketch:type="MSShapeGroup" transform="translate(4.500000, 17.500000) rotate(-90.000000) translate(-4.500000, -17.500000) " x="0" y="13" width="9" height="9"></rect>
                <rect id="Rectangle-132" sketch:type="MSShapeGroup" transform="translate(4.500000, 30.500000) rotate(-90.000000) translate(-4.500000, -30.500000) " x="0" y="26" width="9" height="9"></rect>
                <rect id="Rectangle-132" sketch:type="MSShapeGroup" transform="translate(17.500000, 17.500000) rotate(-90.000000) translate(-17.500000, -17.500000) " x="13" y="13" width="9" height="9"></rect>
                <rect id="Rectangle-132" sketch:type="MSShapeGroup" transform="translate(30.500000, 17.500000) rotate(-90.000000) translate(-30.500000, -17.500000) " x="26" y="13" width="9" height="9"></rect>
                <rect id="Rectangle-132" sketch:type="MSShapeGroup" transform="translate(17.500000, 30.500000) rotate(-90.000000) translate(-17.500000, -30.500000) " x="13" y="26" width="9" height="9"></rect>
                <rect id="Rectangle-132" sketch:type="MSShapeGroup" transform="translate(30.500000, 30.500000) rotate(-90.000000) translate(-30.500000, -30.500000) " x="26" y="26" width="9" height="9"></rect>
                <rect id="Rectangle-132" sketch:type="MSShapeGroup" transform="translate(4.500000, 4.500000) rotate(-90.000000) translate(-4.500000, -4.500000) " x="0" y="0" width="9" height="9"></rect>
                <rect id="Rectangle-132" sketch:type="MSShapeGroup" transform="translate(17.500000, 4.500000) rotate(-90.000000) translate(-17.500000, -4.500000) " x="13" y="0" width="9" height="9"></rect>
                <rect id="Rectangle-132" sketch:type="MSShapeGroup" transform="translate(30.500000, 4.500000) rotate(-90.000000) translate(-30.500000, -4.500000) " x="26" y="0" width="9" height="9"></rect>
            </g>
        </g>
    </g>
</svg>