<?xml version="1.0" encoding="UTF-8" standalone="no"?>
<svg width="216px" height="216px" viewBox="0 0 216 216" version="1.1" xmlns="http://www.w3.org/2000/svg" xmlns:xlink="http://www.w3.org/1999/xlink" xmlns:sketch="http://www.bohemiancoding.com/sketch/ns">
    <!-- Generator: Sketch 3.2.2 (9983) - http://www.bohemiancoding.com/sketch -->
    <title>innovation</title>
    <desc>Created with Sketch.</desc>
    <defs></defs>
    <g id="Page-1" stroke="none" stroke-width="1" fill="none" fill-rule="evenodd" sketch:type="MSPage">
        <path d="M136.470948,169.344421 L87.9947217,216 L83.9025727,211.905815 L87.679941,147.596774 L71.6261257,131.519514 L7.40692969,135.294518 L3,130.885093 L49.9023232,82.3341314 L87.0464449,82.3341314 C134.263549,34.7328315 134.89311,34.4175911 134.89311,34.4175911 C157.872101,11.0898018 212.333095,5.41547463 212.962657,6.04595543 C213.592218,6.67643622 206.348327,63.1044672 184.632394,84.2255738 L136.470948,132.146055 L136.470948,169.344421 L136.470948,169.344421 Z M76.3439013,170.290143 L70.9926296,158.626248 L63.4378929,167.133798 L63.4378929,155.789084 L52.105788,155.789084 L60.290086,147.908074 L48.6432004,142.548988 L68.7891647,141.288026 L77.9178048,150.429998 L76.3439013,170.290143 L76.3439013,170.290143 Z" id="innovation" fill="#FFFFFF" sketch:type="MSShapeGroup"></path>
    </g>
</svg>