<?xml version="1.0" encoding="UTF-8" standalone="no"?>
<svg width="100px" height="100px" viewBox="0 0 100 100" version="1.1" xmlns="http://www.w3.org/2000/svg" xmlns:xlink="http://www.w3.org/1999/xlink" xmlns:sketch="http://www.bohemiancoding.com/sketch/ns">
    <!-- Generator: Sketch 3.2.2 (9983) - http://www.bohemiancoding.com/sketch -->
    <title>Imported Layers 3</title>
    <desc>Created with Sketch.</desc>
    <defs></defs>
    <g id="Homepage" stroke="none" stroke-width="1" fill="none" fill-rule="evenodd" sketch:type="MSPage">
        <path d="M97.3953901,34.1504425 C95.4148936,28.1929204 92.3386525,22.7345133 88.4042553,18.0123894 C86.4361702,15.6460177 84.251773,13.4654867 81.8812057,11.500885 C77.1507092,7.57522124 71.6826241,4.50619469 65.7163121,2.52920354 C62.6223404,1.50265487 59.393617,0.771681416 56.0620567,0.368141593 C54.0638298,0.125663717 52.0301418,0 49.9663121,0 C47.9024823,0 45.8670213,0.125663717 43.8687943,0.368141593 C40.537234,0.771681416 37.3085106,1.50442478 34.212766,2.53097345 C28.2464539,4.50619469 22.7783688,7.57699115 18.0478723,11.500885 C15.677305,13.4672566 13.4929078,15.6495575 11.5230496,18.0159292 C8.67553191,21.4353982 6.27659574,25.2389381 4.41843972,29.339823 C3.71099291,30.9026549 3.08156028,32.5079646 2.53546099,34.1504425 C1.99468085,35.7716814 1.53723404,37.4318584 1.16489362,39.1221239 C0.40248227,42.5858407 0,46.1840708 0,49.8761062 C0,61.9893805 4.32624113,73.0955752 11.5212766,81.7362832 C13.4893617,84.1026549 15.6737589,86.2831858 18.0443262,88.2477876 C22.7748227,92.1752212 28.2446809,95.2460177 34.212766,97.2230088 C37.3085106,98.2495575 40.5390071,98.9823009 43.8705674,99.3858407 C45.8687943,99.6283186 47.9024823,99.7539823 49.9663121,99.7539823 C52.0301418,99.7539823 54.0638298,99.6283186 56.0602837,99.3858407 C57.6453901,99.1946903 59.2056738,98.9274336 60.7411348,98.5911504 C62.4326241,98.219469 64.0939716,97.7628319 65.7163121,97.2247788 C67.3634752,96.679646 68.9734043,96.0513274 70.5390071,95.3433628 C74.6471631,93.4884956 78.4574468,91.0938053 81.8829787,88.2513274 C84.2535461,86.2849558 86.4397163,84.1044248 88.4095745,81.7380531 C95.6046099,73.0973451 99.9308511,61.9911504 99.9308511,49.8761062 C99.9308511,44.380531 99.0407801,39.0938053 97.3953901,34.1504425 L97.3953901,34.1504425 Z M81.8492908,75.1893805 C79.9255319,77.6 77.7358156,79.7858407 75.322695,81.7026549 C72.3067376,84.100885 68.9432624,86.0814159 65.3173759,87.5539823 C64.7003546,87.8053097 64.0762411,88.040708 63.4450355,88.2619469 C63.3333333,88.300885 63.2198582,88.339823 63.108156,88.3787611 C59.7765957,89.5115044 56.25,90.2265487 52.5921986,90.4584071 C51.7801418,90.5097345 50.9609929,90.5380531 50.1347518,90.539823 C50.0780142,90.5415929 50.0230496,90.5415929 49.9663121,90.5415929 C49.9095745,90.5415929 49.8546099,90.5415929 49.7978723,90.539823 C45.2588652,90.5221239 40.8971631,89.7628319 36.822695,88.3787611 C36.0762411,88.1238938 35.3386525,87.8495575 34.6117021,87.5522124 C31.2406028,86.1831858 28.0950355,84.3750442 25.2457447,82.199115 C24.9037234,81.9376991 24.8673759,81.4368142 25.1719858,81.1329204 L33.7093972,72.6104425 C33.9865248,72.3338053 34.435461,72.3338053 34.7124113,72.6104425 L39.0904255,76.9787611 L39.1170213,77.0053097 C40.7304965,78.5362832 42.5886525,79.660177 44.5620567,80.3752212 C46.3031915,81.0106195 48.1347518,81.3274336 49.9663121,81.3274336 C51.7960993,81.3274336 53.6276596,81.0106195 55.3687943,80.3752212 C55.4131206,80.3610619 55.4556738,80.3451327 55.498227,80.3292035 C57.5425532,79.5663717 59.4609929,78.3628319 61.1046099,76.7221239 C61.7074468,76.120354 62.25,75.4831858 62.7340426,74.8159292 C63.5744681,73.660177 64.2358156,72.4141593 64.7198582,71.1185841 C66.8173759,65.5256637 65.6117021,58.9823009 61.1046099,54.4831858 L45.2925532,38.6973451 C44.0567376,37.4336283 43.4397163,35.7911504 43.4397163,34.1504425 C43.4397163,32.4831858 44.0762411,30.8176991 45.3510638,29.5451327 C47.8989362,27.0017699 52.0319149,27.0017699 54.5797872,29.5451327 C55.6914894,30.6564602 56.3191489,32.0674336 56.4602837,33.5175221 C56.4953901,33.8776991 56.801773,34.1504425 57.1643617,34.1504425 L64.9904255,34.1504425 C65.3945035,34.1504425 65.7196809,33.8139823 65.7007092,33.4109735 C65.6244681,31.7869027 65.2971631,30.1732743 64.7198582,28.6318584 C63.9556738,26.5893805 62.75,24.6725664 61.1046099,23.0300885 C58.0283688,19.9610619 53.9964539,18.4247788 49.9663121,18.4247788 C45.9343972,18.4247788 41.9024823,19.9610619 38.8262411,23.0300885 C37.1808511,24.6725664 35.9751773,26.5893805 35.2092199,28.6318584 C34.5443262,30.4070796 34.2109929,32.2778761 34.2109929,34.1504425 C34.2109929,38.1752212 35.75,42.2 38.8262411,45.2707965 L42.9381206,49.3753982 C43.2150709,49.6518584 43.2150709,50.100354 42.9379433,50.3766372 L18.6492908,74.620708 C18.3450355,74.9246018 17.8429078,74.8893805 17.5817376,74.5481416 C12.3421986,67.7060177 9.2287234,59.1529204 9.2287234,49.8761062 C9.2287234,48.9946903 9.2570922,48.120354 9.31205674,47.2548673 C9.55319149,43.479646 10.3085106,39.8460177 11.5124113,36.4212389 C11.7819149,35.6530973 12.072695,34.8955752 12.3882979,34.1504425 C13.8439716,30.6849558 15.7695035,27.4637168 18.0833333,24.5646018 C20.0035461,22.1557522 22.1932624,19.9681416 24.608156,18.0495575 C28.2287234,15.1716814 32.3510638,12.8955752 36.822695,11.3752212 C40.9468085,9.97345133 45.3670213,9.21238938 49.9663121,9.21238938 C54.5638298,9.21238938 58.9840426,9.97345133 63.108156,11.3752212 C67.5797872,12.8955752 71.7021277,15.1699115 75.322695,18.0477876 C77.7340426,19.9663717 79.9237589,22.1504425 81.8457447,24.559292 C84.1595745,27.4584071 86.0851064,30.6831858 87.5425532,34.1504425 C89.5780142,38.9876106 90.7021277,44.300885 90.7021277,49.8761062 C90.7021277,59.4460177 87.3900709,68.2442478 81.8492908,75.1893805 L81.8492908,75.1893805 Z M56.4911348,65.6035398 C56.4911348,66.9557522 56.0780142,68.2123894 55.3705674,69.2530973 C54.1968085,70.980531 52.214539,72.1168142 49.9663121,72.1168142 C48.2606383,72.1168142 46.7074468,71.4637168 45.5443262,70.3946903 C45.4131206,70.2725664 41.2390071,66.0953982 41.2390071,66.0953982 C40.9620567,65.8187611 40.9620567,65.3704425 41.2390071,65.0939823 L49.4611702,56.8881416 C49.7381206,56.6116814 50.187234,56.6118584 50.4641844,56.8884956 C50.4640071,56.8884956 54.6170213,61.0336283 54.6897163,61.1079646 C55.8049645,62.2778761 56.4911348,63.8619469 56.4911348,65.6035398 L56.4911348,65.6035398 Z" id="Imported-Layers-3" fill="#D61579" sketch:type="MSShapeGroup"></path>
    </g>
</svg>