<?xml version="1.0" encoding="UTF-8" standalone="no"?>
<svg width="51px" height="51px" viewBox="0 0 51 51" version="1.1" xmlns="http://www.w3.org/2000/svg" xmlns:xlink="http://www.w3.org/1999/xlink" xmlns:sketch="http://www.bohemiancoding.com/sketch/ns">
    <!-- Generator: Sketch 3.2 (9964) - http://www.bohemiancoding.com/sketch -->
    <title>mail icon</title>
    <desc>Created with Sketch.</desc>
    <defs></defs>
    <g id="Contact" stroke="none" stroke-width="1" fill="none" fill-rule="evenodd" sketch:type="MSPage">
        <path d="M24.9505764,24.2041481 L46.1206052,9.17333333 C45.8723343,9.12962963 45.6177233,9.10548148 45.3579251,9.10548148 L4.54337176,9.10548148 C4.28342939,9.10548148 4.02896254,9.12962963 3.78069164,9.17333333 L24.9505764,24.2041481 Z M26.1377522,28.5822222 C25.7805476,28.8358519 25.365562,28.9628148 24.9505764,28.9628148 C24.5355908,28.9628148 24.1207493,28.8358519 23.7634006,28.5822222 L0.362536023,11.9675556 C0.134726225,12.5223704 0.0083573487,13.1308148 0.0083573487,13.7681481 L0.0083573487,36.321037 C0.0083573487,38.8856296 2.04913545,40.9835556 4.54337176,40.9835556 L45.3579251,40.9835556 C47.8521614,40.9835556 49.8927954,38.8856296 49.8927954,36.321037 L49.8927954,13.7681481 C49.8927954,13.1308148 49.7665706,12.5223704 49.5387608,11.9675556 L26.1377522,28.5822222 Z" id="mail-icon" fill="#FFFFFF" sketch:type="MSShapeGroup"></path>
    </g>
</svg>