<?xml version="1.0" encoding="UTF-8" standalone="no"?>
<svg width="109px" height="61px" viewBox="0 0 109 61" version="1.1" xmlns="http://www.w3.org/2000/svg" xmlns:xlink="http://www.w3.org/1999/xlink" xmlns:sketch="http://www.bohemiancoding.com/sketch/ns">
    <!-- Generator: Sketch 3.2.2 (9983) - http://www.bohemiancoding.com/sketch -->
    <title>contemplate black</title>
    <desc>Created with Sketch.</desc>
    <defs></defs>
    <g id="Page-1" stroke="none" stroke-width="1" fill="none" fill-rule="evenodd" sketch:type="MSPage">
        <g id="Portrait" sketch:type="MSArtboardGroup" transform="translate(-26.000000, -27.000000)" fill="#000000">
            <g id="nav" sketch:type="MSLayerGroup">
                <g id="contemplate-black" transform="translate(26.000000, 27.000000)" sketch:type="MSShapeGroup">
                    <g id="Group">
                        <path d="M106.438095,57.4275897 L106.438095,57.4275897 L90.8809524,30.5477051 L81.2428571,47.2624872 L53.952381,0 L26.9238095,46.8433077 L17.4952381,30.4953077 L1.99047619,57.3751923 L0.0523809524,60.7810256 L10.4761905,60.7810256 L108.32381,60.7810256 L106.438095,57.4275897 L106.438095,57.4275897 Z M90.8809524,38.5121154 L96.0142857,47.4196795 L90.8809524,46.6861154 L85.747619,47.4196795 L90.8809524,38.5121154 L90.8809524,38.5121154 Z M53.952381,7.96441026 L65.8428571,28.5566026 L53.952381,27.403859 L42.0619048,28.5566026 L53.952381,7.96441026 L53.952381,7.96441026 Z M17.4952381,38.5121154 L22.6285714,47.4196795 L17.4952381,46.6861154 L12.3619048,47.4196795 L17.4952381,38.5121154 L17.4952381,38.5121154 Z" id="Shape"></path>
                    </g>
                </g>
            </g>
        </g>
    </g>
</svg>