<?xml version="1.0" encoding="UTF-8" standalone="no"?>
<svg width="51px" height="51px" viewBox="0 0 51 51" version="1.1" xmlns="http://www.w3.org/2000/svg" xmlns:xlink="http://www.w3.org/1999/xlink" xmlns:sketch="http://www.bohemiancoding.com/sketch/ns">
    <!-- Generator: Sketch 3.2 (9964) - http://www.bohemiancoding.com/sketch -->
    <title>phone icon</title>
    <desc>Created with Sketch.</desc>
    <defs></defs>
    <g id="Contact" stroke="none" stroke-width="1" fill="none" fill-rule="evenodd" sketch:type="MSPage">
        <path d="M50.4872292,42.0154594 C47.6547541,48.8070046 41.0140219,49.9972617 38.8443074,49.9972617 C38.2069672,49.9972617 28.2830029,50.5234212 14.0179481,36.9886921 C2.53718577,26.0957289 1.13440609,14.3817842 1.01212185,12.1568243 C0.893326695,9.98836932 1.51371984,4.55061273 8.99283005,0.509688177 C9.91943224,0.00962064739 11.7565204,-0.212410001 12.2308702,0.262562748 C12.4417109,0.472793863 18.718747,10.8051961 18.8837311,11.1475488 C19.0487151,11.4894029 19.1316225,11.8259388 19.1316225,12.1558272 C19.1316225,12.6276423 18.795507,13.2177852 18.1226114,13.9260895 C17.4503803,14.6337291 16.7193332,15.2825372 15.9289717,15.8726801 C15.1384439,16.4626567 14.4070645,17.0875334 13.7341689,17.7488058 C13.062104,18.4084163 12.7259885,18.9520258 12.7259885,19.3766428 C12.7715128,20.4781541 13.674356,24.4256795 20.5515153,30.470198 C27.4300039,36.516046 30.7433087,38.2193336 31.0618126,38.3371627 C31.380815,38.4548256 31.6456534,38.5131585 31.8578232,38.5131585 C32.2824951,38.5131585 32.8256299,38.1776197 33.4857322,37.5053787 C34.1461668,36.8321406 36.3667223,33.7885258 37.0743427,33.1156201 C37.7821292,32.4437115 38.3719513,32.1070093 38.8443074,32.1070093 C39.1742755,32.1070093 39.5100587,32.1899384 39.8519894,32.3547995 C40.1942523,32.5196606 50.5372395,38.5733195 50.7352868,38.7755735 C51.2712773,39.3259968 50.8924619,41.0427457 50.4872292,42.0154594" id="phone-icon" fill="#FFFFFF" sketch:type="MSShapeGroup"></path>
    </g>
</svg>