<?xml version="1.0" encoding="UTF-8" standalone="no"?>
<svg width="216px" height="216px" viewBox="0 0 216 216" version="1.1" xmlns="http://www.w3.org/2000/svg" xmlns:xlink="http://www.w3.org/1999/xlink" xmlns:sketch="http://www.bohemiancoding.com/sketch/ns">
    <!-- Generator: Sketch 3.2.2 (9983) - http://www.bohemiancoding.com/sketch -->
    <title>reliability</title>
    <desc>Created with Sketch.</desc>
    <defs></defs>
    <g id="Page-1" stroke="none" stroke-width="1" fill="none" fill-rule="evenodd" sketch:type="MSPage">
        <path d="M181.940867,111.7427 C181.952694,111.553047 181.997635,111.372876 181.997635,111.178481 C181.997635,103.480917 175.772153,97.243686 168.096739,97.243686 L163.108312,97.243686 L163.108312,69.7344381 C163.108312,38.948925 138.211115,14 107.5,14 C76.79125,14 51.8916881,38.948925 51.8916881,69.7344381 L51.8916881,97.2413154 L46.9008953,97.2413154 C39.2231165,97.2413154 33,103.480917 33,111.17611 C33,111.370505 33.0496714,111.550676 33.0567673,111.74033 L33.0567673,170.618275 C33.030749,171.227537 33,171.832058 33,172.446061 C33,172.853817 33.0473061,173.247348 33.0567673,173.650361 L33.0567673,174.679232 L33.1064387,174.679232 C34.2015748,196.396935 51.044909,213.939888 72.4485507,216 L103.935486,216 L111.062149,216 L117.481586,216 L142.551449,216 C163.955091,213.939888 180.798425,196.396935 181.893561,174.679232 L181.943233,174.679232 L181.943233,173.650361 C181.957425,173.247348 182,172.853817 182,172.446061 C182,171.829687 181.969251,171.225167 181.943233,170.618275 L181.943233,111.7427 L181.940867,111.7427 Z M120.807204,163.231269 C120.807204,170.535302 114.903403,176.450122 107.618265,176.450122 C100.333127,176.450122 94.4293266,170.535302 94.4293266,163.231269 L94.4293266,150.014787 C94.4293266,142.710755 100.335492,136.793564 107.618265,136.793564 C114.903403,136.793564 120.807204,142.710755 120.807204,150.014787 L120.807204,163.231269 L120.807204,163.231269 Z M134.946995,97.2413154 L80.053005,97.2413154 L80.053005,69.7344381 C80.053005,54.5384471 92.3407626,42.2228195 107.5,42.2228195 C122.656872,42.2228195 134.946995,54.5384471 134.946995,69.7344381 L134.946995,97.2413154 L134.946995,97.2413154 Z" id="reliability" fill="#FFFFFF" sketch:type="MSShapeGroup"></path>
    </g>
</svg>