<?xml version="1.0" encoding="UTF-8" standalone="no"?>
<svg width="51px" height="50px" viewBox="0 0 51 50" version="1.1" xmlns="http://www.w3.org/2000/svg" xmlns:xlink="http://www.w3.org/1999/xlink" xmlns:sketch="http://www.bohemiancoding.com/sketch/ns">
    <!-- Generator: Sketch 3.2 (9964) - http://www.bohemiancoding.com/sketch -->
    <title>twitter icon</title>
    <desc>Created with Sketch.</desc>
    <defs></defs>
    <g id="Contact" stroke="none" stroke-width="1" fill="none" fill-rule="evenodd" sketch:type="MSPage">
        <path d="M50.7521614,8.85422595 C48.9130989,9.67718988 46.9365364,10.2337153 44.8615364,10.4828117 C46.9787239,9.20264554 48.6052864,7.17361378 49.3709114,4.758325 C47.3896614,5.94389756 45.1927864,6.80469892 42.8568489,7.26820734 C40.9865364,5.25651773 38.3209114,4 35.3693489,4 C29.7037239,4 25.1115364,8.63508421 25.1115364,14.3501115 C25.1115364,15.1620395 25.2005989,15.9518957 25.3771614,16.7102207 C16.8505989,16.2766669 9.29278638,12.1571176 4.23341138,5.89502423 C3.35059888,7.4242867 2.84434888,9.20106898 2.84434888,11.0992463 C2.84434888,14.6890718 4.65528638,17.8579559 7.40684888,19.7135661 C5.72559888,19.6599631 4.14434888,19.1948781 2.76153638,18.419211 C2.75997388,18.4617781 2.75997388,18.5059217 2.75997388,18.5484888 C2.75997388,23.5635238 6.29591138,27.7477121 10.9896614,28.6983773 C10.1287239,28.9348612 9.22247388,29.0609859 8.28653638,29.0609859 C7.62559888,29.0609859 6.98341138,28.996347 6.35684888,28.8749519 C7.66153638,32.9866185 11.4505989,35.9805045 15.9396614,36.0640621 C12.4287239,38.8388064 8.00528638,40.4941936 3.19903638,40.4941936 C2.37091138,40.4941936 1.55528638,40.4453203 0.752161383,40.3491502 C5.29122388,43.2862801 10.6834114,45 16.4771614,45 C35.3459114,45 45.6630989,29.2281012 45.6630989,15.5498731 C45.6630989,15.1021303 45.6537239,14.655964 45.6334114,14.2113743 C47.6380989,12.7514804 49.3771614,10.9289779 50.7521614,8.85422595" id="twitter-icon" fill="#FFFFFF" sketch:type="MSShapeGroup"></path>
    </g>
</svg>